<mxfile host="app.diagrams.net" agent="Mozilla/5.0 (Windows NT 10.0; Win64; x64) AppleWebKit/537.36 (KHTML, like Gecko) Chrome/133.0.0.0 Safari/537.36" version="26.0.16" pages="4">
  <diagram name="Vision de Arquitectura" id="qRi9ph3GTaD9SnLgLOYH">
    <mxGraphModel dx="2688" dy="498" grid="1" gridSize="10" guides="1" tooltips="1" connect="1" arrows="1" fold="1" page="1" pageScale="1" pageWidth="827" pageHeight="1169" math="0" shadow="0">
      <root>
        <mxCell id="0" />
        <mxCell id="1" parent="0" />
        <mxCell id="vnSzT78qKY7ny7EhLF-H-1" value="" style="group" parent="1" vertex="1" connectable="0">
          <mxGeometry x="30" y="580" width="780" height="361" as="geometry" />
        </mxCell>
        <mxCell id="vnSzT78qKY7ny7EhLF-H-2" value="" style="shape=folder;spacingTop=10;tabWidth=100;tabHeight=25;tabPosition=left;html=1;dashed=1;" parent="vnSzT78qKY7ny7EhLF-H-1" vertex="1">
          <mxGeometry y="1" width="780" height="360" as="geometry" />
        </mxCell>
        <object label="Procesamiento de pagos" id="vnSzT78qKY7ny7EhLF-H-3">
          <mxCell style="html=1;outlineConnect=0;whiteSpace=wrap;fillColor=#ffff99;shape=mxgraph.archimate3.application;appType=proc;archiType=rounded;" parent="vnSzT78qKY7ny7EhLF-H-1" vertex="1">
            <mxGeometry x="19.25925925925926" y="51" width="144.44444444444443" height="75" as="geometry" />
          </mxCell>
        </object>
        <mxCell id="vnSzT78qKY7ny7EhLF-H-4" value="Aceptación de pagos a través de tarjetas, transferencias bancarias, etc." style="text;html=1;strokeColor=none;fillColor=none;align=center;verticalAlign=middle;whiteSpace=wrap;rounded=0;" parent="vnSzT78qKY7ny7EhLF-H-1" vertex="1">
          <mxGeometry x="9.62962962962963" y="141" width="163.7037037037037" height="30" as="geometry" />
        </mxCell>
        <object label="Gestión de suscripciones" id="vnSzT78qKY7ny7EhLF-H-5">
          <mxCell style="html=1;outlineConnect=0;whiteSpace=wrap;fillColor=#ffff99;shape=mxgraph.archimate3.application;appType=proc;archiType=rounded;" parent="vnSzT78qKY7ny7EhLF-H-1" vertex="1">
            <mxGeometry x="202.2222222222222" y="51" width="144.44444444444443" height="75" as="geometry" />
          </mxCell>
        </object>
        <mxCell id="vnSzT78qKY7ny7EhLF-H-6" value="Herramientas para crear y gestionar planes de suscripción." style="text;html=1;strokeColor=none;fillColor=none;align=center;verticalAlign=middle;whiteSpace=wrap;rounded=0;" parent="vnSzT78qKY7ny7EhLF-H-1" vertex="1">
          <mxGeometry x="202.2222222222222" y="141" width="144.44444444444443" height="30" as="geometry" />
        </mxCell>
        <object label="Gestión de disputas y reembolsos" id="vnSzT78qKY7ny7EhLF-H-7">
          <mxCell style="html=1;outlineConnect=0;whiteSpace=wrap;fillColor=#ffff99;shape=mxgraph.archimate3.application;appType=proc;archiType=rounded;" parent="vnSzT78qKY7ny7EhLF-H-1" vertex="1">
            <mxGeometry x="375.55555555555554" y="51" width="144.44444444444443" height="75" as="geometry" />
          </mxCell>
        </object>
        <mxCell id="vnSzT78qKY7ny7EhLF-H-8" value="Funcionalidad para gestionar solicitudes de disputa y reembolsos." style="text;html=1;strokeColor=none;fillColor=none;align=center;verticalAlign=middle;whiteSpace=wrap;rounded=0;" parent="vnSzT78qKY7ny7EhLF-H-1" vertex="1">
          <mxGeometry x="375.55555555555554" y="141" width="144.44444444444443" height="30" as="geometry" />
        </mxCell>
        <object label="Autenticación de usuarios" id="vnSzT78qKY7ny7EhLF-H-9">
          <mxCell style="html=1;outlineConnect=0;whiteSpace=wrap;fillColor=#ffff99;shape=mxgraph.archimate3.application;appType=proc;archiType=rounded;" parent="vnSzT78qKY7ny7EhLF-H-1" vertex="1">
            <mxGeometry x="558.5185185185185" y="51" width="144.44444444444443" height="75" as="geometry" />
          </mxCell>
        </object>
        <mxCell id="vnSzT78qKY7ny7EhLF-H-10" value="Implementación de procesos de autenticación de pagos" style="text;html=1;strokeColor=none;fillColor=none;align=center;verticalAlign=middle;whiteSpace=wrap;rounded=0;" parent="vnSzT78qKY7ny7EhLF-H-1" vertex="1">
          <mxGeometry x="558.5185185185185" y="141" width="144.44444444444443" height="30" as="geometry" />
        </mxCell>
        <object label="Integraciones con APIs externas" id="vnSzT78qKY7ny7EhLF-H-11">
          <mxCell style="html=1;outlineConnect=0;whiteSpace=wrap;fillColor=#ffff99;shape=mxgraph.archimate3.application;appType=proc;archiType=rounded;" parent="vnSzT78qKY7ny7EhLF-H-1" vertex="1">
            <mxGeometry x="203.18518518518516" y="211" width="144.44444444444443" height="75" as="geometry" />
          </mxCell>
        </object>
        <mxCell id="vnSzT78qKY7ny7EhLF-H-12" value="Conexión con otros servicios de terceros como plataformas de e-commerce." style="text;html=1;strokeColor=none;fillColor=none;align=center;verticalAlign=middle;whiteSpace=wrap;rounded=0;" parent="vnSzT78qKY7ny7EhLF-H-1" vertex="1">
          <mxGeometry x="202.2222222222222" y="301" width="144.44444444444443" height="30" as="geometry" />
        </mxCell>
        <object label="Generación de reportes financieros" id="vnSzT78qKY7ny7EhLF-H-13">
          <mxCell style="html=1;outlineConnect=0;whiteSpace=wrap;fillColor=#ffff99;shape=mxgraph.archimate3.application;appType=proc;archiType=rounded;" parent="vnSzT78qKY7ny7EhLF-H-1" vertex="1">
            <mxGeometry x="20.22222222222222" y="211" width="144.44444444444443" height="75" as="geometry" />
          </mxCell>
        </object>
        <mxCell id="vnSzT78qKY7ny7EhLF-H-14" value="rear informes detallados de las transacciones y pagos." style="text;html=1;strokeColor=none;fillColor=none;align=center;verticalAlign=middle;whiteSpace=wrap;rounded=0;" parent="vnSzT78qKY7ny7EhLF-H-1" vertex="1">
          <mxGeometry x="19.25925925925926" y="301" width="144.44444444444443" height="30" as="geometry" />
        </mxCell>
        <mxCell id="vnSzT78qKY7ny7EhLF-H-17" value="Text" style="text;html=1;strokeColor=none;fillColor=none;align=center;verticalAlign=middle;whiteSpace=wrap;rounded=0;" parent="vnSzT78qKY7ny7EhLF-H-1" vertex="1">
          <mxGeometry x="529.6296296296296" y="171" width="57.77777777777777" height="30" as="geometry" />
        </mxCell>
        <mxCell id="vnSzT78qKY7ny7EhLF-H-18" value="Text" style="text;html=1;strokeColor=none;fillColor=none;align=center;verticalAlign=middle;whiteSpace=wrap;rounded=0;" parent="vnSzT78qKY7ny7EhLF-H-1" vertex="1">
          <mxGeometry x="529.6296296296296" y="171" width="57.77777777777777" height="30" as="geometry" />
        </mxCell>
        <mxCell id="vnSzT78qKY7ny7EhLF-H-19" value="&lt;b&gt;Funcionalidades&lt;/b&gt;" style="text;html=1;strokeColor=none;fillColor=none;align=center;verticalAlign=middle;whiteSpace=wrap;rounded=0;" parent="vnSzT78qKY7ny7EhLF-H-1" vertex="1">
          <mxGeometry x="20.22222222222222" width="57.77777777777777" height="30" as="geometry" />
        </mxCell>
        <mxCell id="vnSzT78qKY7ny7EhLF-H-20" value="" style="group" parent="1" vertex="1" connectable="0">
          <mxGeometry x="19" y="20" width="790" height="180" as="geometry" />
        </mxCell>
        <mxCell id="vnSzT78qKY7ny7EhLF-H-21" value="&lt;div style=&quot;text-align: left;&quot;&gt;&lt;br&gt;&lt;/div&gt;&lt;div style=&quot;text-align: left;&quot;&gt;&lt;br&gt;&lt;/div&gt;" style="shape=folder;spacingTop=10;tabWidth=100;tabHeight=25;tabPosition=left;html=1;dashed=1;" parent="vnSzT78qKY7ny7EhLF-H-20" vertex="1">
          <mxGeometry x="5.468555555555556" y="1.98" width="784.5314444444444" height="178.02" as="geometry" />
        </mxCell>
        <mxCell id="vnSzT78qKY7ny7EhLF-H-22" value="&lt;font style=&quot;font-size: 12px;&quot;&gt;&lt;b&gt;Objetivos&amp;nbsp;&lt;/b&gt;&lt;/font&gt;" style="text;html=1;strokeColor=none;fillColor=none;align=center;verticalAlign=middle;whiteSpace=wrap;rounded=0;" parent="vnSzT78qKY7ny7EhLF-H-20" vertex="1">
          <mxGeometry width="100.24088210347752" height="29.67032967032967" as="geometry" />
        </mxCell>
        <mxCell id="vnSzT78qKY7ny7EhLF-H-23" value="Optimizar el procesamiento de pagos" style="html=1;outlineConnect=0;whiteSpace=wrap;fillColor=#F5DEAA;shape=mxgraph.archimate3.application;appType=resource;archiType=square;fontSize=12;" parent="vnSzT78qKY7ny7EhLF-H-20" vertex="1">
          <mxGeometry x="26.333333333333332" y="70" width="131.66666666666666" height="75" as="geometry" />
        </mxCell>
        <mxCell id="vnSzT78qKY7ny7EhLF-H-24" value="escalabilidad global" style="html=1;outlineConnect=0;whiteSpace=wrap;fillColor=#F5DEAA;shape=mxgraph.archimate3.application;appType=resource;archiType=square;fontSize=12;" parent="vnSzT78qKY7ny7EhLF-H-20" vertex="1">
          <mxGeometry x="175.55555555555554" y="70" width="131.66666666666666" height="75" as="geometry" />
        </mxCell>
        <mxCell id="vnSzT78qKY7ny7EhLF-H-25" value="Integración fluida con servicios externos" style="html=1;outlineConnect=0;whiteSpace=wrap;fillColor=#F5DEAA;shape=mxgraph.archimate3.application;appType=resource;archiType=square;fontSize=12;" parent="vnSzT78qKY7ny7EhLF-H-20" vertex="1">
          <mxGeometry x="324.77777777777777" y="70" width="131.66666666666666" height="75" as="geometry" />
        </mxCell>
        <mxCell id="vnSzT78qKY7ny7EhLF-H-26" value="Cumplimiento normativo" style="html=1;outlineConnect=0;whiteSpace=wrap;fillColor=#F5DEAA;shape=mxgraph.archimate3.application;appType=resource;archiType=square;fontSize=12;" parent="vnSzT78qKY7ny7EhLF-H-20" vertex="1">
          <mxGeometry x="465.22222222222223" y="70" width="131.66666666666666" height="75" as="geometry" />
        </mxCell>
        <mxCell id="vnSzT78qKY7ny7EhLF-H-29" value="" style="group" parent="1" vertex="1" connectable="0">
          <mxGeometry x="19" y="220" width="791" height="150" as="geometry" />
        </mxCell>
        <mxCell id="vnSzT78qKY7ny7EhLF-H-30" value="" style="shape=folder;spacingTop=10;tabWidth=100;tabHeight=25;tabPosition=left;html=1;dashed=1;fontSize=12;" parent="vnSzT78qKY7ny7EhLF-H-29" vertex="1">
          <mxGeometry x="3.4242424242424243" y="3.3834586466165413" width="787.5757575757576" height="146.61654135338347" as="geometry" />
        </mxCell>
        <mxCell id="vnSzT78qKY7ny7EhLF-H-31" value="Migración progresiva de ciertas operaciones a la nube de Meta para mejorar la escalabilidad y disponibilidad" style="html=1;outlineConnect=0;whiteSpace=wrap;fillColor=#F5DEAA;shape=mxgraph.archimate3.application;appType=capability;archiType=rounded;fontSize=8;" parent="vnSzT78qKY7ny7EhLF-H-29" vertex="1">
          <mxGeometry x="13.696969696969697" y="48.49624060150376" width="128.4090909090909" height="84.58646616541355" as="geometry" />
        </mxCell>
        <mxCell id="vnSzT78qKY7ny7EhLF-H-32" value="Mejorar el protocolo XMPP y la gestión de colas para reducir la latencia en la mensajería" style="html=1;outlineConnect=0;whiteSpace=wrap;fillColor=#F5DEAA;shape=mxgraph.archimate3.application;appType=capability;archiType=rounded;fontSize=8;" parent="vnSzT78qKY7ny7EhLF-H-29" vertex="1">
          <mxGeometry x="184.9090909090909" y="48.49624060150376" width="128.4090909090909" height="84.58646616541355" as="geometry" />
        </mxCell>
        <mxCell id="vnSzT78qKY7ny7EhLF-H-33" value="Integración con Meta AI y servicios adicionales para ofrecer nuevas funcionalidades" style="html=1;outlineConnect=0;whiteSpace=wrap;fillColor=#F5DEAA;shape=mxgraph.archimate3.application;appType=capability;archiType=rounded;fontSize=8;" parent="vnSzT78qKY7ny7EhLF-H-29" vertex="1">
          <mxGeometry x="339" y="48.49624060150376" width="128.4090909090909" height="84.58646616541355" as="geometry" />
        </mxCell>
        <mxCell id="vnSzT78qKY7ny7EhLF-H-34" value="Implementación de Zero Trust Security para evitar accesos no autorizados" style="html=1;outlineConnect=0;whiteSpace=wrap;fillColor=#F5DEAA;shape=mxgraph.archimate3.application;appType=capability;archiType=rounded;fontSize=8;" parent="vnSzT78qKY7ny7EhLF-H-29" vertex="1">
          <mxGeometry x="501.6515151515152" y="48.49624060150376" width="128.4090909090909" height="84.58646616541355" as="geometry" />
        </mxCell>
        <mxCell id="vnSzT78qKY7ny7EhLF-H-35" value="&lt;font style=&quot;font-size: 12px;&quot;&gt;Análisis y monitoreo en tiempo real&lt;/font&gt;" style="html=1;outlineConnect=0;whiteSpace=wrap;fillColor=#F5DEAA;shape=mxgraph.archimate3.application;appType=capability;archiType=rounded;fontSize=8;" parent="vnSzT78qKY7ny7EhLF-H-29" vertex="1">
          <mxGeometry x="655.7424242424244" y="48.49624060150376" width="128.4090909090909" height="84.58646616541355" as="geometry" />
        </mxCell>
        <mxCell id="vnSzT78qKY7ny7EhLF-H-36" value="&lt;font style=&quot;font-size: 12px;&quot;&gt;Estrategia&lt;/font&gt;" style="text;html=1;strokeColor=none;fillColor=none;align=center;verticalAlign=middle;whiteSpace=wrap;rounded=0;" parent="vnSzT78qKY7ny7EhLF-H-29" vertex="1">
          <mxGeometry width="97.76081424936388" height="33.46277782368008" as="geometry" />
        </mxCell>
        <mxCell id="vnSzT78qKY7ny7EhLF-H-37" value="&lt;font style=&quot;font-size: 12px;&quot;&gt;Estrategia&lt;/font&gt;" style="text;html=1;strokeColor=none;fillColor=none;align=center;verticalAlign=middle;whiteSpace=wrap;rounded=0;" parent="vnSzT78qKY7ny7EhLF-H-29" vertex="1">
          <mxGeometry width="97.76081424936388" height="33.46277782368008" as="geometry" />
        </mxCell>
        <mxCell id="vnSzT78qKY7ny7EhLF-H-38" value="Migración progresiva de ciertas operaciones a la nube de Meta para mejorar la escalabilidad y disponibilidad" style="html=1;outlineConnect=0;whiteSpace=wrap;fillColor=#F5DEAA;shape=mxgraph.archimate3.application;appType=capability;archiType=rounded;fontSize=8;" parent="vnSzT78qKY7ny7EhLF-H-29" vertex="1">
          <mxGeometry x="13.696969696969697" y="48.49624060150376" width="128.4090909090909" height="84.58646616541355" as="geometry" />
        </mxCell>
        <mxCell id="vnSzT78qKY7ny7EhLF-H-39" value="Mejorar el protocolo XMPP y la gestión de colas para reducir la latencia en la mensajería" style="html=1;outlineConnect=0;whiteSpace=wrap;fillColor=#F5DEAA;shape=mxgraph.archimate3.application;appType=capability;archiType=rounded;fontSize=8;" parent="vnSzT78qKY7ny7EhLF-H-29" vertex="1">
          <mxGeometry x="184.9090909090909" y="48.49624060150376" width="128.4090909090909" height="84.58646616541355" as="geometry" />
        </mxCell>
        <mxCell id="vnSzT78qKY7ny7EhLF-H-40" value="Integración con Meta AI y servicios adicionales para ofrecer nuevas funcionalidades" style="html=1;outlineConnect=0;whiteSpace=wrap;fillColor=#F5DEAA;shape=mxgraph.archimate3.application;appType=capability;archiType=rounded;fontSize=8;" parent="vnSzT78qKY7ny7EhLF-H-29" vertex="1">
          <mxGeometry x="339" y="48.49624060150376" width="128.4090909090909" height="84.58646616541355" as="geometry" />
        </mxCell>
        <mxCell id="vnSzT78qKY7ny7EhLF-H-41" value="Implementación de Zero Trust Security para evitar accesos no autorizados" style="html=1;outlineConnect=0;whiteSpace=wrap;fillColor=#F5DEAA;shape=mxgraph.archimate3.application;appType=capability;archiType=rounded;fontSize=8;" parent="vnSzT78qKY7ny7EhLF-H-29" vertex="1">
          <mxGeometry x="501.6515151515152" y="48.49624060150376" width="128.4090909090909" height="84.58646616541355" as="geometry" />
        </mxCell>
        <mxCell id="vnSzT78qKY7ny7EhLF-H-42" value="&lt;font style=&quot;font-size: 12px;&quot;&gt;Estrategia&lt;/font&gt;" style="text;html=1;strokeColor=none;fillColor=none;align=center;verticalAlign=middle;whiteSpace=wrap;rounded=0;" parent="vnSzT78qKY7ny7EhLF-H-29" vertex="1">
          <mxGeometry width="97.76081424936388" height="33.46277782368008" as="geometry" />
        </mxCell>
        <mxCell id="vnSzT78qKY7ny7EhLF-H-43" value="Migración progresiva de ciertas operaciones a la nube de Meta para mejorar la escalabilidad y disponibilidad" style="html=1;outlineConnect=0;whiteSpace=wrap;fillColor=#F5DEAA;shape=mxgraph.archimate3.application;appType=capability;archiType=rounded;fontSize=8;" parent="vnSzT78qKY7ny7EhLF-H-29" vertex="1">
          <mxGeometry x="13.696969696969697" y="48.49624060150376" width="128.4090909090909" height="84.58646616541355" as="geometry" />
        </mxCell>
        <mxCell id="vnSzT78qKY7ny7EhLF-H-44" value="Mejorar el protocolo XMPP y la gestión de colas para reducir la latencia en la mensajería" style="html=1;outlineConnect=0;whiteSpace=wrap;fillColor=#F5DEAA;shape=mxgraph.archimate3.application;appType=capability;archiType=rounded;fontSize=8;" parent="vnSzT78qKY7ny7EhLF-H-29" vertex="1">
          <mxGeometry x="184.9090909090909" y="48.49624060150376" width="128.4090909090909" height="84.58646616541355" as="geometry" />
        </mxCell>
        <mxCell id="vnSzT78qKY7ny7EhLF-H-45" value="Integración con Meta AI y servicios adicionales para ofrecer nuevas funcionalidades" style="html=1;outlineConnect=0;whiteSpace=wrap;fillColor=#F5DEAA;shape=mxgraph.archimate3.application;appType=capability;archiType=rounded;fontSize=8;" parent="vnSzT78qKY7ny7EhLF-H-29" vertex="1">
          <mxGeometry x="339" y="48.49624060150376" width="128.4090909090909" height="84.58646616541355" as="geometry" />
        </mxCell>
        <mxCell id="vnSzT78qKY7ny7EhLF-H-46" value="Implementación de Zero Trust Security para evitar accesos no autorizados" style="html=1;outlineConnect=0;whiteSpace=wrap;fillColor=#F5DEAA;shape=mxgraph.archimate3.application;appType=capability;archiType=rounded;fontSize=8;" parent="vnSzT78qKY7ny7EhLF-H-29" vertex="1">
          <mxGeometry x="501.6515151515152" y="48.49624060150376" width="128.4090909090909" height="84.58646616541355" as="geometry" />
        </mxCell>
        <mxCell id="vnSzT78qKY7ny7EhLF-H-47" value="&lt;font style=&quot;font-size: 12px;&quot;&gt;Estrategia&lt;/font&gt;" style="text;html=1;strokeColor=none;fillColor=none;align=center;verticalAlign=middle;whiteSpace=wrap;rounded=0;" parent="vnSzT78qKY7ny7EhLF-H-29" vertex="1">
          <mxGeometry width="97.76081424936388" height="33.46277782368008" as="geometry" />
        </mxCell>
        <mxCell id="vnSzT78qKY7ny7EhLF-H-48" value="Migración progresiva de ciertas operaciones a la nube de Meta para mejorar la escalabilidad y disponibilidad" style="html=1;outlineConnect=0;whiteSpace=wrap;fillColor=#F5DEAA;shape=mxgraph.archimate3.application;appType=capability;archiType=rounded;fontSize=8;" parent="vnSzT78qKY7ny7EhLF-H-29" vertex="1">
          <mxGeometry x="13.696969696969697" y="48.49624060150376" width="128.4090909090909" height="84.58646616541355" as="geometry" />
        </mxCell>
        <mxCell id="vnSzT78qKY7ny7EhLF-H-49" value="Mejorar el protocolo XMPP y la gestión de colas para reducir la latencia en la mensajería" style="html=1;outlineConnect=0;whiteSpace=wrap;fillColor=#F5DEAA;shape=mxgraph.archimate3.application;appType=capability;archiType=rounded;fontSize=8;" parent="vnSzT78qKY7ny7EhLF-H-29" vertex="1">
          <mxGeometry x="184.9090909090909" y="48.49624060150376" width="128.4090909090909" height="84.58646616541355" as="geometry" />
        </mxCell>
        <mxCell id="vnSzT78qKY7ny7EhLF-H-50" value="Integración con Meta AI y servicios adicionales para ofrecer nuevas funcionalidades" style="html=1;outlineConnect=0;whiteSpace=wrap;fillColor=#F5DEAA;shape=mxgraph.archimate3.application;appType=capability;archiType=rounded;fontSize=8;" parent="vnSzT78qKY7ny7EhLF-H-29" vertex="1">
          <mxGeometry x="339" y="48.49624060150376" width="128.4090909090909" height="84.58646616541355" as="geometry" />
        </mxCell>
        <mxCell id="vnSzT78qKY7ny7EhLF-H-51" value="Implementación de Zero Trust Security para evitar accesos no autorizados" style="html=1;outlineConnect=0;whiteSpace=wrap;fillColor=#F5DEAA;shape=mxgraph.archimate3.application;appType=capability;archiType=rounded;fontSize=8;" parent="vnSzT78qKY7ny7EhLF-H-29" vertex="1">
          <mxGeometry x="501.6515151515152" y="48.49624060150376" width="128.4090909090909" height="84.58646616541355" as="geometry" />
        </mxCell>
        <mxCell id="vnSzT78qKY7ny7EhLF-H-52" value="&lt;font style=&quot;font-size: 12px;&quot;&gt;Estrategia&lt;/font&gt;" style="text;html=1;strokeColor=none;fillColor=none;align=center;verticalAlign=middle;whiteSpace=wrap;rounded=0;" parent="vnSzT78qKY7ny7EhLF-H-29" vertex="1">
          <mxGeometry width="97.76081424936388" height="33.46277782368008" as="geometry" />
        </mxCell>
        <mxCell id="vnSzT78qKY7ny7EhLF-H-53" value="&lt;font style=&quot;font-size: 12px;&quot;&gt;Redundancia y alta disponibilidad&lt;/font&gt;" style="html=1;outlineConnect=0;whiteSpace=wrap;fillColor=#F5DEAA;shape=mxgraph.archimate3.application;appType=capability;archiType=rounded;fontSize=8;" parent="vnSzT78qKY7ny7EhLF-H-29" vertex="1">
          <mxGeometry x="13.696969696969697" y="48.49624060150376" width="128.4090909090909" height="84.58646616541355" as="geometry" />
        </mxCell>
        <mxCell id="vnSzT78qKY7ny7EhLF-H-54" value="&lt;font style=&quot;font-size: 12px;&quot;&gt;Microservicios&lt;/font&gt;" style="html=1;outlineConnect=0;whiteSpace=wrap;fillColor=#F5DEAA;shape=mxgraph.archimate3.application;appType=capability;archiType=rounded;fontSize=8;" parent="vnSzT78qKY7ny7EhLF-H-29" vertex="1">
          <mxGeometry x="184.9090909090909" y="48.49624060150376" width="128.4090909090909" height="84.58646616541355" as="geometry" />
        </mxCell>
        <mxCell id="vnSzT78qKY7ny7EhLF-H-55" value="&lt;font style=&quot;font-size: 12px;&quot;&gt;Automatización de procesos de pago&lt;/font&gt;" style="html=1;outlineConnect=0;whiteSpace=wrap;fillColor=#F5DEAA;shape=mxgraph.archimate3.application;appType=capability;archiType=rounded;fontSize=8;" parent="vnSzT78qKY7ny7EhLF-H-29" vertex="1">
          <mxGeometry x="339" y="48.49624060150376" width="128.4090909090909" height="84.58646616541355" as="geometry" />
        </mxCell>
        <mxCell id="vnSzT78qKY7ny7EhLF-H-56" value="&lt;font style=&quot;font-size: 12px;&quot;&gt;Optimización de la experiencia del usuario&lt;/font&gt;" style="html=1;outlineConnect=0;whiteSpace=wrap;fillColor=#F5DEAA;shape=mxgraph.archimate3.application;appType=capability;archiType=rounded;fontSize=8;" parent="vnSzT78qKY7ny7EhLF-H-29" vertex="1">
          <mxGeometry x="501.6515151515152" y="48.49624060150376" width="128.4090909090909" height="84.58646616541355" as="geometry" />
        </mxCell>
        <mxCell id="vnSzT78qKY7ny7EhLF-H-57" value="&lt;font style=&quot;font-size: 12px;&quot;&gt;Adopción de WhatsApp Business API: Crecimiento del 30% anual&lt;/font&gt;" style="html=1;outlineConnect=0;whiteSpace=wrap;fillColor=#CCCCFF;shape=mxgraph.archimate3.application;appType=goal;archiType=oct;fontSize=10;" parent="1" vertex="1">
          <mxGeometry x="640" y="452" width="150" height="75" as="geometry" />
        </mxCell>
        <mxCell id="vnSzT78qKY7ny7EhLF-H-59" value="" style="group" parent="1" vertex="1" connectable="0">
          <mxGeometry x="19" y="387" width="791" height="263" as="geometry" />
        </mxCell>
        <mxCell id="vnSzT78qKY7ny7EhLF-H-60" value="" style="shape=folder;spacingTop=10;tabWidth=100;tabHeight=25;tabPosition=left;html=1;dashed=1;fontSize=12;" parent="vnSzT78qKY7ny7EhLF-H-59" vertex="1">
          <mxGeometry x="5.5" y="8.97" width="785.5" height="161.03" as="geometry" />
        </mxCell>
        <mxCell id="vnSzT78qKY7ny7EhLF-H-61" value="&lt;strong data-end=&quot;1396&quot; data-start=&quot;1374&quot;&gt;Tasa de conversión&lt;/strong&gt;: Porcentaje de pagos exitosos sobre el total de intentos" style="html=1;outlineConnect=0;whiteSpace=wrap;fillColor=#CCCCFF;shape=mxgraph.archimate3.application;appType=goal;archiType=oct;fontSize=10;" parent="vnSzT78qKY7ny7EhLF-H-59" vertex="1">
          <mxGeometry x="24.35054617676266" y="43.00352272727273" width="117.82522343594836" height="112.07386363636364" as="geometry" />
        </mxCell>
        <mxCell id="vnSzT78qKY7ny7EhLF-H-62" value="&lt;font style=&quot;font-size: 12px;&quot;&gt;Tiempo de procesamiento de transacciones &amp;lt;20 segundos&lt;/font&gt;" style="html=1;outlineConnect=0;whiteSpace=wrap;fillColor=#CCCCFF;shape=mxgraph.archimate3.application;appType=goal;archiType=oct;fontSize=10;" parent="vnSzT78qKY7ny7EhLF-H-59" vertex="1">
          <mxGeometry x="161.0028500496524" y="43.005" width="117.82522343594836" height="112.07386363636364" as="geometry" />
        </mxCell>
        <mxCell id="vnSzT78qKY7ny7EhLF-H-63" value="&lt;font style=&quot;font-size: 12px;&quot;&gt;Tasa de fraude. Captar 100%&lt;/font&gt;" style="html=1;outlineConnect=0;whiteSpace=wrap;fillColor=#CCCCFF;shape=mxgraph.archimate3.application;appType=goal;archiType=oct;fontSize=10;" parent="vnSzT78qKY7ny7EhLF-H-59" vertex="1">
          <mxGeometry x="301" y="43" width="89" height="112.07" as="geometry" />
        </mxCell>
        <mxCell id="vnSzT78qKY7ny7EhLF-H-64" value="&lt;font style=&quot;font-size: 12px;&quot;&gt;&lt;b&gt;Indicadores KPI&lt;/b&gt;&lt;/font&gt;" style="text;html=1;strokeColor=none;fillColor=none;align=center;verticalAlign=middle;whiteSpace=wrap;rounded=0;" parent="vnSzT78qKY7ny7EhLF-H-59" vertex="1">
          <mxGeometry width="91.35345204434101" height="56.67124229154305" as="geometry" />
        </mxCell>
        <mxCell id="vnSzT78qKY7ny7EhLF-H-65" value="&lt;font style=&quot;font-size: 12px;&quot;&gt;Velocidad de integración&lt;/font&gt;" style="html=1;outlineConnect=0;whiteSpace=wrap;fillColor=#CCCCFF;shape=mxgraph.archimate3.application;appType=goal;archiType=oct;fontSize=10;" parent="vnSzT78qKY7ny7EhLF-H-59" vertex="1">
          <mxGeometry x="541.0017080436942" y="42.995000000000005" width="117.82522343594836" height="112.07386363636364" as="geometry" />
        </mxCell>
        <mxCell id="vnSzT78qKY7ny7EhLF-H-66" value="&lt;font style=&quot;font-size: 12px;&quot;&gt;Disponibilidad del sistema&lt;br&gt;99.98%&lt;/font&gt;" style="html=1;outlineConnect=0;whiteSpace=wrap;fillColor=#CCCCFF;shape=mxgraph.archimate3.application;appType=goal;archiType=oct;fontSize=10;" parent="vnSzT78qKY7ny7EhLF-H-59" vertex="1">
          <mxGeometry x="410.9964250248262" y="43.000681818181825" width="117.82522343594836" height="112.07386363636364" as="geometry" />
        </mxCell>
        <mxCell id="vnSzT78qKY7ny7EhLF-H-58" value="&lt;font style=&quot;font-size: 12px;&quot;&gt;Tiempo Medio de Respuesta a Incidentes: &amp;lt;5 minutos&lt;/font&gt;" style="html=1;outlineConnect=0;whiteSpace=wrap;fillColor=#CCCCFF;shape=mxgraph.archimate3.application;appType=goal;archiType=oct;fontSize=10;" parent="vnSzT78qKY7ny7EhLF-H-59" vertex="1">
          <mxGeometry x="671" y="43.01" width="109" height="106.99" as="geometry" />
        </mxCell>
        <mxCell id="vnSzT78qKY7ny7EhLF-H-67" value="&lt;strong data-end=&quot;2669&quot; data-start=&quot;2657&quot;&gt;Objetivo&lt;/strong&gt;: Gestionar la lógica de negocio central, como el procesamiento de pagos, la gestión de suscripciones y la validación de transacciones." style="html=1;outlineConnect=0;whiteSpace=wrap;fillColor=#ffff99;shape=mxgraph.archimate3.application;appType=proc;archiType=rounded;fontSize=12;" parent="1" vertex="1">
          <mxGeometry x="1010" y="80" width="210" height="100" as="geometry" />
        </mxCell>
        <mxCell id="vnSzT78qKY7ny7EhLF-H-68" value="Visión arquitectura por subdominio" style="text;strokeColor=none;fillColor=none;html=1;fontSize=24;fontStyle=1;verticalAlign=middle;align=center;" parent="1" vertex="1">
          <mxGeometry x="1010" y="20" width="100" height="40" as="geometry" />
        </mxCell>
        <mxCell id="vnSzT78qKY7ny7EhLF-H-69" value="Capa de Negocio" style="text;html=1;strokeColor=none;fillColor=none;align=center;verticalAlign=middle;whiteSpace=wrap;rounded=0;fontSize=12;" parent="1" vertex="1">
          <mxGeometry x="860" y="80" width="130" height="30" as="geometry" />
        </mxCell>
        <mxCell id="vnSzT78qKY7ny7EhLF-H-70" value="&lt;strong data-end=&quot;2916&quot; data-start=&quot;2901&quot;&gt;Tecnologías&lt;/strong&gt;: Microservicios, servidores de aplicaciones, bases de datos transaccionales." style="html=1;outlineConnect=0;whiteSpace=wrap;fillColor=#ffff99;shape=mxgraph.archimate3.application;appType=proc;archiType=rounded;fontSize=12;" parent="1" vertex="1">
          <mxGeometry x="1439" y="80" width="180" height="100" as="geometry" />
        </mxCell>
        <mxCell id="vnSzT78qKY7ny7EhLF-H-71" value="&lt;strong data-end=&quot;2822&quot; data-start=&quot;2807&quot;&gt;Componentes&lt;/strong&gt;: Procesador de pagos, motor de reglas de negocio, gestión de suscripciones." style="html=1;outlineConnect=0;whiteSpace=wrap;fillColor=#ffff99;shape=mxgraph.archimate3.application;appType=proc;archiType=rounded;fontSize=12;" parent="1" vertex="1">
          <mxGeometry x="1250" y="80" width="169" height="100" as="geometry" />
        </mxCell>
        <mxCell id="vnSzT78qKY7ny7EhLF-H-72" value="Capa de Aplicaciones" style="text;html=1;strokeColor=none;fillColor=none;align=center;verticalAlign=middle;whiteSpace=wrap;rounded=0;fontSize=12;" parent="1" vertex="1">
          <mxGeometry x="860" y="280" width="130" height="30" as="geometry" />
        </mxCell>
        <mxCell id="vnSzT78qKY7ny7EhLF-H-73" value="&lt;div&gt;&lt;strong data-end=&quot;3033&quot; data-start=&quot;3021&quot;&gt;&lt;br&gt;&lt;/strong&gt;&lt;/div&gt;&lt;strong data-end=&quot;3033&quot; data-start=&quot;3021&quot;&gt;&lt;div&gt;&lt;strong data-end=&quot;3033&quot; data-start=&quot;3021&quot;&gt;&lt;br&gt;&lt;/strong&gt;&lt;/div&gt;Objetivo&lt;/strong&gt;: Almacenar y recuperar datos relacionados con pagos, usuarios y transacciones." style="html=1;outlineConnect=0;whiteSpace=wrap;fillColor=#99ffff;shape=mxgraph.archimate3.businessObject;overflow=fill;fontSize=12;" parent="1" vertex="1">
          <mxGeometry x="1040" y="190" width="170" height="100" as="geometry" />
        </mxCell>
        <mxCell id="vnSzT78qKY7ny7EhLF-H-74" value="&lt;br&gt;&lt;strong data-end=&quot;3130&quot; data-start=&quot;3115&quot;&gt;Componentes&lt;/strong&gt;: Base de datos relacional (ej. PostgreSQL, MySQL), almacenamiento de datos no estructurados (ej. para logs o datos de auditoría)." style="html=1;outlineConnect=0;whiteSpace=wrap;fillColor=#99ffff;shape=mxgraph.archimate3.businessObject;overflow=fill;fontSize=12;" parent="1" vertex="1">
          <mxGeometry x="1250" y="190" width="150" height="100" as="geometry" />
        </mxCell>
        <mxCell id="vnSzT78qKY7ny7EhLF-H-75" value="&lt;div&gt;&lt;strong data-end=&quot;3278&quot; data-start=&quot;3263&quot;&gt;&lt;br&gt;&lt;/strong&gt;&lt;/div&gt;&lt;strong data-end=&quot;3278&quot; data-start=&quot;3263&quot;&gt;&lt;div&gt;&lt;strong data-end=&quot;3278&quot; data-start=&quot;3263&quot;&gt;&lt;br&gt;&lt;/strong&gt;&lt;/div&gt;Tecnologías&lt;/strong&gt;: SQL, NoSQL, sistemas distribuidos de bases de datos." style="html=1;outlineConnect=0;whiteSpace=wrap;fillColor=#99ffff;shape=mxgraph.archimate3.businessObject;overflow=fill;fontSize=12;" parent="1" vertex="1">
          <mxGeometry x="1439" y="190" width="150" height="100" as="geometry" />
        </mxCell>
        <mxCell id="vnSzT78qKY7ny7EhLF-H-76" value="Capa de Datos" style="text;html=1;strokeColor=none;fillColor=none;align=center;verticalAlign=middle;whiteSpace=wrap;rounded=0;fontSize=12;" parent="1" vertex="1">
          <mxGeometry x="860" y="200" width="130" height="30" as="geometry" />
        </mxCell>
        <mxCell id="vnSzT78qKY7ny7EhLF-H-77" value="&lt;strong data-end=&quot;243&quot; data-start=&quot;232&quot;&gt;Backend&lt;/strong&gt;: Node.js, Ruby on Rails (lenguajes utilizados por Stripe)." style="html=1;outlineConnect=0;whiteSpace=wrap;fillColor=#99ffff;shape=mxgraph.archimate3.application;appType=comp;archiType=square;fontSize=12;" parent="1" vertex="1">
          <mxGeometry x="870" y="315" width="150" height="75" as="geometry" />
        </mxCell>
        <mxCell id="vnSzT78qKY7ny7EhLF-H-78" value="&lt;strong data-end=&quot;321&quot; data-start=&quot;309&quot;&gt;Frontend&lt;/strong&gt;: React, TypeScript (para interfaces web)." style="html=1;outlineConnect=0;whiteSpace=wrap;fillColor=#99ffff;shape=mxgraph.archimate3.application;appType=comp;archiType=square;fontSize=12;" parent="1" vertex="1">
          <mxGeometry x="870" y="405" width="150" height="75" as="geometry" />
        </mxCell>
        <mxCell id="vnSzT78qKY7ny7EhLF-H-79" value="&lt;strong data-end=&quot;1671&quot; data-start=&quot;1642&quot;&gt;Protocolos de integración&lt;/strong&gt;: RESTful APIs, Webhooks, SOAP (para ciertos bancos)." style="html=1;outlineConnect=0;whiteSpace=wrap;fillColor=#99ffff;shape=mxgraph.archimate3.application;appType=comp;archiType=square;fontSize=12;" parent="1" vertex="1">
          <mxGeometry x="870" y="700" width="150" height="75" as="geometry" />
        </mxCell>
        <mxCell id="vnSzT78qKY7ny7EhLF-H-82" value="Capa de Integraciones" style="text;html=1;strokeColor=none;fillColor=none;align=center;verticalAlign=middle;whiteSpace=wrap;rounded=0;fontSize=12;" parent="1" vertex="1">
          <mxGeometry x="880" y="670" width="130" height="30" as="geometry" />
        </mxCell>
        <mxCell id="vnSzT78qKY7ny7EhLF-H-84" value="AWS" style="html=1;outlineConnect=0;whiteSpace=wrap;fillColor=#AFFFAF;shape=mxgraph.archimate3.application;appType=artifact;archiType=square;fontSize=12;" parent="1" vertex="1">
          <mxGeometry x="840" y="1030" width="150" height="75" as="geometry" />
        </mxCell>
        <mxCell id="vnSzT78qKY7ny7EhLF-H-85" value="Capa de Tecnología" style="text;html=1;strokeColor=none;fillColor=none;align=center;verticalAlign=middle;whiteSpace=wrap;rounded=0;fontSize=12;" parent="1" vertex="1">
          <mxGeometry x="880" y="980" width="130" height="30" as="geometry" />
        </mxCell>
        <mxCell id="vnSzT78qKY7ny7EhLF-H-86" value="servicios de balanceo de carga" style="html=1;outlineConnect=0;whiteSpace=wrap;fillColor=#AFFFAF;shape=mxgraph.archimate3.application;appType=artifact;archiType=square;fontSize=12;" parent="1" vertex="1">
          <mxGeometry x="1000" y="1030" width="150" height="75" as="geometry" />
        </mxCell>
        <mxCell id="vnSzT78qKY7ny7EhLF-H-87" value="Kubernetes" style="html=1;outlineConnect=0;whiteSpace=wrap;fillColor=#AFFFAF;shape=mxgraph.archimate3.application;appType=artifact;archiType=square;fontSize=12;" parent="1" vertex="1">
          <mxGeometry x="1166" y="1030" width="150" height="75" as="geometry" />
        </mxCell>
        <mxCell id="vnSzT78qKY7ny7EhLF-H-88" value="Kafka" style="html=1;outlineConnect=0;whiteSpace=wrap;fillColor=#AFFFAF;shape=mxgraph.archimate3.application;appType=artifact;archiType=square;fontSize=12;" parent="1" vertex="1">
          <mxGeometry x="1330" y="1030" width="150" height="75" as="geometry" />
        </mxCell>
        <mxCell id="vnSzT78qKY7ny7EhLF-H-89" value="Docker" style="html=1;outlineConnect=0;whiteSpace=wrap;fillColor=#AFFFAF;shape=mxgraph.archimate3.application;appType=artifact;archiType=square;fontSize=12;" parent="1" vertex="1">
          <mxGeometry x="1490" y="1030" width="150" height="75" as="geometry" />
        </mxCell>
        <mxCell id="TEaHfWSjMHCKxIdZN-Lb-1" value="Visión General de Stripe" style="swimlane" parent="1" vertex="1">
          <mxGeometry x="-1640" y="10" width="790" height="100" as="geometry" />
        </mxCell>
        <mxCell id="TEaHfWSjMHCKxIdZN-Lb-2" value="Stripe es una plataforma de pago en línea que permite a negocios y desarrolladores procesar  transacciones con tarjetas &#xa;de crédito, débito y otros métodos de pago. Su modelo de  operación se basa en ofrecer APIs y herramientas para&#xa; integrar pagos de manera segura y eficiente en aplicaciones web y móviles. Su enfoque en la automatización y facilidad&#xa; de uso la ha convertido en una de las principales opciones para e-commerce, SaaS y empresas tecnológicas." style="text" parent="TEaHfWSjMHCKxIdZN-Lb-1" vertex="1">
          <mxGeometry y="27.5" width="680" height="50" as="geometry" />
        </mxCell>
        <mxCell id="TEaHfWSjMHCKxIdZN-Lb-3" value="" style="shape=image;verticalLabelPosition=bottom;labelBackgroundColor=default;verticalAlign=top;aspect=fixed;imageAspect=0;image=data:image/png,iVBORw0KGgoAAAANSUhEUgAABbQAAALaCAIAAABmmUIkAAABG2lUWHRYTUw6Y29tLmFkb2JlLnhtcAAAAAAAPD94cGFja2V0IGJlZ2luPSLvu78iIGlkPSJXNU0wTXBDZWhpSHpyZVN6TlRjemtjOWQiPz4KPHg6eG1wbWV0YSB4bWxuczp4PSJhZG9iZTpuczptZXRhLyIgeDp4bXB0az0iWE1QIENvcmUgNS41LjAiPgogPHJkZjpSREYgeG1sbnM6cmRmPSJodHRwOi8vd3d3LnczLm9yZy8xOTk5LzAyLzIyLXJkZi1zeW50YXgtbnMjIj4KICA8cmRmOkRlc2NyaXB0aW9uIHJkZjphYm91dD0iIi8+CiA8L3JkZjpSREY+CjwveDp4bXBtZXRhPgo8P3hwYWNrZXQgZW5kPSJyIj8+Gkqr6gAAAYJpQ0NQc1JHQiBJRUM2MTk2Ni0yLjEAACiRdZHPK0RRFMc/M0PEaPxaWEiThhVi1MTGYiaGwmJmlMFm5pkfan683ptJk62ynaLExq8FfwFbZa0UkZIsrYkNes4zUyOZczv3fO733nO691ywhlJKWq8ZhHQmpwX8Xud8eMFZ94SdLlpoxRZRdHUmOBGiqr3fYjHjdb9Zq/q5f61xOaYrYKkXHlNULSc8KTy9mlNN3hJuV5KRZeET4T5NLih8Y+rREj+bnCjxp8laKOADa7OwM/GLo79YSWppYXk5rnQqr5TvY77EHsvMBSV2i3eiE8CPFydTjOPDwxCjMnvox82ArKiSP/iTP0tWchWZVQporJAgSY4+UfNSPSYxLnpMRoqC2f+/fdXjw+5SdbsXah8N47UH6jbhq2gYHweG8XUItgc4z1Tys/sw8iZ6saK59sCxDqcXFS26DWcb0HGvRrTIj2QTt8bj8HIMTWFou4KGxVLPyvsc3UFoTb7qEnZ2oVfOO5a+ATdFZ9Dd4/Q1AAAACXBIWXMAAAsTAAALEwEAmpwYAAAgAElEQVR4nOy9eZhd11nmu/Y5NUpVKkk1WJM1WrIty7Y8z1PiOPGAMxDHCUmYL9yQTrrp56Gh4XKhAzRpQnfDZeim+wk0Q4AECIHEsxM7cZx4iBMPsi1bniRLllWThqpSzXXuH2UrOruq9t5frW/t8377vL+HP9he6+zvjc636qz17rdORR8//TcdIURIlOk/ZRycM1nxVsLXK+oU3TnDrSrZ7ya/ueTOUcKV8G6SW8nurHvzYLdKn693c/E7BblSYgsh9eY10zlnGKUD04ZROhB1pcQn6+qUdWB8LWjd2Sl8YGW9lXIHJg4rflqlz0+eHG6TA6szbAcmrYUa6gTZLwW9ueKnVerdJINed04dB14piWshm86STAIhZF70fi6ExYrOOIt3RpQJudfUJKjtEgwgnbX7pBeh6IwEJegeThHq1AVnpYhQdEZ0S8smw+qE7UCfF6ui6IwEJaidoUgtN2MSzHSgaHZIFJ2Rk6E5QoiYsKfacD6xKvnGRhaPcmwkGDjvbHIx3L2mx8KB2RqlKgm4CQ76MFwRK6dHUSngvWbi5FrqDBgbUcRqB8qGNcH9iPEohduBscmwOnP0WWoYGxHBlaLLyZVpjhDijZGHt2Z0xmFsRAhjI54wNqJKMfdwPi/2o5g6YfqVsRHf0smTYTvQ58WqMDaiC47xl4yZDhTNDkmg2IijOUKIFMZGHGMj2uC8s8nFcPeajI14lmZsJCRm95qJkxkbSS3tNawJrpXvUcqM7QLbgbHJsDptxjGs6AyK0Q6kOUKIH0Ye3prRGYexESGMjXjC2IgqxdzD+bzYj2LqhOlXxkZ8SydPhu1AnxerwtiILjjGXzJmOlA0OyThYiOO5gghIhgbcYyNaIPzziYXw91rMjbiWZqxkZCY3WsmTmZsJLW017AmuFa+RykztgtsB8Ymw+q0GcewojModjuQ5gghHhh5eGtGZxzGRoQwNuIJYyOqFHMP5/NiP4qpE6ZfGRvxLZ08GbYDfV6sCmMjuuAYf8mY6UDR7JAEjY04miOEZIexEcfYiDY472xyMdy9JmMjnqUZGwmJ2b1m4mTGRlJLew1rgmvle5QyY7vAdmBsMqxOm3EMKzqDYroDaY4QsliMPLw1ozMOYyNCGBvxhLERVYq5h/N5sR/F1AnTr4yN+JZOngzbgT4vVoWxEV1wjL9kzHSgaHZIQsdGHM0RQjLC2IhjbEQbnHc2uRjuXpOxEc/SjI2ExOxeM3EyYyOppb2GNcG18j1KmbFdYDswNhlWp804hhWdQbHegTRHCFkURh7emtEZh7ERIYyNeMLYiCrF3MP5vNiPYuqE6VfGRnxLJ0+G7UCfF6vC2IguOMZfMmY6UDQ7JDnERhzNEUKywNiIY2xEG5x3NrkY7l6TsRHP0oyNhMTsXjNxMmMjqaW9hjXBtfI9SpmxXWA7MDYZVqfNOIYVnUEpQAfSHCFEjpGHt2Z0xmFsRAhjI54wNqJKMfdwPi/2o5g6YfqVsRHf0smTYTvQ58WqMDaiC47xl4yZDhTNDkk+sRFHc4SQVBgbcYbiGFZ0BpvsC2MjOcLYiG9p0WSYQxrwXjNxMmMjqaW9hjXBtfI9SpmxXWA7MDYZVqfNOIYVnUEpRgfSHCFEiJGHt7A6034aMjYihLERTxgbUaWYezifF/tRTJ0w/crYiG/p5MmwHejzYlUYG9EFx/hLxkwHimaHJLfYiKM5QkgyjI04Q3EMKzqDTfaFsZEcYWzEt7TH5KCY3WsmTmZsJLW017AmuFa+RykztgtsB8Ymw+q0GcewojMoBelAmiOEyDDy8BZWJ2MjyjA24gljI6rg7uGsGH8epczohOlXxkZ8SydPhu1AnxerwtiILjjGXzJmOlA0OyR5xkYczRFCEmBsxBmKY1jRGWyyL1ZOj4yNeJZmbCQkZveaiZMZG0kt7TWsCa6V71HKjO0C24GxybA6bcYxrOgMSkE60DlHc4QQAUYe3sLqZGxEGcZGPGFsRBXcPZwV48+jlBmdMP3K2Ihv6eTJsB3o82JVGBvRBcf4S8ZMB4pmhyTn2IijOULIQjA24gzFMazoDDbZFyunR8ZGPEszNhISs3vNxMmMjaSW9hrWBNfK9yhlxnaB7cDYZFidNuMYVnQGpSAd+DY0RwjJhpGHt7A6GRtRhrERTxgbUQV3D2fF+PMoZUYnTL8yNuJbOnkybAf6vFgVxkZ0wTH+kjHTgaLZIck/NuJojhAyL4yNOENxDCs6g032xcrpkbERz9KMjYTE7F4zcTJjI6mlvYY1wbXyPUqZsV1gOzA2GVanzTiGFZ1BKUgHngTNEUIyYOThLaxOxkaUYWzEE8ZGVMHdw1kx/jxKmdEJ06+MjfiWTp4M24E+L1aFsRFdcIy/ZMx0oGh2SGoSG3E0RwiZC2MjzlAcw4rOYJN9sXJ6ZGzEszRjIyExu9dMnMzYSGppr2FNcK18j1JmbBfYDoxNhtVpM45hRWdQCtKB1dAcISQNIw9vYXUyNqIMYyOeMDaiCu4ezorx51HKjE6YfmVsxLd08mTYDvR5sSqMjeiCY/wlY6YDRbNDUqvYiKM5QkgMxkacoTiGFZ3BJvti5fTI2IhnacZGQmJ2r5k4mbGR1NJew5rgWvkepczYLrAdGJsMq9NmHMOKzqAUpANjkyOaI4QkY+ThLaxOxkaUYWzEE8ZGVMHdw1kx/jxKmdEJ06+MjfiWTp4M24E+L1aFsRFdcIy/ZMx0oGh2SGoYG3FMjhByMoyNOENxDCs6g032xcrpkbERz9KMjYTE7F4zcTJjI6mlvYY1wbXyPUqZsV1gOzA2GVanzTiGFZ1BKUgHxiZHztEcISQJIw9vYXUyNqIMYyOeMDaiCu4ezorx51HKjE6YfmVsxLd08mTYDvR5sSqMjeiCY/wlY6YDRbNDUtvYiKM5QsgJGBtxhuIYVnQGm+yLldMjYyOepRkbCYnZvWbiZMZGUkt7DWuCa+V7lDJju8B2YGwyrE6bcQwrOoNSkA6MTX57Ns0RQhbAyMNbWJ31GBsJCmMjnjA2ogruHs6K8edRyoxOmH5lbMS3dPJk2A70ebEqjI3ogmP8JWOmA0WzQ1Lz2IijOULILIyNOENxDFidVvwLK6dHxkY8SzM2EhKze83EyYyNpJb2GtaEsRFd7KwUyWRYnTbjGFZ0BqUgHRibfNJsmiOEzIeRh7ewOhkbUcaK7eJRmrGR1Jvj/OTB3cNZMf48SpnRCdOvjI34lk6eDNuBPi9WhbERXXCMv2TMdKBodkgQYiOO5gghjrGR2ZvDxjFipWF1WvEvrJweGRvxLM3YSEjM7jUTJzM2klraa1gTxkZ0sbNSJJNhddqMY1jRGZSCdGBscvVsmiOEzMHIw1tYnYyNKGPFdvEozdhI6s1xfvLg7uGsGH8epcysaJh+ZWzEt3TyZCsrBfWQxtiIFBzjLxkzHSiaHRKQ2IijOUIIYyMOOY4RKw2r04p/YeX0yNiIZ2nGRkICtNc0YvyllGZsRAhjI7rYWSmSybA6bcYxrOgMSkE6MDZ5zmyaI4RUY+ThLaxOxkaUsWK7eJRmbCT15jg/eXD3cFaMP49SZlY0TL8yNuJbOnmylZWCekgzGhupIVZ1wnagaHZIcGIjjuYIqXMYG3HIcYxYaVidVvwLK6dHxkY8SzM2EhKgvaYR4y+lNGMjQhgb0cXOSpFMrt2PbsZGpHCl6OKvk+YIISdh5OEtrE7GRpSxYrt4lGZsJPXmOD95cPdwVow/j1JmVjRMvzI24ls6ebKVlYJ6SGNsRIpVnbAdKJodEqjYiKM5QuoZxkYcchwjVhpWpxX/wsrpkbERz9KMjYQEaK9pxPhLKc3YiBDGRnSxs1IkkxkbYWxEG5wOTCktmrzAbJojhLyNkYe3sDoZG1HGiu3iUZqxkdSb4/zkwd3DWTH+PEqZWdEw/crYiG/p5MlWVgrqIY2xESlWdcJ2oGh2SNBiI47mCKlbGBtxyHGMWGlYnVb8CyunR8ZGPEszNhISoL2mEeMvpTRjI0IYG9HFzkqRTGZshLERbXA6MKW0aPLCs2mOEOKcw41jxEHVydiIMlZsF4/SjI2k3hznJw/uHs6K8edRysyKhulXxkZ8SydPtrJSUA9pjI1IsaoTtgNFs0MCGBtxNEdIfcLYiEOOY8RKw+q04l9YOT0yNuJZmrGRkADtNY0YfymlGRsRwtiILnZWimQyYyOMjWiD04EppUWTE2fTHCEEN44RB1UnYyPKWLFdPEozNpJ6c5yfPLh7OCvGn0cpMysapl8ZG/EtnTzZykpBPaQxNiLFqk7YDhTNDglmbMTRHCF1CGMjDjmOESsNq9OKf2Hl9MjYiGdpxkZCArTXNGL8pZRmbEQIYyO62FkpksmMjTA2og1OB6aUFk1Om01zhNQ9Rh7ewupkbEQZK7aLR2nGRlJvjvOTB3cPZ8X48yhlZkXD9CtjI76lkydbWSmohzTGRqRY1QnbgaLZIYGNjTiaI6TeYGzEIccxYqVhdVrxL6ycHhkb8SzN2EhIgPaaRoy/lNKMjQhhbEQXOytFMpmxEcZGtMHpwJTSoskZZtMcIfWNkYe3sDoZG1HGiu3iUZqxkdSb4/zkwd3DWTH+PEqZWdEw/crYiG/p5MlWVgrqIY2xESlWdcJ2oGh2SJBjI47mCKkrGBtxyHGMWGlYnVb8C5s6JYM4WyPGRrxLe0wOCtBe04jxl1KasREhjI3oYmelSCYzNsLYiDY4HZhSWjQ522yaI6SOMfLwFlYnYyPKwNoZRow/K6dHxkZ8YWwkJDgrRQRjI76lkydbWSmohzTGRqRY1QnbgaLZIQGPjTiaI6R+YGzEIccxYqVhdcL6F4nFrOiUDOJsjRgb8S7tMTkoQHtNI8ZfSunaHQhF4JzKGBvRxc5KkUxmbISxEW1wOjCltGhy5tk0R0i9YuThLaxOxkaUgbUzjBh/Vk6PjI34wthISKyslPhkvVtJYWxEFys6RZUZG5FiVSdsB4pmhwQ/NuJojpA6gbERhxzHiJWG1QnrXyQWs6JTMoizNWJsxLu0x+SgAO01jRh/KaUZGxHC2IgudlaKZDJjI4yNaIPTgSmlRZMls2mOkLrEyMNbWJ2MjSgDa2cYMf6snB4ZG/GFsZGQWFkp8cl6t5LC2IguVnSKKjM2IsWqTtgOFM0OiYnYiKM5QuoBxkYcchwjVhpWJ6x/kVjMik7JIM7WiLER79Iek4MCtNc0YvyllGZsRAhjI7rYWSmSyYyNFLUDfV7sB04HppQWTRbqpDlC6g8jD29hdTI2ogysnWHE+LNyemRsxBfGRkJiZaXEJ+vdSgpjI7pY0SmqzNiIFK4UKUBWfiJWYiMRzRFSeBgbcchxjFhpWJ2w/kViMSs6JYM4WzjGRrxLe0wOCtBe04jxl1KasREhjI3oYmelSCYzNlLUDvR5sR84HZhSWjRZrpPmCKkzjDy8hdXJ2IgysHaGEePPyumRsRFfGBsJiZWVEp+sdyspjI3oYkWnqDJjI1K4UqQAWfmJGIqNOJojpNgwNuKQ4xix0rA6Yf2LxGJWdEoGcbZwjI14l/aYHBSgvaYR4y+lNGMjQhgb0cXOSpFMZmykqB3o82I/cDowpbRo8qJ00hwh9YSRh7ewOhkbUQbWzjBi/Fk5PTI24gtjIyGxslLik/VuJYWxEV2s6BRVZmxECleKFCArPxFbsRFHc4QUGMZGHHIcI1YaViesf5FYzIpOySDOFo6xEe/SHpODArTXNGL8pZRmbEQIYyO62FkpksmMjRS1A31e7AdOB6aUFk1erE6aI6RuMPLwFlYnYyPKwNoZRow/K6dHxkZ8YWwkJFZWSnyy3q2kMDaiixWdosqMjUjhSpECZOUnYi424miOkKLC2IhDjmPESsPqhPUvEotZ0SkZxNnCMTbiXdpjclCA9ppGjL+U0oyNCGFsRBc7K0UymbGRonagz4v9wOnAlNKiyR46aY6Q+sDIw1tYnYyNKANrZxgx/qycHhkb8YWxkZBYWSnxyXq3ksLYiC5WdIoqMzYihStFCpCVn4jF2IijOUIKCWMjDjmOESsNqxPWv0gsZkWnZBBnC8fYiHdpj8lBAdprGjH+UkozNiKEsRFd7KwUyWTGRoragT4v9gOnA1NKiyb76aQ5QuoAIw9vYXUyNqIMrJ1hxPiDXSkxGBvxhbGRkODsiRkb0aUuVgrqIY2xESlcKVKArPxEjMZGHM0RUjwYG3HIcYxYaVidsP5FYjErOiWDhlYKYyPAHZgI0F6TsZEcwTk9Mjaii52VIpnM2EhRO9DnxX7gdGBKadFkb500R0jRMfLwFlYnYyPKwNoZRow/2JUSg7ERXxgbCQnOnpixEV3qYqWgHtIYG5HClSIFyMpPxG5sxNEcIQWDsRGHHMeIlYbVCetfJBazolMyaGilMDYC3IGJAO01GRvJEZzTI2MjuthZKZLJjI0UtQN9XuwHTgemlBZN1tBJc4QUGiMPb2F1MjaiDKydYcT4g10pMRgb8YWxkZDg7InrMTYSkrpYKaiHNMZGpFi18mE7UDQ7JKZjI47mCCkSjI045DhGrDSsTlj/IrGYFZ2SQUMrhbER4A5MBGivydhIjtTy9Kho5dPOSC2dPBnvVDb/ZMZGitqBPi/2A6cDU0qLJivppDlCiouRh7ewOhkbUQbWzjBi/MGulBiMjfjC2EhIcPbEjI3oUhcrBfWQxtiIFKtWPmwHimaHxHpsxNEcIYWBsRGHHMeIlYbVCetfJBazolMyaGilMDYC3IGJAO01GRvJEcZGpFg5TNpZKZLJjI0UtQN9XuwHTgemlBZN1tNJc4QUFCMPb2F1MjaiDKydYcT4g10pMRgb8YWxkZDg7IkZG9GlLlYK6iGNsREpVq182A4UzQ5JAWIjjuYIKQaMjTjkOEasNKxOWP8isZgVnZJBQyuFsRHgDkwEaK/J2EiOMDYixcph0s5KkUxmbKSoHejzYj9wOjCltGiyqk6aI6SIGHl4C6uTsRFlYO0MI8Yf7EqJwdiIL4yNhARnT8zYiC51sVJQD2mMjUixauXDdqBodkiKERtxEc0RYh/GRhxyHCNWGlYnrH+RWMyKTsmgoZXC2AhwByYCtNdkbCRHGBuRYuUwaWelSCYzNlLUDvR5sR84HZhSWjRZWyfNEVI4jDy8hdXJ2IgysHaGEeMPdqXEYGzEF8ZGQoKzJ2ZsRJe6WCmohzTGRqRYtfJhO1A0OySFiY04miPEOoyNOOQ4Rqw0rE5Y/yKxmBWdkkFDK4WxEeAOTARor8nYSI4wNiLFymHSzkqRTGZspKgd6PNiP3A6MKW0aHIAnTRHSLEw8vAWVidjI8rA2hlGjD/YlRKDsRFfGBsJSc33mou7OWMjuqWtrhTUQxpjI1KsWvmwHSiaHZIixUYczRFiGiuxkaDgxjFipWF1wvoXicWs6JQMMjbiHGMjgQHaazI2kiOMjUixcpi0s1IkkxkbKWoH+rzYD5wOTCktmhxGJ80RUiBQ7QzRT0Ng/4KxESGwdgZjI6qYMVJ9JsOcHhNfCrzXDKVCuTRjI6mlfSbrUhcrBfWQxtiIFKtWPmwHimaHpGCxEUdzhNiFsRGHHMeIlYbVCetfJBazolMyyNiIc4yNBAZor8nYSI4wNiLFymHSzkqRTGZspKgd6PNiP3A6MKW0aHIwnTRHSFFAtTMYG1GGsRFPGBtRxYyR6jMZ5vSY+FLgvWYoFcqlGRtJLe0zWZe6WCmohzTGRqRYtfJhO1A0OyTFi404miPEKIyNOOQ4Rqw0rE5Y/yKxmBWdkkHGRpxDXikepYF+YIpGGRtJLc3YiLA2YyO62FkpksmMjRS1A31e7AdOB6aUFk0OqZPmCCkEqHYGYyPKMDbiCWMjquAaqVbiGFZ0epQC+gBKnszYSFHfWZ8X+2FFp6gyYyNSGBuRAmTlJ1LI2EhEc4RYhLERZ+ghM6xOWP8isZgVnZJBxkacQ14pHqWBfmCKRhkbSS3N2IiwNmMjuthZKZLJjI0UtQN9XuwHTgemlBZNDqyT5gixD6qdwdiIMoyNeMLYiCq4RqqVOIYVnR6lgD6AkiczNlLUd9bnxX5Y0SmqzNiIFMZGpABZ+YkUNTbiaI4QczA24gw9ZIbVCetfJBazolMyyNiIc8grxaM00A9M0ShjI6mlGRsR1q6L2EiO2FkpksmMjdixM4qpkyvlbWiOEOOg2hmMjSjD2IgnjI2ogmukWoljWNHpUQroAyh5MmMjRX1nfV4sxeaKFlVmbEQKYyNSgKz8RAocG3E0R4gtGBtxhh4yw+qE9S8Si1nRKRlkbMQ55JXiURroB6ZolLGR1NKMjQhrMzaii52VIpnM2IgdO6OYOrlSToLmCLEMqp3B2IgyjI14wtiIKrhGqpWHt1Z0epQC+gBKnszYSFHfWZ8XS7G5okWVGRuRwtiIFCArP5Fix0YczRFiCMZGnKGHzLA6Yf2LxGJWdEoGGRtxDnmleJQG+oEpGmVsJLU0YyPC2oyN6GJnpUgmMzZix84opk6ulGpojhCzoNoZjI0ow9iIJ4yNqIJrpFp5eGtFp0cpoA+g5MmMjRT1nfV5sRSbK1pUmbERKYyNSAGy8hMpfGzE0RwhVmBsxBl6yAyrE9a/SCxmRadkkLER55BXikdpoB+YolHGRlJLMzYirM3YiC52VopkMmMjduyMYurkSpkDzRFiE1Q7g7ERZRgb8YSxEVVwjVQrD2+t6PQoBfQBlDyZsZGivrM+L5Zic0WLKjM2IoWxESlAVn4i9RAbcTRHiAkYG3GGHjLD6oT1LxKLWdEpGWRsxDnkleJRGugHpmiUsZHU0oyNCGszNqKLnZUimczYiB07o5g6uVLmg+YIMQiqncHYiDKMjXjC2IgquEaqlYe3VnR6lAL6AEqezNhIUd9ZnxdLsbmiRZUZG5HC2IgUICs/kTqJjTiaIwQfxkacoYfMsDph/YvEYlZ0SgYZG3EOeaV4lAb6gSkaZWwktTRjI8LajI3oYmelSCYzNmLHziimTq6UBaA5QqyBamcwNqIMYyOeMDaiCq6RauXhrRWdHqWAPoCSJzM2UtR31ufFUmyuaFFlxkakMDYiBcjKT6R+YiOO5ggBh7ERZ+ghM6xOWP8isZgVnZJBxkacQ14pHqWBfmCKRhkbSS3N2IiwNmMjuthZKZLJjI3YsTOKqZMrZWFojhBToNoZjI0ow9iIJ4yNqIJrpFp5eGtFp0cpoA+g5MmMjRT1nfV5sRSbK1pUmbERKYyNSAGy8hOpq9iIozlCkGFsxBl6yAyrE9a/SCxmRadkkLER55BXikdpoB+YolHGRlJLMzYirM3YiC52VopkMmMjduyMYurkSkmE5gixA6qdwdiIMoyNeMLYiCq4RqqVh7ewK0WvtBmdjI0U9Z31ebEUKz95EmFsRBfGRqQAWfmJ1FtsxNEcIbAwNuIMPWSG1WnlVGZTp2SQsRHnkFeKR2mrHcjYSGppxkaEtRkb0cXOSpFMZmzEjp1RTJ1cKWnQHCFGQLUzGBtRhrERTxgbUQXXSLXy8BZ2peiVNqOTsZGivrM+L5Zi5SdPIjXsQBE4hloyjI1IAbLyE6nD2IijOUIwYWzEGXrIDKvTyqnMpk7JIGMjziGvFI/SVjuQsZHU0oyNCGszNqIL0kpJPBBKbsTYiPTmZuIYPi/2A6cDU0qLJtf0MEZzhFgA1c5gbEQZxkY8YWxEFVwj1crDW9iVolfajE7GRor6zvq8WIqVnzyJMDaiC2MjUoCs/ETqMzbiaI4QQBgbcYYeMsPqtHIqs6lTMsjYiHPIK8WjtNUOZGwktTRjI8LajI3ogrRSGBvRxIqdUUydsP5FbHKtD2M0Rwg8qHYGYyPKMDbiCWMjquAaqVYe3sKuFL3SZnQyNlLUd9bnxVKs/ORJhLERXRgbkQJk5SdSt7ERR3OEoMHYiDP0kBlWp5VTmU2dkkHGRpxDXikepa12IGMjqaUZGxHWZmxEF6SVwtiIJlbsjGLqhPUvYpMBDmM0Rwg2qHYGYyPKMDbiCWMjquAaqVYe3sKuFL3SZnQyNlLUd9bnxVKs/ORJhLERXRgbkQJk5SdSz7ERR3OEQMHYiDP0kBlWp5VTmU2dkkHGRpxDXikepa12IGMjqaUZGxHWZmxEF6SVwtiIJlbsjGLqhPUvYpMxDmM0RwgwqHYGYyPKMDbiCWMjquAaqVYe3sKuFL3SZnQyNlLUd9bnxVKs/ORJhLERXRgbkQJk5SdS57ERR3OE4MDYiDP0kBlWp5VTmU2dkkHGRpxDXikepa12IGMjqaUZGxHWZmxEF6SVwtiIJlbsjGLqhPUvYpNhDmM0RwgqqHYGYyPKMDbiCWMjquAaqVYe3sKuFL3SZnQyNlLUd9bnxVKs/ORJhLERXRgbkQJk5SfC2IijOUJAYGzEGXrIDKvTyqnMpk7JIGMjziGvFI/SVjuQsZHU0oyNCGszNqIL0kphbEQTK3ZGMXXC+hexyTCHsYjmCAEF1c5gbEQZxkY8YWxEFVwj1crDW9iVolfajE7GRor6zvq8WIqVnzyJMDaiC2MjUoCs/EQYG5mF5gipPYyNOEMPmWF1WjmV2dQpGWRsxDnkleJR2moHMjaSWpqxEWFtxkZ0QVopjI1oYsXOKKZOWP8iNhnmMDYrhOYIwQPVzmBsRBnGRjxhbEQVXCPVysNb2JWiV9qMTsZGivrO+rxYipWfPIkwNqILYyNSgKz8RBgbOQHNEVJjGBtxhh4yw+q0ciqzqVMyyNiIc8grxaO01Q40EhupIYyNSGszNqILjvHH2IguVuyMYuqE9S9ik2E+KU8IoTlCwEDdazI2ogxjI54wNqIKrpFq5eEt7ErRK23FymdsJLW0z2Rd6mJFox7SAE9lixrOD8ZGpABZ+YkwNnIyNEdILbGy1wyKmYfMsDqtnMps6pQMMjbiHPJK8ShttQMZG0mDsRFpbZnYVd0AACAASURBVMZGdMEx/hgb0cWKnVFMnbD+RWwyzCflyUJojhAkUPeajI0ow9iIJ4yNqIJrpFp5eAu7UvRKW7HyGRtJLe0zWZe6WNGohzTMU5l8OD8YG5ECZOUnwthIDJojpGZY2WsGxcxDZlidVk5lNnVKBhkbcQ55pXiUttqBjI2kwdiItDZjI7rgGH91GBsJihU7o5g6Yf2L2GSYT8qYEJojBAbUvSZjI8owNuIJYyOq4BqpVh7ewq4UvdJWrHzGRlJL+0zWpS5WNOohDfZUJhwOWVo0GVYnbAeKZoeEsZG50BwhtcHKXjMoZh4yw+q0ciqzqVMyyNiIc8grxaO01Q5kbCQNxkaktevioX2O4Bh/jI3oYsXOKKZOWP8iNhnmk3KuEJojBAPUvSZjI8owNuIJYyOq4BqpVh7ewq4UvdJWrHzGRlJL+0zWpS5WNOohDflUJhkOWVo0GVYnbAeKZoeEsZF5oTlCaoCVvWZQzDxkhtVp5VRmU6dkkLER55BXikdpqx3I2EgajI1Ia9fFQ/scwTH+GBvRxYqdUUydsP5FbDLMJ+W8QmiOEABQ95qMjSjD2IgnjI2ogmukWnl4C7tS9EpbsfIZG0kt7TNZl7pY0aiHNPBTWebhkKVFk2F1wnagaHZIGBtZCJojJG+s7DWDYuYhM6xOK6cymzolg4yNOIe8UjxKW+1AxkbSYGxEWrsuHtrnCI7xx9iILlbsjGLqhPUvYpNhPikXEkJzhNQa1L0mYyPKMDbiCWMjquAaqVYe3sKuFL3SVqx8xkZSS/tM1qUuVjTqIQ3/VJZtOGRp0WRYnbAdKJodEsZGEqA5QnLFyl4zKGYeMsPqtHIqs6lTMsjYiHPIK8WjtNUOZGwkDcZGpLXr4qF9juAYf4yN6GLFziimTlj/IjYZ5pMyQQjNEVJTUPeajI0ow9iIJ4yNqIJrpFp5eAu7UvRKW7HyGRtJLe0zWZe6WNGohzQTp7IMwyFLiybD6oTtQNHskDA2kgzNEZIfVvaaQTHzkBlWp5VTmU2dkkHGRpxDXikepa12IGMjaTA2Iq1dFw/tcwTH+GNsRBcrdkYxdcL6F7HJMJ+UyUJojpDagbrXZGxEGcZGPEHtwDhGdOIaqVYe3sKuFL3SVqx8xkZSS/tM1qUuVjTqIc3KqQw3juFzLyHF7EDR7JAwNpIKzRGSE1b2mkEx85AZVqeVUxmqTkXjj7ERh7xSPEozNpKhWH6VFWFsRFq7Lh7a5wiO8cfYiC5W7Ixi6oT1L2KTYT4pU41UmiOkRqDuNRkbUYaxEU9QOzCOEZ24RqqVh7ewK0WvtBUrn7GR1NI+k3WpixWNekizcirDjWP43EtIMTtQNDskjI1kgeYIyQMre82gmHnIDKvTyqkMVSdjI7rgrhSP0oyNZCiWX2VFGBuR1q6Lh/Y5gmP8MTaiixU7o5g6Yf2L2GSYT8osRirNEVILUPeajI0ow9iIJ6gdGMeITlwj1crDW9iVolfaipVvJTYSFJx3VrG01RWNekizcirDjWP43EtIMTtQNDskjI1khOYICY6VvWZQzOw1YXVaOZWh6mRsRBfcleJRmrGRDMXyq6xIDWMjmisFxiYoyEP7HMEx/hgb0cWKnVFMnbD+RWwyzCdlRiOV5gjJHdS9JmMjyjA24glqB8YxohPXSLXy8BZ2peiVtmLlMzYiLW1Vp5UVjXpIs3Iqw41j+NxLSDE7UDQ7JIyNZIfmCAmLlb1mUMzsNWF1WjmVoepkbEQX3JXiUZqxkQzF8qusCGMj0tp18dA+R3CMP8ZGdLFiZxRTJ6x/EZsM80mZ3UilOULyBXWvydiIMoyNeILagXGM6MQ1Uq08vIVdKXqlrVj5jI1IS1vVaWVFox7SrJzKcOMYPvcSUswOFM0OCWMjImiOkIBY2WsGxcxeE1anlVMZqk7GRnTBXSkepRkbyVAsv8qKMDYirV0XD+1zBMf4Y2xEFyt2RjF1wvoXsckwn5QiI5XmCMkR1L0mYyPKMDbiCWoHxjGiE9dItfLwFnal6JW2YuUzNiItbVWnlRWNekizcirDjWP43EtIMTtQNDskjI1IoTlCQmFlrxkUM3tNWJ1WTmWoOhkb0QV3pXiUZmwkQ7H8KivC2Ii0dl08tM8RHOOPsRFdrNgZxdQJ61/EJsN8UkqNVJojJC9Q95qMjSjD2IgnqB0Yx4hOXCPVysNb2JWiV9qKlc/YiLS0VZ1WVjTqIc3KqQw3juFzLyHF7EDR7JAwNrIIaI6QIFjZawbFzF4TVqeVUxmqTsZGdMFdKR6lGRvJUCy/yoowNiKtXRcP7XMEx/hjbEQXK3ZGMXXC+hexyTCflIswUmmOkFxA3WsyNqIMYyOeoHZgHCM6cY1UKw9vYVeKXmkrVj5jI9LSVnVaWdGohzQrpzLcOIbPvYQUswNFs0PC2MjioDlCjIF72qnGzF4TVqeVUxmqTsZGdMFdKR6lGRvJUCy/yoowNiKtXRcP7XMEx/hjbEQXK3ZGMXXC+hexyTCflIszUmmOEH3MxDFSrrMPhoWxEWVQ7QzYDoxjRCeukWrl4S3sStErzdiI9OZ8Z3VLW13RqIc0K6cy3DiGz72EFLMDRbNDwtjIoqE5QiyBe9qpxsxeE1anlVMZqk7GRnTBXSkepRkbyVAsv8qKMDYirV0XD+1zBMf4Y2xEFyt2RjF1wvoXsckwn5SLNlJpjhBlzMQxUq6zD4aFsRFlUO0M2A6MY0QnrpFq5eEt7ErRK83YiPTmfGd1S1td0aiHNCunMtw4hs+9hBSzA0WzQ8LYiA80R4gZcE871ZjZa8LqtHIqQ9VZl7GRgJjRGWyyL4yN5AhjI9LadfHQPkdwjD/GRnSxYmcUUyesfxGbDPNJ6WOk0hwhmpiJY6RcZx8MC2MjyqDaGbAdGAdXZ/VagNVp5eEt7ErRK83YiPTmfGd1S1td0aiHNCunMtw4hs+9hBSzA0WzQ8LYiCc0R4gNcE871ZjZa8LqtHIqQ9XJ2IguZnQGm+wLYyM5wtiItHZdPLTPERzjj7ERXazYGcXUCetfxCbDfFJ6Gqk0R4gaZuIYKdfZB8PC2IgyqHYGbAfGwdXJ2IgqsCtFrzRjI9Kb853VLW11RaMe0qycynDjGD73ElLMDhTNDgljI/7QHCEGwD3tVGNmrwmr08qpDFUnYyO6mNEZbLIvjI3kCGMj0tq4Vn41uAvcozRjI46xEW2KqRPWv4hNhvmJ6W+k0hwhOpiJY6RcZx8MC2MjyqDaGbAdGAdXJ2MjqsCuFL3SjI1Ib853NrVYXaxo1EOalVMZbhzD515CitmBotkhYWxEBZojBB3c0041ZvaasDqtnMpQdTI2oosZncEm+8LYSI4wNiKtjWvlV4O7wD1KMzbiGBvRppg6Yf2L2GSYn5gqRirNEaKAmThGynX2wbAwNqIMqp0B24FxcHUyNqIK7ErRK83YiPTmfGdTi9XFikY9pFk5leHGMXzuJaSYHSiaHRLGRrSgOUKgwT3tVGNmrwmr08qpDFUnYyO6mNEZbLIvjI3kCGMj0tq4Vn41uAvcozRjI46xEW2KqRPWv4hNhvmJqWWk0hwhvpiJY6RcZx8MC2MjyqDaGbAdGAdXJ2MjqsCuFL3SjI1Ib853NrVYXaxo1EOalVMZbhzD515CitmBotkhYWxEEZojBBfc0041ZvaasDqtnMpQdTI2oosZncEm+8LYSI4wNiKtjWvlV4O7wD1KMzbiGBvRppg6Yf2L2GSYn5iKRirNEeKFmThGynX2wbAwNqIMqp0B24FxcHUyNqIK7ErRK83YiPTmfGdTi9XFikY9pFk5leHGMXzuJaSYHSiaHRLGRnShOUJAwT3tVGNmrwmr08qpDFUnYyO6mNEZbLIvjI3kCGMj0tq4Vn41uAvcozRjI46xEW2KqRPWv4hNhvmJqWuk0hwhi8dMHCPlOvtgWBgbUQbVzoDtwDi4OhkbUQV2peiVZmxEenO+s6nF6mJFox7SrJzKcOMYPvcSUswOFM0OCWMjukQ0RwgmuKedaszsNWF1WjmVoepkbEQXMzqDTfaFsZEcYWxEWhvXyq8Gd4F7lGZsxDE2ok0xdcL6F7HJMD8x1Y1UmiNkkZiJY6RcZx8MC2MjyqDaGbAdGAdXJ2MjqsCuFL3SjI1Ib853NrVYXaxo1EOalVMZbhzD515CitmBotkhYWxEl9nSNEcIHLinnWrM7DVhdVo5laHqZGxEFzM6g032hbGRHGFsRFob18qvBneBe5RmbMQxNqJNMXXC+hexyTA/MUMYqTRHyGIwE8dIuc4+GBbGRpRBtTNgOzAOrk7GRlSBXSl6pRkbkd6c72xqsbpY0aiHNCunMtw4hs+9hBSzA0WzQ8LYiC4nStMcIVjgnnaqMbPXhNVp5VSGqpOxEV3M6Aw22RfGRnKEsRFpbVwrvxrcBe5RmrERx9iINsXUCetfxCbD/MQMZKTSHCFizMQxUq6zD4aFsRFlUO0M2A6Mg6uz/mIjQbGi06M0YyPSm/OdTS2GeyqzojMRxkZ8S4smw+qE7UDR7JAwNqLLyaVpjhAgcE871ZjZa8LqtHIqQ9XJ2IguuDpRO1BUDGivaeQjJhnGRqS1ca38anAXuEdpxkYcYyPaFFMnrH8RmwzzEzOckUpzhMgwE8dIuc4+GBbGRpSBPUyidmAcXJ2MjahiRadHacZGpDfnO5taDPdUZnNFx2BsxLe0aDKsTlSbAFgnYyNexErTHCEo4J52qjGz14TVaWUPh6qTsRFdcHWidqCoGNBe08hHTDKMjUhr41r51QAtcCPGH2MjulixM4qpE9a/iE2G+YkZ1EilOUIEmIljpFxnHwwLYyPKwB4mUTswDq5OxkZUsaLTozRjI9Kb851NLYZ7KrO5omMwNuJbWjQZVieqTQCsk7ERL+aWpjlCIMA97VRjZq8Jq9PKHg5VJ2MjuuDqRO1AUTGgvaaRj5hkGBuR1sa18qsBWuBGjD/GRnSxYmcUUyesfxGbDPMTM7SRSnOEZMVMHCPlOvtgWBgbUQb2MInagXFwdTI2oooVnR6lGRuR3pzvbGox3FOZzRUdg7ER39KiybA6UW0CYJ1FiI3UkHmF0BwhtQf3tFONmb0mrE4rezhUnYyN6IKrE7UDRcWA9ppGPmKSYWxEWhvXyq8GaIEbMf4YG9HFip1RTJ2w/kVsMqyhFhvV0ElzhGTCTBwj5Tr7YFgYG1EG9jCJ2oFxcHUyNqKKFZ0epRkbkd6c72xqMdxTmc0VHYOxEd/SosmwOlFtAmCdjI14sZAQmiOkxuCedqoxs9eE1WllD4eqk7ERXXB1onagqBjQXtPIR0wyjI1Ia+Na+dUALXAjxh9jI7pYsTOKqRPWv4hNhjXUYqNKOmmOkHTMxDFSrrMPhoWxEWVgD5OoHRgHVydjI6pY0elRmrER6c35zqYWwz2V2VzRMRgb8S0tmgyrE9UmANbJ2IgXCUJojpBagnvaqcbMXhNWp5U9HKpOxkZ0wdWJ2oGiYkB7TSMfMckwNiKtjWvlVwO0wI0Yf4yN6GLFziimTlj/IjYZ1lCLjerppDlCUjATx0i5zj4YFsZGlIE9TKJ2YBxcnYyNqGJFp0dpxkakN+c7m1oM91Rmc0XHYGzEt7RoMqxOVJsAWCdjI14kC6E5QmoG7mmnGjN7TVidVvZwqDoZG9EFVydqB4qKAe01jXzEJMPYiLQ2rpVfDdACN2L8MTaiixU7o5g6Yf2L2GRYQy02qqqT5ghJwkwcI+U6+2BYGBtRBvYwidqBcXB1MjaiihWdHqUZG5HenO9sajHcU5nNFR2DsRHf0qLJsDpRbQJgnYyNeJGqk+YIqQ24p51qzOw1YXVa2cOh6mRsRBdcnagdKCoGtNc08hGTDGMj0tq4Vn41QAvciPHH2IguVuyMYuqE9S9ik2ENtdiotk6aI2RBzMQxUq6zD4aFsRFlYA+TqB0YB1cnYyOqWNHpUZqxEenN+c6mFsM9ldlc0TEYG/EtLZoMqxPVJgDWydiIF1l00hwhNQD3tFONmb0mrE4rezhUnYyN6IKrE7UDRcWAjFQjHzHJMDYirQ3UgYkALXAjxh9jI7pYsTOKqRPWv4hNhjXUYqMBdNIcIfNjJo6Rcp19MCyMjSgDe5hE7cA4uDoZG1EFVqfiqcxPSMrNjZwecY0/j9JWVwqMH5T40lrC2IhvadFkWJ2oNgGwTsZGvMiok+YIyRvc0041ZvaasDqt7OFQdTI2oguuTtQOFBUDMlKNfMQkw9iItDZQByYCtMCNGH+Mjehixc4opk5Y/yI2GdZQi42G0UlzhMyDmThGynX2wbAwNqIM7GEStQPj4OpkbEQVWJ2MjaiCa/x5lLa6UmD8oMSX1hLGRnxLiybD6kS1CYB1MjbiRXadNEdIruCedqoxs9eE1WllD4eqk7ERXXB1onagqBiQkWrkIyYZxkaktYE6MBGgBW7E+FOMjQSFsRFdiqkT1r+ITYY11GKjwXTSHCFxzMQxUq6zD4aFsRFlYA+TqB0YB1cnYyOqwOpkbEQVXOPPo7TVlQLjByW+tJbUMDZixfhjbCQojI3ogmP8JSPSSXOE5AfuaacaM3tNWJ1W9nCoOhkb0QVXJ2oHiooBGalGPmKSYWxEWhuoAxMBWuBGjD/GRnSxYmcUUyesfxGbDGuoxUZD6qQ5QqowE8dIuc4+GBbGRpSBPUyidmAcXJ2MjagCq5OxEVVwjT+P0lZXCowflPjSWsLYiG9p0WRYnag2AbBOxka8kOqkOUJyAve0U42ZvSasTit7OFSdjI3ogqsTtQNFxYCMVCMfMckwNiKtDdSBiQAtcCPGH2MjulixM4qpE9a/iE2GNdRio4F10hwhP8RMHCPlOvtgWBgbUQb2MInagXFwdTI2ogqsTsZGVME1/jxKW10pMH5Q4ktrCWMjvqVFk2F1otoEwDoZG/FiETppjpA8wD3tVGNmrwmr08oeDlUnYyO64OpE7UBRMSAj1chHTDKMjUhrA3VgIkAL3Ijxx9iILlbsjGLqhPUvYpNhDbXYaHidNEfIW5iJY6RcZx8MC2MjysAeJlE7MA6uTsZGVIHVydiIKrjGn0dpqysFxg9KfGktYWzEt7RoMqxOVJsAWCdjI14sTifNERIc3NNONWb2mrA6rezhUHUyNqILrk7UDhQVAzJSjXzEJMPYiLQ2UAcmArTAjRh/jI3oYsXOKKZOWP8iNhnWUIuN5qKT5ghxzlAcI+U6+2BYGBtRBvYwidqBcXB1MjaiCqxOxkZUwTX+PEpbXSkwflDiS2sJYyO+pUWTYXWi2gTAOhkb8WLROmmOkLDgnnaqMbPXhNVpZQ+HqpOxEV1wdaJ2oKgYkJFq5CMmGcZGpLWBOjARoAVuxPhjbEQXK3ZGMXXC+hexybCGWmw0L500R4idOEbKdfbBsDA2oozHYTIsqB0YB1cnYyOqwOpkbEQVXOPPo7TVlQLjByW+tJYwNuJbWjQZVieqTQCsk7ERL3x00hwhAcE97VRjZq8JqxN1D5f8sWdFp2SQsRHnkHWidqCoGJCRauQjJhnGRqS1gTowEaAFbsT4Y2xEFyt2RjF1wvoXscmwhlpsNEedNEfqHTNxjJTr7INhYWxEGcZGPMHVydiIKrA6GRtRBdf48yhtdaXA+EGJL60ljI34lhZNhtWJahMA62RsxAtPnTRHSChwTzvVmNlrwupE3cMxNqILbgfGSsPqRO1AUTEgI9XIR0wyjI1IawN1YCJAC9yI8cfYiC5W7Ixi6oT1L2KTYQ212Gi+OmmO1DVm4hgp19kHw8LYiDKMjXiCq5OxEVVgddZfbCQouMafR2mrKwXGD0p8aS1hbMS3tGgyrE5UmwBYJ2MjXvjrpDlCgsC9pi64OlH3cIyN6ILbgbHSsDpRO1BUDMhIRf2IEXYgYyOy2kAdmAjQAmdsRBXGRnQppk5Y/yI2GdZQi43mrpPmSP1iJo6Rcp19MCyMjSjD2IgnuDoZG1EFVidjI6rgGn8epa2uFBg/KPGltYSxEd/SHpN1wV0piTA2oguO8ZeMik6aI0Qf7jV1wdWJuodjbEQX3A6MlYbVidqBomJARirqRwxjI8pYsfKrAVrgjI2oghsbsWL8eZQyoxPWv4hNNmL81UQnzZE6xUwcI+U6+2BYGBtRhrERT3B1MjaiCqxOxkZUwTX+PEpbXSlWTrm1g7ER39Iek3XBXSmJMDaiS13FRhzNEaIO95q64OpE3cMxNqILbgfGSsPqRO1AUTEgIxX1I4axEWWsWPnVAC1wxkZUYWxEl2LqhPUvYpONGH+10klzpB4xE8dIuc4+GBbGRpRhbMQTXJ2MjagCq5OxEVVwjT+P0lZXipVTbu1gbMS3tMdkXXBXSiKMjehSb7ERR3OE6MK9pi64OlH3cIyN6ILbgbHSsDpRO1BUDMhIRf2IYWxEGStWfjVAC5yxEVUYG9GlmDph/YvYZCPGXw110hypO8zEMVKusw+GhbERZRgb8QRXJ2MjqsDqZGxEFVzjz6O01ZVi5ZRbOxgb8S3tMVkX3JWSCGMjutRhbMTRHCGKcK+pC65O1D0cYyO64HZgrDSsTtQOFBUDMlJRP2IYG1HGipVfDdACZ2xEFcZGdCmmTlj/IjbZiPFXW500R+oLM3GMlOvsg2FhbEQZxkY8wdXJ2IgqsDoZG1EF1/jzKG11pVg55dYOxkZ8S3tM1gV3pSTC2Igu9RkbcTRHiBbca+qCqxN1D8fYiC64HRgrDasTtQNFxYCMVNSPGMZGlLFi5VcDtMAZG1GFsRFdiqkT1r+ITTZi/NVcJ82ROsJMHCPlOvtgWBgbUYaxEU9wdTI2ogqsTsZGVME1/jxKW10pVk65tYOxEd/SHpN1wV0piTA2okvdxkYczRGiAveauuDqRN3DMTaiC24HxkrD6kTtQFExICMV9SOGsRFlrFj51QAtcMZGVGFsRJdi6oT1L2KTjRh/CDppjtQLZuIYKdfZB8PC2IgyjI14gquTsRFVYHUyNqIKrvHnUdrqSrFyyq0djI34lvaYrAvuSkmEsRFd6jk24miOEH+419QFVyfqHq4OYyNBwe3AWGlYnagdKCoGZKQWZKUwNiKrDdSBiQAtcMZGVGFsRJdi6oT1L2KTjRh/IDppjtQFZk5lKdfZB8PC2IgyjI0IsbJSGBtRBlYnYyOq4Bp/HqWtrhQrp9zawdiIb2mPybrgrpREGBvRpc5jI47mCPGEe01dcHWi7uEYG9EFtwNjpWF1onagqBiQkVqQlVKI2EhQrFj51QAtcMZGVGFsRJdi6oT1L2KTjRh/ODppjhQfM6eylOvsg2FhbEQZxkaEWFkpjI0oA6uTsRFVcO0M2A5MLIZ7KrPy75kIYyO+pT0m64K7UhJhbEQXxkYczRHiA/eauuDqRN3DMTaiC24HxkrD6kTtQFExICO1ICuFsRFZbaAOTARogTM2ogpjI7oUUyesfxGbbMT4w9HpaI4UHjOnspTr7INhYWxEGcZGhFhZKYyNKAOrk7ERVXDtDNgOTCyGeyqz8u+ZCGMjvqU9JuuCu1ISYWxEF8ZGZqE5QhYJ95q64OpE3cMxNqILbgfGSsPqRO1AUTEgI7UgK4WxEVltoA5MBGiBMzaiCmMjugCtFL3SuP5FbLIR4w9H5yw0R4qMmVNZynX2wbAwNqIMYyNCrKwUxkaUgdXJ2IgquHYGbAcmFsM9PVr590yEsRHf0h6TdbGyUkSVGRuRwtjICWiOkMXAvaYuuDpR93CMjeiC24Gx0rA6UTtQVAzISC3ISmFsRFYbqAMTAVrgjI2owtiILkArRa80rn8Rm2zE+MPReQKaI4XFzKks5Tr7YFgYG1GGsREhVlYKYyPKwOpkbEQVXDsDtgMTi+GeHq38eybC2IhvaY/JulhZKaLKjI1IYWzkZGiOEDHca+qCqxN1D8fYiC64HRgrDasTtQNFxYCM1IKsFMZGZLWBOjARoAXO2IgqjI3oArRS9Erj+hexyUaMPxydJ0NzpJiYOZWlXGcfDAtjI8owNiLEykphbEQZWJ2MjaiCa2fAdmBiMdzTo5V/z0QYG/Et7TFZFysrRVSZsREpjI3EoDlCZHCvqQuuTtQ9HGMjuuB2YKw0rE7UDhQVAzJSC7JSGBuR1QbqwESAFjhjI6owNqIL0ErRK43rX8QmGzH+cHTGoDlSQMycylKusw+GhbERZRgbEWJlpTA2ogysTsZGVMG1M2A7MLEY7unRyr9nIoyN+Jb2mKyLlZUiqszYiBTGRuZCc4QI4F5TF1ydqHs4xkZ0we3AWGlYnagdKCoGZKQWZKUwNiKrDdSBiQAtcMZGVGFsRBeglaJXGte/iE02Yvzh6JwLzZGiYeZUlnKdfTAsjI0ow9iIECsrhbERZWB1MjaiCq6dAduBicVwT49W/j0TYWzEt7THZF2srBRRZcZGpDA2Mi80R0hWuNfUBVcn6h6OsRFdcDswVhpWJ2oHiooBGakFWSmMjchqA3VgIkALnLERVRgb0QVopeiVxvUvYpONGH84OueF5kihMHMqS7nOPhgWxkaUYWxEiJWVwtiIMrA6GRtRBdfOgO3AxGK4p0cr/56JMDbiW9pjsi5WVoqoMmMjUhgbWQiaIyQT3GvqgqsTdQ/H2IguuB0YKw2rE7UDRcWAjNSCrBTGRmS1gTowEaAFztiIKoyN6AK0UvRK4/oXsclGjD8cnQtBc6Q4mDmVpVxnHwwLYyPKMDYixMpKYWxEGVidjI2ogmtnwHZgYjHc06OVf89EGBvxLe0xWRcrK0VUmbERKYyNJEBzhKTDvaYuuDpR93CMjeiC24Gx0rA6UTtQVAzISC3ISmFsRFYbqAMTAVrgjI2owtiILkArRa80rn8Rm2zE+MPRmQDNkYJg5lSWcp19MCyMjSjD2IgQKyuFsRFlYHUyNqIKrp0B24GJxagzKIyN+Jb2mKwLrs/C2EiOfAWYqQAAIABJREFUMDaSDM0RkgL3mrrg6kTdwzE2ogtuB8ZKw+pE7UBRMSAjtSArhbERWe1CdqAZg5KxEcZGtAFaKXqlcf2L2GQjxh+OzmRojhQBM6eylOvsg2FhbEQZxkaEWFkpjI0oA6vTyOkRtwOrwbUzYDswsRh1BoWxEd/SHpN1wfVZGBvJEcZGUqE5QpLgXlMXXJ2oezjGRnTB7cBYaVidqB0oKgZkpBZkpTA2IqtdyA40Y1AyNsLYiDZAK0WvNK5/EZtsxPjD0ZkKzRHzmDmVpVxnHwwLYyPKMDYixMpKYWxEGVidRk6PuB1YDa6dAduBicWoMyiMjfiW9pisC67PUn+xkRrC2EgWaI6QBeFeUxdcnah7OMZGdMHtwFhpWJ2oHSgqBmSkFmSlMDYiq13IDjRjUDI2wtiINkArRa90DY0/IJ16k3F0ZoHmiG3MnMpSrrMPhoWxEWUYGxFiZaUwNqIMrE4jp0fcDqwG186A7cDEYtQZFMZGfEt7TNYF12dhbCRHGBvJCM0RMj/ca+qCqxN1D8fYiC64HRgrDasTtQNFxYCM1IKsFMZGZLUL2YFmDErGRhgb0QZopeiVZmzE1XFsxNEcMY2ZU1nKdfbBsDA2ogxjI0KsrBTGRpSB1Wnk9IjbgdXg2hmwHZhYjDqDwtiIb2mPybrg+iyMjeRIzeMYGUHQSXOEzAP3mrrg6kTdwzE2ogtuB8ZKw+pE7UBRMSAjtSArhbERWe1CdqAZg5KxEcZGtAFaKXqlGRtx9R0bcc41hLktCY6ZU1nKdfbBsDA2ogxjI0KsrBTGRpSB1Ql2emxsaWzrbG/ram9uazl+eGS4f2h4YGhmega3A6vBtTNgOzCxGHUGhbER39Iek3XB9VkYG8kRhDhGFkB00hwhcbjX1AVXJ+oejrERXXA7MFYaVidqB4qKARmpmXWWyqVTz92w7aozT7vi9I5Vy2MzKzOVQ3sO7vn27j0PPd/3aq+CLsZGdIG18sGMv8XdHechM2MjvjA2EhKclcLYiC7h7h19/PTfDHZzEoqgpzLN1St5sa5O0c2DxkbCPQbx3WuGO/J53Hme+XntG3R1im5uZaUEjY3UaqWk3xlypaTqFCkJ14GL01lqKO/8kQuu+Ilrlq5sy1Ll0IsHH/yz+1773suZ68xXOpg5omtn4K4Uj5tbWSkpk2F1ht0vqZkjQWMjQB0Y7uY5+iy12oyF1enVgSkfCrUyR3RXimgyjk4RNEdMEnAji3p6jE/Oda+5eHNE+REf7F4z3M1h95qqd7ayUsKZIzVcKSk3t7lSRErQVsrWK05/xyffvWJdp6SOc8699r2Xv/5Hd/W/1peh1JzSwZwR+c1zutXcGZrtrfhpJbxbys3D9fac/4SiU7h1E3agZmwE9GFSyNNj0J5B6UDh6xXNkXxXSuJaANKZNFwrZyS9tIdOKeVzu64NeX+iT7ifC0539UpeXMNPUMZGMs3PPtnv51fAo6luB+rd3MpKYWxE4W7h7gzZgVKdpVJ07c+964ZfvLl12RJJnbdYvmbljvfsHNjbN7ivv6YrJeCdcVeKx82trJSUybA689svye7mc3NdO8PKSkm5eV77paA3V/y0yjBePdmrAxkbmTMKo1MKzRF7BNzIop4e45Nh95pB7wy71wx3c9i9puqdrawU0c2trJSUm9tcKSIlOCulubXpfZ+5/dybz5dUiFNuLJ953Y6Z6Zn9T+/N/irGRjLNzz5Z8dNKeLeUm4fr7Tn/CUWnqp3B2Ej6fI+b6/YMSgcKX69ojtRwpYhuXkudwT4FcHQuAv4pX2OE+7mgixmdKbX5R2qE5PvzSwBsB6ZcZx8MDf9IjSqwOoPuiRMml6L3/acPbb3idMmLFrpXdPXPvvPiD1+hcCtvcL88FbYDE4tRZ1B0Tzuy0sGcEV2svLPhnBFf8nJGgjKnMv9IjRdoOmmOkLfAPe1Ug7vXjJWG1Ym6h0v+2LOiUzIYFtwOjJWG1YnagaJiQEZqYrF3fOKGzZduVax2zc+/a/MlmW7IP1KjDKyVXyPjT0ztHjIL4R+p8UPxIybHf26glaJXmn+kxtU0NiIih6aiOWIJM6eylOvsg2FhbEQZxkaEWFkpjI0oA6uzRqfH7e88++LbL5e8IoOAUnTrb9zWsXqF7m1lGmDtDNgOTCxGnUFhbMS3tMdkXXB9FsZGcgQtjrEQgDppjhDnkE871eDuNWOlYXWi7uEYG9EFtwNjpWF1onagqBiQkbpwsYbmxnf8wg0hajYtbb7m565PnsPYiDKwVn79xUYCgx4bmYgqu1rHv7Ls6JeXHd3TMjGvXMZGpACtFL3SjI04xkaqacilClHAzKks5Tr7YFgYG1GGsREhVlYKYyPKwOqs0enxog9e2t69TPIKAWdcd9Zjf//wmy+8Eej+CeDaGbAdmFiMOqXU8I/UiFDUWYncY0tHv+sGh0eG3dHR6PBbH17POTfd3NDY0bapZfntQytKizI5cd5ZxdKMjUhhbEQXTJ38azVmCHeU4h+p8b9bwDsrmiNB93DBHoP46gx35PO7s5WVIrq5lZWScnObK0WkBGSlNC1p/sBv397QFOw5TRQtO2X5c/c9vcCg5E78IzWqHzFWVkr6ZEidLmwHwv2RmsMNM19uP/wvY/te7Ts4OTQSjU1G1RpL0zOVkbHDR4881Hb81Kb2FVNl6amsVisl5c66OnNcKaKbg+yXdG9eS50hNzkgf2/eByZHbBD0E1QRMzpTajM2IqRGP7/Sge3AlOvsg6FhbEQVWJ1B98QLs+XSrS1tLZJXiNl44eYly5cePzIStEoMxkZ8oU4/6iQ2UnHukbbR78wMHO/tLw1UMn1TQP+xv254btvaDR8+ujx7cZx3VrG0aB/iS17OSFDmVGZsZM69gzkjecLvHKl3cE871eDuNWOlYXXC7uESr63olAyGBbcDY6VhdaJ2oKgYkJGaWGzblWcEr18qbbls2zz/XdaB/LYRWW0rHQi0wFE/U+YA8W0jA43Tf90x+NuV3d84sHvsYF9pWrBCS1MzL+199R86jiw4I8fNBK6d4VHKjD1UO5sASGewybrkWZrJEQOYOZWlXGcfDAtjI8owNiLEykphbEQZWJ01Oj2WGspbLtP8870LcdqVZzxz1w9yKDQLrp0B24GJxahTSoFjIxXnvtt2/DszA6OHBkr92aIiC/D8wX0HlretnUg/B+G8s4qlGRuRwthIeulCxEYczZE6B/e0Uw3uXjNWGlYn7B4u8dqKTslgWHA7MFYaVidqB4qKARmpicVWrlnRvDTs79TMsmrb6th/YWxEGVgrn7ERZWoWG+lvnL5jyZG9R/rKB0adRu69NDH9V9H+X3Eba2gT4NoZHqXM2EOMjRT0nfWH5gg6Zk5lKdfZB8PC2IgyjI0IsbJSGBtZHM1tLT2burs39XRv6u7Z1HPfn9z75p435xaruc6Mdw+qs62zXfiKRbJ0ZZuLIlfJw+PAtTNgOzCxGHVKKVhspOLcw+3HH53uHzs0GPVXyqoapg4d/tf1K997LOmvZeG8s4qlGRuRwthIeumixEYczZF6Bve0Uw3uXjNWGlYn7B4u8dqKTslgWHA7MFYaVqe8A5uXNvds6une3NOzsbt7c0/Ppu7YX6Vt/PMmTYUZlAEZqWk627pyMkdKDeUlHUtOfCcrYyPKwFr5jI0ok2tspK9x+s4lh18/3FfaPxbi/rM8efTgrdGyH96csZHU0nqTdQGKYzA2okr+pWmOQGPmVJZynX0wLIyNKMPYiBArK4WxkXlpXtrcvbG7Z3NP96aens093Ru7l/UkPXJcqBjQjqSmp8fWjiXyFy2S1uVLcviDNbh2BmwHJhajTikFiI1UnPt2+8ij0wPjhwYjv28VyULp6PHH1o5eMtI67yjOO6tYmrERKYyNpJcuUGzE0RypW3BPO9Xg7jVjpWF1wu7hEq+t6JQMhgW3A2OlYXXO6cDmJc3dm7q7N/X0bJpNhfRktUKCUpTYiHNubHgsFynOOTd2bPSt0oyN6AJr5TM2okzw2Mihpum7Wg+/PthXDhkVmctDbvASt9aFLsnYSEiA4hiMjahSk9I0R3AxcypLuc4+GBbGRpRhbESIlZVSn7GRptamns09PW9/V0j3pu6OUzr89M1fDGhHUuvT43D/sUW9TkxlZoaxkcWVps7UYjg6jcZGZiL3rbaRx6YHJg8NRjPK3yqShZFD/UeXr+6YiodUcN5ZxdKMjUhhbCS9dLFiI47mSH2Ce9qpBnevGSsNqxN2D5d4bUWnZDAsuB0YKw2rM3K3/sdbz77+7DxrLoYCxUacc8MDw+GlOOfcyOBIZabiGBtRB9bKr7Xxp3J3nM1YoNjIwaapu1uP7M89KhKjNDVzx5IjPza0MmANxkZCAhTHYGxElVqVpjkCiplTWcp19sGwMDaiDGMjQqyslPqMjTjnujd2e6jJWgxoRwJwejxyYHBybLKxpXGxN8hK/6u9oUvg2hmwHZhYjDqlGIqNzETum20jj0/1Tx4ajCou/6jIXF461leJVp78vxvnnVUszdiIFMZG0ksXLjbiaI7UIbinnWpw95qx0rA6YfdwiddWdEoGw4LbgbHSsDojF5WizlM786y5GIoVG3HOTU1Mvfr4y9uuOiOwILfn27sdYyPqwFr5AMaf/91xNmOKsZE3mqfuaT18YKCvvH9c+tqgREeOP7F27MLjLWHunnAleiljI76lGRtxBX1ndaE5goiZU1nKdfbBsDA2ogxjI0KsrJS6jY0sX7W8sTl4fgFoRwLzzu759u4czJGXHt4d9P64dgaq9ZxcjDqlgMdGpiP3YPvw9yf7J3sPg0RF5vJNN3Dh7NeyIr2ziqUZG5HC2Eh66SLGRhzNkXoD97RTDe5eM1YaVifsHi7x2opOyWBYcDswVhpWZ+Scc10buvKsuRhQYyOeK+Wlh1+YGp9sCOlMHdj1+lDfMcZGlIG18hkbUcYrNrK/eeqe1sNv9veVwKIicxk+1H9s+epl09p/O5ixkZAAxTEYG1Gltj8rQv8FcSLGzKks5Tr7YFgYG1GGsREhVlZK3cZGXLgvHMlQ2n+yGKR3dvTY8e/946NBS3z7818Pen9cOwPVek4uRp1SAGMj05G7r2P491pf+6v+Z3r37S8dH9e5b0hKUzN3LDnqkN5ZxdKMjUhhbCS9dEFjI47JkboC97RTDe5eM1YaVifsHi7x2opOyWBYcDswVhpW59vFcjBHvChobGSWR77w0M4fuaBlWauOpmpefeylvd9/lbERZWCtfMZGlBHHRva1TN7bfPjNgf7y6+hRkbm8ONTv3ArNOzI2EhKgOAZjI6rU/OcGzREszJzKUq6zD4aFsRFlGBsRYmWl1HNsxIU3R4B2JHjv7Njw2EN//sC7/t1N6neenpx68H/eq37bk8G1M1Ct5+Ri1CkFJDYyFVW+0T7y5ETfVO+RyOX6rSJR5FYtdzs2RDvWRzvWR+u63EsH3a59lWf3VnbtqwxK/lx46fCw6GtZgbYWosmMjaTB2Eh66eLGRhzNkfoB97RTDe5eM1YaVifsHi7x2opOyWBYcDswVhpW50nFoL9zpNCxkVme+PKja7avPeuGc301VXPP73+17+VDjI0oA2vlMzaiTKbYyN7myXtbDh/q7yvvn3C56z9lufvMj5Wv3l5Vdn2Xe8fZb/2XL3575nNfmRkZy3rDb530tay+MDYSEqA4BmMjqiD8DKQ5AoSZU1nKdfbBsDA2ogxjI0KsrJQ6j40sXbG0NczvdKSW9pwsBvadde6u3/vXlad2rT5T6Vji3ONf/M6uu5/Uutu84NoZqNZzcjHqlFLD2MhUVLl/2fBT4/3TuUdFZokid+vF0a99sNye+MP79itLV54Z/erfzDy2J5PvOXSof2j56vYMX8sKtLUQTWZsJA3GRtJLFzo24viFrHUC7mmnGty9Zqw0rE7YPVzitRWdksGw4HZgrDSszpOKQX/hSB3ERmaZmpj6h1/5whvP7V+8ppN48l8en/2FGsZGlIG18hkbUWbBtfBay+T/6jj02Ylnf/D6SzO9R2qiuRS5//pT5c9+PMUZmWVtZ/SX/7b8CzdmOu9EUzNfW3rMV59jbCQsQHEMxkZUAfkZSHMEBTOnspTr7INhYWxEGcZGhFhZKXUeG3GBzRGgHQnsO/s2xw+P/O2n/+K5+572ucnM9Mz9f3DHvf/ta5WZsE4Hrp2Baj0nF6NOKTnHRiajyp0dx/5L86t/17tr8PU3yqOTgvIaNESuu7Eyq/Sj15RuPF/2r/upm0uXbMv0kheP9aXOAdpaiCYzNpIGYyPppYseG3H8tZp6APe0Uw3uXjNWGlYn7B4u8dqKTslgWHA7MFYaVmd1se6NqF84UjexkRNMTUx99bf/6cBz+6/6qesW8fdr+l/tvf8P7tj35GtvlWZsRBdYK5+xEWWq1sIrLZP3Nw/29fWVX590+ersaKhc2j6ztaWyrXVmc0ulIXLD0+5ga/na92X9ztST+Z2Plt77u9Op3z8SHR7+/tqx8zN/Let8t0i4Er2UsRHf0oyNuIK+s0GhOQKBmVNZynX2wbAwNqIMYyNCrKwUxkacc10bIH6thqcy93YHfv/Ljz5771OXfvSqCz94aUNTpl3KcP+xhz7/wK67n6zMzISV6JxDtjNQrefkYtQpJYfYyHip8vX2oV1j/TO9R10tvlXkqmUzn1oztaxc9SHV1uCuurmxYVFnl7Wd0S+9r/Sbf5/+I+LBaOD8hb+WFWhrIZrM2EgajI2kl66D2IijOVJ4cE871eDuNWOlYXXC7uESr63olAyGBbcDY6Vhdc7pQNDvHKm/2MjJjA+PffPP7nvs7x7ecvm2bVeeufGiLY0tjXOnjQwOv/Tw7j3f3r33iVenJ6eqSjM2oguslc/YiDKVl1onvt54eKC/t3RkKn16AJaVK59cPXVNxzwuRuu6cvOqxRs1t19Z+pO7ZvqOpkwbejPr17LOA2MjIQGKYzA2ogrSz0CaIwCYOZWlXGcfDAtjI8owNiLEykphbMQ519TatKxnmVCQPjyVufk6cPTY8V13P7nr7icbmhqWr1re1r2srWtZS1vLyOHh4b5jQ/1DR9884ip5+xq4dgaq9ZxcjDqlBIqNjJcq97Ufe3asv3LoqKvdVxIuK1f+dMtkV+P867qpx1fXWadGDx5N+aERTc3cufTY7ceWzzPkWd4DXJ+FsZEcYWwkB2iOFBnc0041uHvNWGlYnbB7uMRrKzolg2HB7cBYaVidczqwawPkF47Ud2xkLlMTUwP7+gf29Wecz9iIMrBWPmMjGrzYOvGNxsHBvppFRU7mk6unFnJGnHNN3b6/33PW+ujBXelLfvdQn3PzmCMpMDYSEqA4BmMjqtT8Z2AMmiM1xsypLOU6+2BYGBtRhrERIVZWCmMjsyD8Tk09n8pOgNuB1eDaGajWc3Ix6pSi2IHj5cq9y449f7zGUZGTuWrZzLy/TXOCpm5fmTvWZ/oXjAaHn1o7fu7x5qr/6FnbA1yfhbGRHGFsJB9ojhQW7jV1wdUJu4dLvAbqwJTr7INhwe3AWGlYnfN1YBeAORKHsRE/GBtRBtbKZ2xksbywZOIbjf2H+/rLAFGRE3Q0VD61JklPqSlqaPP9B9u2JusdHogGz3WrBbdmbCQkQHEMxkZUwTkOnIDmSC0xs9dMuc4+GBbGRpSBsTPMdGDKdfbB0DA28hY1T47U26lsXnA7sBpcOwPVIk8uRp1SPDtwtFS5d9nR50f7okNDrhZ/gCaZS9tnYn+bJsbMRGVmvFJq9vo33j+Q1Q89cqhvpGPV0um3ygFtLUSTGRtJg7GR9NL1FBtxNEeKCveauuDqhN3DJV4DdWDKdfbBsOB2YKw0rM4FOrBrI9h3jjA24gdjI8rAWvmMjUh4fsn4A40DR3r7y0encD5/Y2xtSV+PE30zLeu8XJ1d+7Ku+tLk9B1Lj35ovq9lnQfGRkICFMdgbEQVzB9HNEdqhpm9Zsp19sGwMDaiDIydYaYDU66zD4aGsZG3KDeUV65dKbmxMvVwKksFtwOrwbUzUC3y5GLUKWURHXi8XLm3/eju46BRkRjbWpO+bWSW8V5vc2SvwBLdPdw/+7WsQFsL0WTGRtJgbCS9dJ3FRhzNkULCvaYuuDph93CJ10AdmHKdfTAsuB0YKw2rc4EOXLluZamM8C2Eb8PYiB+MjSgDa+UzNpLGs0vGH2wcONrbVz4yjfOZm0BD5DZlS454Fnp2n2T2wNAza8bPHm1OmcbYSEiA4hiMjagC+6OJ5khtMLPXTLnOPhgWxkaUgbEzzHRgynX2wdDkFBuJoqjcUG5obnCRmxiZmJkR7mhzMf5q+zs1RT2ViaCVLyOKlnQsaevpWLJ86eTY5Pjw6MTx8fGRsYmR8UqlIi2NYFAKXhpFzUtbmpY2Ny1pblzS3LSkyUXR5OjE5Oj45OjE5NjE5OjE5Nikq/h5XrCPHLLdfaQ8c2/7sRdHbERFTmZ5Q6Uxw//Gsdenp4YqDe2L/Md+9MXK65m/c2SW+0uD54i+llUVXJ+FsZEcYWwkZ2iOFA3uNXXB1Qm7h0u8BurAlOvsg2HB7MAoipZ1t3dt7Ope39W9sat7Q3fHqo6GpobG5oZyY7mhuaGh8YcfLpVKZXx4fHRodHRobPTY6NjQ2OjQ6MjhkYHXB/v39ffv7R89NhpS64JXNf821ipsxkaiUtTetWzF2pUrTu1cuW7lirWdTa2Nx3qPDfUePdZ77Fjv0dn/Z+L4eEiNzhU0NrKsp2PrNWf1bF3T1r2svaejrXtZuWGeA29lZmZwX3/vnoN9e97o3XOwd88bk6MT3kITrpLn6lBualh91vru01avWN89+3/NbS3JL5kanzyyf+Do/v4jBwaO7O8/8np//8tvzkxNLzS/SAblrqVj3yoPGoqKxBiYjIanXVuanTMzWRl4YPyUW1M6YV6Oj7tf+8KM1D072tt3vH3VkpmF/1FRN2OKpc3oZGykoO9sztAcqQFmTmUp19kHw8LYiDIwdoaZDky5zj4YGq/YSLmhvPnCTTvesX316au7N3Q1tTZlrBpFUUt7S0t7y4oFJhw/crx/X3//voH+vf0HXzz4+q794yedpUN80kdR1HFKx7odp0ruvRhWbV0172/uZNR5+I3Dx3qPzjvUub7rotsuEd0tC5Njk9/403uzzOzefMpFt126/Z07GlvSO+Erv/Gl3Q88G/uPUeQu/vAVy1dn+75DD159dM/L330xddrGi0477Yoz5hnwMygH9vY9+c+PCm7h3NKVbVuvPuv0d5y9Zsf6TEVLpc6NPZ0be85817nOuenJqVe/++ILDzz96iMvTk/M/7dRYa385ad2bbho6/oLT1tzzsaG5kZRnYbmxq4tq7q2rDrxXyZHJ954+rX9P3h5//dfHtzbl5IrQT3lJvysHi7P3Nt+dM9IX/TmsDMVFYlRcW7PWOm8pekZw7ED00O7Jtt3yHrDOffZL88cEMZGnHOliek72o7ddqxD+sLFoNiBjI2kwdhIeum6jI04miMFg7ERXXB1wu7hEq+BOjDlOvtgWBA6MCpFG3duOOddO3a846wly5eEKLFk+ZL1y9evP+etc+DMzMzBF9587cnX9j65d+/T+0aPHF/8rSPnnGtqbera0NW1oatrfVfX+s7ODV2d6zobW8R760Vw47+/2eflX/mtLz9zz1PzvrPt3e0Xvv9in5svxLf/4sGJt3MHc1dKVIpOu2zbRbddtuH8TdnvGS3Qyqdfs33N9nWL05mdsWOjJ5sjC8VGerau3vk+/X/Sw/sHTpgjySu63FA+84Zzz3jnOet2blroXywL5caG067eftrV2yeOj7/44K7Hv/DNY28ekd0idyu/oblx67U7tt984aozNS3LxtamDZds23DJNufc8cGhF7/+1HN3PnH0wICzHxt5eunYQ+WBod7+ks2oyFxeHI3OW5pp5uFHJlvWlhtXCL4x6oFnKv/4nUV+X8mzw323uQXMEdTNmGJpMzoZGynoO5s/NEfyxsypLOU6+2BYGBtRBsbOMNOBKdfZB0Mjjo2sWLPi8tsv2XH9jmVd7QF1zaFUKq09c83aM9dc8ZHLnXN9r/Y9+8BzT9/zdP++/uQXxv43lcqlH//DH+/a0NWer35F+vf25V90xbqVh/a8Oe/Q8tUr3vefPrT6jDX+VYJuEKFYvmZFuaE8vfAvd8yy8eKt1/6bm1as61Qs3bSkecdNF5x5w85n/vWxx77wrdEjI7P/HcrKb+tedt6HrjzjXTubli7mdyWys2Rl+87brtx525UHnnr1uTu+99rDz09PnhSrQT3lxlbKcHnm7vajLw33ld4cds4hfaG0Ly+OlpxLWSazVCYrB/9pbMVlje1npXvck9PuD78683++If6FmhNEA0PPrhk/K/VrWT1hbCRHGBtJL12vsRFHc6RIMDaiC65O2D1c4jVQB6ZcZx8MSw07sKGp4cqPXn7dT1/T0FT7z4juTd3Xbrrm2p++5sDzbzx9z9PP3P/M8MBwlheuWLti0wWCdAMgA3v78+/Ales6Z82RWOktl2299dd/tKW9NXdFmuT/bSNRqbR8XefAa70Lrejla1Ze88kbN192eiAB5Ybyzg9cdtaNF3z3L77+gy8/kv6VpXlZ+c1tred/+Kpz339pOd+fM2vP3bT23E0j/cce/Yv799z/VMXzO1znEuYz5cm2sW9H/cO9/aUjM0XyRE7wyFBpz2i0tTXT21GZrAx+a+L4K9Od1zU3tC34j/rsvsqv/PXMSwd93+L7SoNnzf1aVtTNmGJpMzoZGynoO1sTar/xrSvMnMpSrrMPhoWxEWVg7AwzHZhynX0wNILYyGkXb771l27pWq/5BFuF2TjJez797ifvevK+/3F/zCKZ+7+pE+9/goihvmMToxM1MEdOnfPvFkVX//R1V/wF+TJ5AAAgAElEQVTkNVol6ic2MsvK9V0Dr/XO/e+NLU0X/dhVF95+Rbkx+GassbXp6l+4cd3OTff93j+PD4X8CuSTWeAzpVQunfP+Sy/86DXNbTXz2pZ2LXvHL33gnA9c/sj/vmf/D14+eQjnjBFFbqhh5p62Iy8N95cOFi0qEmO64n7/QOOfbJloyPxvOrZ/+uAXR1tOLY+tLB3saNh+atTW4gaG3K69lWdfr+zaV3nouUpaZisTh3v7RttXtSZ8LasnjI3kCGMj6aXrODbiaI4UBsZGdMHVifqkgrERXWrSgcu62m/6d+855107lO4XhKgUnXfzeduv2/7g5x985B8enZ5cYOcbua71tfxLvf701yI24pxbua7TVTfVVT91raIzUkNq9UdqVm7onruiN1689fp/f2t7Ty5f9Pg2my8/48f+7BN3fuZLh3bvn39GeCu/Y83K63/5R1dtD/51yFno2rLqls/+xKvfef6bf/AvY0c9vt7oBHqfKUMNM19oe/Pom72lw8WMisxl73j0l70NP3PK/N8iPC8zE5Whl6Y+/UrTy2PTpch1LHVHRnz/oPNcZr+W9YMnfy0r6mZMsbQZnYyNFPSdrRU0R/LDzKks5Tr7YFgYG1EGxs4w04Ep19kHQ5MeGymVS5fddsn1P39d85LAv1atRPOS5nd/6t3OuYf/9jtugX/erg3WzZEafOGIm5McOfs9O6/8qWsV719vsRHnXOeG+B+N3vm+S6791E0+37q6aNpPWf6j/+2nvvLLf/XGM3vDVpr7mRJF2288/8pP3JjlLxzlyabLz+w5fd3XP/uPbzz9KsgZ45sdw48c3lvaP14ntsgJ/mmgfHrrzJXLsn556nTF/Y83G14ei5xzMxV3ONPvXC6GZ0f6PrjQ17J6wthIjjA2kl66vmMjrtABvTqCsRFdcHWiPqlgbESXnDuwdVnrz/7pT978i++x4oyc4PDBBf4GR+ScM58cGdib9AW04fpz5amdJ25+6rkbbvrlW4OVypVaxUaccyvX/9AciUqlaz9543WfvrkmzsgsDc2N7/3dj68+a87fCQ5p5ZfKpet/+QPX/eJ70ZyRWZZ2tt/6ez950Y+/Y96/vZ0Vjc+Uow0zf7Ts9ccOvFg66S+a1w8zFfc7rzd+7kDDSIZfh3ltLPr0K01fG8zlTxj3Dz3X+taf8YLdjCmWNqOTsZGCvrM1hOZITpg5laVcZx8MC2MjysDYGWY6MOU6+2BoUmIjy1ct//n//TMbd27IT5Eeg/sH3cL/vJ1zvzvDFMnmSDhaO5a0Lmt1zjU0N97yq+8vNWgePOowNuKcW7m+a9YKaWxtuvW3PnLej15Wa0WusbXpvZ/9+ClnBPs7ytVvdLmhfMOv3nb6O88NVU6FKLrgo9de/2sfyvgVMIF6+c9bXh97ozapMRAqzn39SPnnXm56fHjBQ8pMxf1dX/nfvNI0mxnJh/vKA/o3ZWwkRxgbSS9d97ERx1+rKQCMjeiCqxP1SQVjI7rk2YGrt636yf/+Mbt/6XbWHIkTOedc89Lmts62nPXokvCni0P354p1naPP7b/8Y1ctX7MicKmcqGFsxDnX0NzY3tMxMzX93v/8sZ6tc/7mRY1oWtJ8y2c+8rc/96dv/YnfYFZ+ubHhPf/PhzZdfoZUYU3YdMX2d//mR+79zN9PjU/KXqnxmXLH8qNT+wOcwA0yMBn9+t7GFQ2Vra2VbS2V01pnTmmsvDpW2jMWvTgavTJWGs36mzdqDPb2j7WtaqlUvZk4mzHF0mZ0MjZS0He2ttAcyQMzp7KU6+yDYWFsRBkYO8NMB6ZcZx8MTVJsZMWaFT/9Rz+xdPmSXBXpMTwwnPDHXKz/Ts34yPhQ37FaVV+5rnNkcPjSj16pe9v6jI3Msu26Hee9/9K27mW1FlLF0s72G37lA//6H/9G+c/ZnvRGl5sabvqND2+4eJvm/QNz6oVbb/rPP373r//NxMK/2BKil99snnqmd28uvyJihsNT0WND0WNDzrna/8OUxqfuWjX0/iG9VczYSI4wNpJemrER5xx/rcY6jI3ogquTsRE/rNgZuXVg89LmH/+vP2bXGXHODSwcG3H2zZGB2sVGnHMrT+08/wMXlxtrfxpRovab4Kt+7gY0Z2SWDRdtPf/2KwNZ+Q3Njbd85qO2nJFZVu/YcMP/+2HB75RpfKZ8selAeULwh1pI/jwzUvUbTzibMcXSZnQyNlLQd7bm0BwJjplTWcp19sGwMDaiDIydYaYDU66zD4ZmwdhIqVz6yG/fdsrmnrwVqTK4fyDhn7dzg/EvHFnYHMmBnq2rdv7IBbr3rOfYCDiX/8w7V875ezqL5+03urGl6Zbf/tipF2xRu3O+rD1vy2U//555h0L0csW50cGjAW5MNKn0H9vdMpE+LwuMjeQIYyPppRkbeRuaI4ZhbEQXXJ2Mjfhhxc7IrQOv/viV2y7f6nEDCOb5wpGT/lGsfxtr/wLfxppPf2694vSWtpZcSpHaE5VKV33ixhM/gFSs/FJD+Zbf+di6nZs8tdWWHbdesv3mi9LnaXymvNI6UR5nbMQA95bf+ujB2Ywpljajk7GRgr6zCNAcCYuZU1nKdfbBsDA2ogyMnWGmA1Ousw+GZsHYyPJVHdf99NV5ywnA/N/G+jZdG2z/Wk3/a4X6cxWMjYCz4cLTNl6sYZi+/UZf8OGr1p6zUeGGteaKT97cvW3tyf8lUC8/23I8zI2JMgO9fWMl79wBYyM5wthIemnGRk6C5ohVGBvRBVcnYyN+WLEzcuvAGz/97sbmRo8boDB4oNocOekfJYqiznW2kyPz/loNzrIixePqT9xYaiirWPldm1dd9LFr/SUhUCqXrviFm5J+QCt9phyYoTlig9L41N1Lh3A2Y4qlzehkbKSg7ywINEcCYuZUlnKdfTAsjI0oA2NnmOnAlOvsg6FZMDay5cJNZ7/zrLzlhOHw/sMLDS3rWdbYYtgAmpmeSc7FkBBY3MMpsnxd56ZL/L45NXLOuVJD+fr/8IFSuTjby1POPHXrdWfP/v/hmqQhKs6/WOF55rjfd0IxNpIjjI2kl2ZspBr+LDYJYyO64OpkbMQPK3ZGbh141ceU/zhrrTh+9Pjo0OgPr6v/UbqN/07NkTcOz0xNx/4jzrIiReWsG89PGM3YgRd+5OquLatU9OBwyc++u7G1aZ4Bvc+U1VGrSBKpITN9R1/M/LWsQE909CbrAhTHYGxEFaP7FpojoTBzKku5zj4YFsZGlIGxM8x0YMp19sHQLBgbWdbVvvUSq385IkZysML8t7EW6wtHTMBvRXHObbhk29LO9kW+OHLOua4tqy786DWKkkBY2tm+8/argvbIlkl+BbIl7ikvGF1MoQ5jI7WDsZH00oyNzIHmiD0YG9EFVydjI35YsTNy68Bz33NOVMJ5f7yoMkfmdGDnetvJkf45XzhSkLeNYBNF0Zk3nDf/UIaXlxvK7/oPP1qkX6g5mXM/eMWy1Suq/pPqZ8rW0aZKUX4+1wN9fb3jGb6WFeiJjt5kMVbiGFZ0Bpusi90fZ8X8DKs5Zk5lKdfZB8PC2IgyMHaGmQ5Muc4+GJoFYyNRFF1wy/zHHosU+0/VDCzwd3x/iN1Nx0ng/I9gbOQE299z/mL+OSLnnLvwo9d0bj5FXRII5caGS/6vdwe6eRS5xpnIrWwLdH+iTmls6u6lQ+KXMTaSI4yNpJdmbGQ+aI4Yg7ERXXB1MjbihxU7I7cOXL6qo2dTt8cNsPihOTJfB3auN/5rNXurfq0GZ1mRwtOxduXaszfE/mOWDlxxatcFH8npb4TPTM8c2T+w99EXdt/zg94XDkxPTOVTd9MV29fs3PzWRYDPlNNbi/Mjuh54ajTFxQZ6oqM3WYyVOIYVncEm62J639JQawEFxMypLOU6+2BYGBtRBsbOMNOBKdfZB0OzYGzEObfqtEI90R3YP7DQUENTQ8cpHXmKUac/OTlietPxNjj/IxgbibH9xgsOPP2a4AWRc86d875LcviFmuODw0/83Tefv/OJ6ckfGiKlcmnFhu7zPnTV1necE1rAzg9d+caTr+je80QH3jDU8XxTuTwR/zJmgslM79GXVk+eNp75L6MxNpIjjI2kl2ZsZAFojliCsRFdcHUyNuKHFTsjzw7M0xwZOTzy0qMvHX7jyMz0zOz/RVG0ct3Knk3d3Zu6W9oUvnfwreTIvLGRUzsjy+fd4cHh8eGxE5eG/5cQm5x29fZv/vEdEyNvNWGWDmxa0nzGu4L/1t4zX3nkkc/fNzU+GfvvM9MzA68cuv+z//jyQ89e829vbV2+NJyGtedtbl2+dPToSMKcRa/ZJdNRR0/38P43F3sDkjd3NQ5+anz+z1agJzp6k8VYiWNY0Rlssi7W9y00R5QxcypLuc4+GBbGRpSBsTPMdGDKdfbB0CTFRpxzp2zJwxz5/td+8MiXHn3zpTcrM/M/pYlKUVtnW8+m7p7NPZvO37Tlos1N8/6BzETGhsdGj44uNGr9d2pSvnDE+qbDOYf0PwLNRju8f2Df916qVCoty5a0tLcuWb60Z+vqnFU2NDduvGTbi994OtPsyDnnTr9+5/x/6VaPJ//x4e/+r3uS57z68PO9u/d/8E8+sSTYl3dEpdLmq3c8+9VH1W5Y/d5eM9V5h6M5Yobe3r6JpT1NlQwrlLGRHGFsJL00YyMLQ3PEDIyN6IKrk7ERP6zYGTl3YOjkyPjx8X/4jX964aEXkqdVKpWh/qGh/qGXH3/lu198pLGxYeP5G7Zdvm3bFdtWrl2Zsdbg/sFKpbJQB85Mzez+1u4s91l31tq2Rf/h0mzse3Lv6NCCPs68vPr4yyf+f5xlRYLyxjN7X3ro+VceeeHIid8Xe/u979zYc8nHr9127Y489azavm7WHMnUgVF0znsvDqrnubueSHVGZhkZGLrvd//h1v/yE1Ep1O/4bLn27ARzxHPNnjXS/LWV7dGg/Js+SS0oj03efcrQrUPLYv8d6ImO3mQxVuIYVnQGm6xLAfYtNEc0MXMqS7nOPhgWxkaUgbEzzHRgynX2wdCkxEacc63LWoMq+Orn7tj90AuixwuRc1OTUy89+vJLj7581x/c3Xlq57Yrtm27fNvG8zYkf3lB8p+q2f3Q7t0PpZgjs0Ju/90Pn3HNmckzPfnGn93/+jP7UpVkpQCbDqT/EQixkf5XDj30P+/Z+72Xqv7rScIGXuu967e+9MYze6/55I3hDvwxVm8/NdO8yDnn1p27acX6gN8kenxw+Dt/dnf2+W889er3/uqBi37ynYH0rDprfVvP8uHeI/63mrcDt7V17aE5YocnRwdudXFzJA5jIznC2Eh6acZGEqE5YgPGRnTB1cnYiB9W7Iz8OzDoOfD1XfufuvtpnwqVSqV/X3//vv7v/N13lq5YuvOmnRfcen7X+vn/Iu/ggUHYlSLCyl6ThGBkYOi7/+cbz975/Uolfe/+1FcenTg+fsMvfyAHYc65ri2rG5obp+d8u8e8nPO+S4KK+e7n7508Pp59fuTcD7740PZbLlralXZkXSynXXv2k196aN7S/txwrGN3Y7k8ya9ltcF075FXVk9uPulrWYGe6OhNFmMljmFFZ7DJuhRj38I/5auGmVNZynX2wbAwNqIMjJ1hpgNTrrMPhiY9NhKaZx94Lv2Al7kDRw6PPPyFh//ow3/8+f/780/e+eTknBNacnKksBRi04HzP6K2sZEXH9z1lz/x/+2644l5Fs4CK+X5e5989q7v56DNOVcql7pPW50yKXLOufaejk2XnxFOyeHX+1+4/ynpq2amZ575yiMh9Myy5dqz/W+yUAcunS519PBv+pohcu7OxsMpMxa8Sr/54l8shbGRHGFsBBmaIwZgbEQXXJ2oD8MZG9GlNh0Y8iw41D+kfvdKpbL3qX1f/q1//twtv/+1z33t4IsHTwzFzBGclSLCyl6T6DI9OfXAH37tzs98aUKShpjlwT+6Y2Qgp1+4WH1Wpt+sOeuWi4L+cahXH34+ypCsOcEPvaQ7vzc1NhFCknOuc/Oqub9JpPivcNV01i9gUqFjiTtjXXTa6qizHeJ3zcxxqK93MnqrS4Ge6OhNFmMljmFFZ7DJuhTmhwd/rUYHM6eylOvsg2FhbEQZGDvDTAemXGcfDE3W2EiNP7Q8OnB8eOzxLz/++JcfX3366gtuveCcd59Tj8kRC5uOmanpkcMjxw+POOcaWhobmxsbmhsaWxobm98KnOP8j6jVCXCo9+hXf/1ve/ccXHBG4kqZGp984ksPX/2J94TQFmPVmYnmSOScc+WG8lk3XRBUxmuPZPpy5bmMD4+98u3nt11/rq6eE2y+escTf/PAol+e3IFnj7TcsbKtNDi86PtnoVxyZ66LztscLVvyQ12HjrhvPTvTezRo5aJRHp28u+vYj4x0zDPG2EiOMDaSXpqxkQzQHEGHsRFdcHUyNuKHFTujVh04OT6ld7M426898+l7sv3hTw8OvnDwa5/72j1/fM/USf9bcFaKCCt7zQQmRicOPLNv31N7Dz63f6jv2MjhkbHhsWjezWgUNFtgiTd27UtyRjLwzFcfv+gjV7UuX6olaSFWbT/VRZFLTG30nL62tSOgktEjI73P788+P9Zlvbv3hzNHuretTSjtz9al3S8HM0cay27HhmjnpmhJc3zolOXug5eX/vmRmYOJvylCYjxxvPdHXAfQEx29yWKsxDGs6Aw2WZcifcjTHFHAzKks5fr/Z++94ySpznvvU9V58uzM7myOgAi7wAIiJwkkUAZLspItyegKZDko2lfvte/r8N7r15bkIFuWlS0J60oYsBBCIDISIuwiFliWhc07myfHzt1V949ZhqmanjpVXed0/57u5/vRRx/OnOp6ftv1nD7nPP3rKv+demHbiGJgyhlkMlDS9t+pmwB3G5kYmOhaWul7LRWcfsXrlp669MSeE5W7lRb+ijlfN4lsKJAWHfl0/sX7nnvpge0De45bZWtu14IZaM9/8nI9qWOlxvsxTH5GSilf3PXIi+f+1sUKVVWktae9rbdjeqiSheBVZcs2rtaqoX/Lbj93q12Iwd1HFYpx0bN+adWv9ZOB1011fjVqmiVLfmgQknFxzlpj0xojEVvwGMMQ1202f/y41YSftVVTHhw/sLywvhh3/JVtIzWEbSPy0Gwb8QcXR6Bh24hacHWybSQcVMoZdczAiQGNPulINPI7X/7gNz72ralhzTdEQB0pgaCy1nQxNTT55K2/eumB7VXcLIOZwYxGwp/k6PaDNSiOCCH6Tl9RuTjyKsvO1FscOfhUlb+pmWF433GrVFbyns+ntbcj0Z7KT2WFnjHbVjbb+nozRweVnTApNq83zlplRHy8H61JsXm98dQuWwjDTHVFu1ZFOlcacb3Pg6eNLe5uSZ1t+TJSGUIsyk70TY8sTo9FLQWPJQKaCqnYMajo1HawWmDXLdXBxZGwkNmVSdr+O/XCthHFwJQzyGSgpO2/UzcBbCOGEOM6iyNCiM6+zpu//d9u+x//eWSn89vahihn1BOMd+G5u5557BsP5tMLlkUaspSvHDO6sHPE90g5uv2gsO0a/Es6lnZX+OtsWMNY6u+mrdVRLpSObNvn//j5H91WqTyy/4Tr9y8K6Vm39Nj2A0Ff5f+6XWH13i8UFEe6WsX5G4zTVhhmkJRZu3bJS11vNbvWGXHtv+FqGIL+uNSw7d7M+FmD+849vmvubxLZNhIUto3IQ7NtxDf8tBpcGnKtCVx2cR6sTYY0GM7ukW0jaqlvBk4MTKo+pZuupV0f/9Z/u/r3roqn4vKjqwB1pASCylpzlnKxdOf/83/u/4d7PCojjE8iKlwM2YnMSP9Q+PNIae1t9+jtWrFI6w1HTuw8VAz9uBmtv6xZtH6p0Dlmz5lOWt1tYc7Q1Squ32x86Crz9JUBKiO2MF4xrngw/tnIko1cGdGKbRhDrd2Prbvgjo3XTiSrvNZAUyEVOwbqKtEF0JVFDa0JLo6EgsyuTNL236kXto0oBqacQSYDJW3/nboJZhsRQkycGNco51XMiHnNLW/87E8+fdkHL40lY41Rzqgn9X4XbMu+/b//cM8Tu7wPI7PWrLeUBe85EnCkHH3hoAo5Etp6592laI4y3b+pmQzykbXQR/fQLqzbjgQtkZ/a3hs0xCynLTfed7m5YVmwpE+LrofNT2wz31lma3kNOdLRd+s5b9/Rd4pg20hw6mgboWLHoKITBC6OgNKQa03gsovzYG0ypMFwdo9sG1FL3TNwYlC7c2SW1q7W6//4us/+16cvfd8lMY/7/gUCdaQEgspac5bt9247+Jv99VbROKi6/8WR7QeVnMebtsUdHr2678Y6Paignju8L9SzgbzpWb9U95i9bqrL8vgp1sKs7jXedK4RNN1sYf7a/PCgsb6KiExIipHogxsu7u9aFuhVQFMh20aUAnRlUUPrg4sj1UNmVyZp++/UC9tGFANTziCTgZK2/07dBLaNCP33HJlP26K2t3z6+s/c8amrPnplW08blZkeCIAMfPw7j0qPIbPWBJBS+Z4jwT+ra+QccRVHnMqWnaW5OOJ5L9i5eHx0F7Nhf5jjQfeaxZLHDzmpokTeXjLblgQ2j5iGuOKsatJ9p3H1iKHxPjKMlAdPuSQfmfONAttGZLBtRB6aiE4cuDiCSEOuNYHLLs6DtcmQBsPZPbJtRC0IGZidyBbzdXgwY3tv+7W3XPMnP/3c+/73+9ZfsD7YLQFnQR0pgaCy1pzL9Ijmxw81GYaiCk1mbHrsyIiSU3nQ2tNumJVXicn2VPfqxVqjTw8pMLu5njatlkgs2rmiR9/5Z7jcDlwc6ekQXcFvFTJuLHvRfHPglzFKmYq3PLbuAp8HA02FbBtRCtCVRQ2tFS6OVAmZXZmk7b9TL2wbUQxMOYNMBkra/jt1U41tRAhh23YN7sm6EGbEPOuNZ370Xz7yxz/+o8s+eGlLZ4vHwY063QYDNwMdkFlr4khxUe1n9fC+E6qluDFMs2V2k+1UtvRM7f4Cnz+r8f7otnUWR4QQqUVe96ydS9Ul8s3TSStgqaO7tZp0/41xgyW0PPaYCcRLSzYca18sBNtG5LBtRB6aiE4ouDgCR0OuNYHLLs6DtcmQBsOpE7NtRC04GXhi74DO0/uiZ1XPdX903ed/9rnf+p83rjhjua/XoI6UQFBZazJUyE/nahCldYHbjiw9faXu0PjOESFEvCWh9fwzbGgPZtKpYoNYFtFhY03w1zFaONLZJz0GaCpk24hSgK4samjdcHGkGsjsyiRt/516YduIYmDKGWQyUNL236mbKm0jM+x+co9iOdUSjUXPfeu5t3z3lpu//fFz3nJONPbaYxEaeLoNAG4GOmjItWZNCfFZXZjOKpVSmZO3HZmns6XHr2OiOnITmZKPnwFKS/lWqaxQ1Xxi/oojIUvk100Huy3r0ZHA5ZFxYxnbRnAYaF3EthEpbBuRhyaiEw1+UhcWZNaaMF+GS0LD6kT9MpxtI2qBysA9T6EUR2ZZedbKlWetvP6Pr3v2p88+85PfTMy/ayzqSAkElbUmQ4h8Ol+DKG29lZ0jyfaU1riFTH752Wulh0kngmg8alvWQndOCU9tnCOdJbOlrzd3dNDn8Zm8GJoQi+c9iNmDUaHdCsT450Sb5F42QFMh20aUAnRlUUPXAC6OBIbMrkzS9t+pF7aNKAamnEEmAyVt/526CWUbEUJMDk8d23V8+euCPSmwBrR2tV75kSuv+N0rXnzoxUe/+ejo0dFaRIWd23Ez0AGVtSYu4Qp/tflZTTQZr6gzobk40rGs+11fvklrCCX4cY4oKZFfZvc8LPwWR4QQ2/bb120OEHiUH1KDxFSiNRNLthT1jHG2jYQMTcSOQUUnIPyzGiCorDWhvgz3Cg2rE/XLcLaNqAUwA3c8/FJN4lSDYRpnv/nsP7rtj97+p29v720XAnekBILKWpOhRb4mP6uJxCr/1CLZ7nVP5eahNs4RIcT5UymrK8B7vu+EPZEOcP6caAusidFJJpZcqAtoKmTbiFKArixq6NrAxZFgkNmVSdr+O/XCthHFwJQzyGSgpO2/UzdhbSMzPH371sx4Ro0iPZgR8/U3vv5Td3zqTZ98U0rft9OwcztuBjqgstbEJXThL5+uiXMk7vAXz+rU7RyhQrx1wR3sDKpK5IYQ6zuW+D+VbYtn99Xuu3SGDGwbCRmaiB2Dik5MuDiCApW1JuCX4ZVDw+pE/TKcbSNqwczAfCb/yx88Xqto1RNLxC7/3cs/feenr/zIlfFUXCCNlEBQWWsy5KjNz2oi8co/vk52cHFECN83ZFXC9dNdViTAon33MbsmBTSmpgBNhWwbUQrQlUUNXTO4OBIAMrsySdt/p17YNqIYmHIGmQyUtP136kaNbWSGLXc8Mzk8FVZRTUi2Ja+55ZpP3vrJpacsVXle2LkdNwMdUFlrBoJcibxQc+fIbOhIPBpNxGoQHR/vn9UoLJEbhugqmS19kvt0zqVsiecOsHmEmQPbRkKGJmLHoKITFr4hKwRU1pqYX4ZXCA2rk20j4aBSzsDNQCGK+eLPvvTzD/3d+2sbtnq6l3d//Nsfv+eLP3v+3uf9HI+Trt5Q0clgUivnSIUiiO5H1RAilorXMtylovcRMeT/+JcO2RdsMJI+NB5+7ldjI3dVr4xRzUTX+t55f8RZNLJtRC1AVxY1dC3h4ohfyOzKJG3/nXph24hiYMoZZDJQ0vbfqRuVtpEZdj728gNfe+jNn7y2elG1JRqP3vDnN67cuOoX/3hfqVgKdS7YuR03Ax1QWWsGgmKJvMY/q5kbmm848hoLjwcdJfLXT6ce6mwxJ/zeN6pUFo+8aL/1fK/Tj06JZ/fZY8NDheF9Pk/L1IBix2rFZ2TbSMjQROwYVHQiwz+rqT9U1prIX4Y7QsPqZNtIOKiUM3AzcA6/+qUyjvoAACAASURBVMGvn717W52CV8kFN1xw0zc+1rW0y+MYnHT1hopOrWj9wrDhKWYLVtnSHaXi02r4UTU1ZnakGEKs61gc6LUHBuxn9lTeQJ4YEz//jf3jX1u7j/GvbwiAs2hk24hagK4saugaw8URX5DZlUna/jv1wrYRxcCUM8hkoKTtv1M36m0jJ89r23d/6Z59z+yvRlT9WH768lu+94kNF26o8vWwcztuBjqgstYMBNAHUZCDDcMwTe3aZ+454grDd2OVoq9Efn26y4oEu+5b99h3PGkdHrbzRSGESOfE7mP2XVvsO5+yDg7aNhdGmgG2jYQMTcSOQUUnOPyzmjpDZa1J4stwgayTbSPhoFLOwM1AV2hDlIvlWz/3w7d//q0XvPP8+gkJTKoj9cEvfegHn/p+//P9ri6cdPWGik6tsG0kJPG2ZA3exIpPq4m31u4RLYzrIneXzFRfb/5YgDuPCCEGxsXdW20h7HhUFML9MJGpCziLRraNqAXoyqKGrj3sHJFDZlcmafvv1AvbRhQDU84gk4GStv9O3eiyjcxSKpTu+pu77/qbu8vFclUnqA+RWOT9f/eB3tXzb1fnCcxIcYObgQ6orDUDAfRBFPDgRGtSmRQP7AqhS3neXnuhu0R+qRHgmTUuuDLSjLBtJGRoInYMKl/O4cPFkXpCZa1JZbzh6mTbSDiolDNwM9AV2hn7N3c/+81bvjMxMFEnOdWQak996B9+p6XrtXsf4KSrN1R0aoVtI+FJtNWiOJKbys7/Y22eIsyICiPFFkJcOJUq8y+bmgmcRSPbRtQCdGU9g+G8Y7WBiyMSyOzKJG3/nXph24hiYD6/yGSgpO2/UzfabSNzObrz6L9+5OvP/+KF0GeqHd3Lu9/0B2/2ezTMSHGDm4EOqKw1AwH0QRT84NoURyrWQfLpfA1CE6UGJXJDiLVdS6p6KdN8sG0kZGi2jTQfXBypG1TWmlTGG65Oto2Eg0o5AzcDXaEXiJ0Zz9zxl//19Zu+eejFw7VVVD2b37Z51aZVAildvaGiUytsG1FCbYojFR8YzM6R2lDRNjLD9elOS//teBkEcBaNbBtRC9CV9QyG847VDC6OeEFmVyZp++/UC9tGFAPz+UUmAyVt/526qaltZC5Hdh791s3fue3Pbx8/Ma70xLp42+ffbkZkExnMSHGDm4EOqKw1AwH0QVTVwTVyjlQsjmTYOVKZmpXIe4qRVF/1dx5hmgW2jYQMzbaRpoSLI/WBylqTynjD1cm2kXBQKWfgZqArtI/Ytm2/+NCOr7zvqw99/WF8//zSU5ee+YYz663CFzjDqo6wbUQV8ZrckJWdI/XCwzYyw8UmF0caH5xFI9tG1AJ0ZT2D4bxjtYSLIwtCZlcmafvv1AvbRhQD8/lFJgMlbf+duqmbbWQuxXzxl9/71Zfe+ff3/uN9Y8fGtMVRwPnejyKGGSlucDPQAZW1ZiCAPoiqPbhGP6tJV7ghazFXtC2rBtFpUeMS+cVTLXxbVsYLto2EDM22kWaFiyN1gMpak8p4w9XJtpFwUCln4GagK3Rwnfl0/qnbnv6n9/zzj77w4/4XDunRFZZ1F6zvXrGo3iok4AyrOsK2EYXU8Z4jwrb5lzVakdpGhBCGEGu6FtdEDlMfcBaNbBtRC9CV9QyG847VGC6OVIbMrkzS9t+pF7aNKAbm84tMBkra/jt1A2EbcWFZ1s7HXv72Ld/5+k3f3P7Aixbel8bnvfO8yh0wI8UNxpWVApKBaqEi21tnoq0WroGK9xwRQhTgf3BXY+pSIr8+3WXzbVmZirBtJGRoto00MdF6C2g6qKw1qYw3XJ2ouzK2jagFNwNdoVXoPLrz6O3/7x33f/WBC244/9zrz+le3q1CmgI2Xrvp4X97qN4qFgRnWNURto2opbWnvQZR8gvcXiSfztUifFPixzYyQ28xkuhbVDg+Ej7oRZdctrjjmvDnYVTRsWNQTE35PJhtI9KT48w/bBvBh4sjFSCzK5O0/XfqhW0j4YRIujkDpVDRiWkbmc/k0OQj33r00W8/tmrTqs1vOWfjtRuTNXH4e9C1rKtrWdf4cecTdmBGihvUKxsIKjpdUJEtmYAMY+kZK2sgY6F7r9bgnqy3fvDL7ighRnSFg1UMQ7tsi7qWyC82e38lFBRHPvTOay4+le/wCsR9//sn/osjbtg2EjI020aaGy6O1BTY3Y4LKuMNVyfqroxtI2rBzUBXaA06bds+tP3Qoe2H7v3H+153+WnnvnXzaZecatTP4732vHXP//y5ekX3AGdY1RG2jailZ0NfvCWhO0oxV0iPTFfsyk1WuFGrWpKdLenhScefFBZHyMwpXhtCQ4hLp1oea0+aU/z8oOaFbSPSk+PMP2wbIQHfc8QNmRlU0vbfqRe2jYQTIunmDJRCRScV28j8DCwVSi89svOHn//hP733K0//59OFbKEuutaet9atbMFWXYG9skGgotMFFdlSncvPWl0DGUN7ji/0VJrRAwO6o3csdf5qT61tRB31LZEbQqzi27Iyc2HbSMjQbBtpetg5UjtwdztOqIw3XJ2ouzK2jagFNwNdoWulc+zY2L3/eN+j337sghvOv/i3L27vrelNCdZuXlvLcIx/qNhGqOgUhli+cU0N4gztObZQ1+DCXaroWKbtEVRk5hSJbWSGt2S6v2UeMSydu0crL+yysrOZcWEE3H1YRWEXlQkwYsKMKTtbXWHbiPTkOJ/rOCVd72A471i94OKIAzK7Mknbf6de2DYSToikmzNQChWddG0j88lOZR+/9ddP/vipjdduvPxDl/Vt6KuJMtG5tCsaj5YKpfnKgGZ62CsbBCo6XVCR7Ufnso01cY7sXrACMrTnuO7o7Uu7XmuwbWRhFhcj8b5FRRW3ZZ2PPfqMtfeb1okHhK3uIWXxLnP1+yIbbhbJJXIB0/usvd+wjvxElNX9dMhMmCvfZZ7yCaP9VF/H21Z6z87U6g1m0v2IqHImnTvW37rhjPmpkDt60Ey2xHvc/0bbstK7d7RuON2Ixav9BywM20ZChmbbCMPFkZqBu9txQmW84epE3ZWxbUQtuBnoCl0nneVi+YX7XnjxgRevvumqqz56VW3uRdK5tHPkkJYdQtXEkg3y/WTVULFjUNEpDNG+uLN9SWcNQg3uPrpQ1/TwZG4ik+xs0Re9c7me+4OSmVN82UZmuDDS84SK27K6sfKlLR8ThTHFpy2MW3u/IQrjkc1flh5bfu5P7NFnFAuw8tah/7QnXo5e/XPpNZ98Yeuhb3wxf/xwpKVt6Y2/u/Q9H53tOnrr1wbv/U8rl02t3rD697/QdvrZM38vjgwd+MpfTL34rGGaXRddtfYzf22+WgcZe/KRI9/7SmHoRLSje/kHPr74+neH+XewbUR6cpzPdZySrncwnHesjvA9R16DzK5M0vbfqRe2jYQTIunmDJRCRWcj2UZcWGXrkW89+u9/8O9Tw9XedT8IXTNfNcOMFCGE4zk+sFc2CFR0uqAiG8c2UswWxo8suN82bFv3L2uWn7325E1n2TYi4/Kp1rKGR4ZZx+5TXxmZPfmRu0RRMi/Yk7vUV0ZmTz7xoj3+ouwg++it/5o/flgIUc5MH/vRNwojgzM9ucMHTvzX961cVgiRPbTv+I+/Nfuiwftun3rxWSGEbVljTz069sTDJ09mWTOVESFEaXLsyPf/pZxJq/wnsW0kZGi2jTBCCC6O1Abc3Y4TKuMNVyfSrmwubBtRC24GukJj6Dz4fP+tn761mFP3i/EF6Jzrw8cg2a7lIcc4Y9YbKnYMKjpnLvzyTTW54cje47bttS0Z1lwcicSj6684U/FJycwpAWwjQgjTFqsWqb8tq9Gi8XHRRqJXRCXOIyO5WJgafnty8uxRI7nU+5D84PHMvldmm7ZljW/55cx/jz31yNwjJ1/YWp4+WesZe/LhuV2zzczenTOVkRmsXHby+aerVc+2EfnJcT7XcUq63sFw3rH6wsWRk5DZlUna/jv1wraRcEIk3ZyBUqjobGDbyNyDB/YN3PW/7lIqqAKdSztxRsoMidmvc2GvbBCo6CSKn7c30Z46/dpztEvxvBvrjM4a3JP11GvPZduIT67PdNuqf71oLDrf6Nqk9pyzmOs+IoyI5KD4InPljboErHi79KYniSXLkivWzv1L5+ZLTv7HeZfO/Xvb6WdH2tpf7brM8ZLzTx7Zsv510c7XnsFkxOLtG8+vRnpF2DYSMjTbRphX4XuOaAd3t+OEynjD1Qm2K5uFbSNqwc1AV+hKsWOJWLlUtsruW+vVQOeOh3ec85ZzTrvsNH0hzAhcuV/H/Whxxqw3VOwYVHTOXPjz3nPpyR+baMbjhiMzDOu/J+uKc9a1LemcHpxQczoyc0ow28gMfYVIrG9RSfFtWY3oFXdZx+6zj95tW8qe0W4k+8y1HzK6z/VzcOTcL5or3mkdus0uTioTEGs3V73HWHK1j0ON5R+8+dC//W1petKIRBZf91uJZSfdNC2nnNFz9VtGfnm/sK1Y16Jlv33T7IuWvO29k88/nTvaL4RoPW3joiuvP3myaGz5B245+v1/LmczRiy+7N0fiXZU6XZk24j05Dif6zglXe9gOO9Y3eHiiBCEdmWStv9OvbBtJJwQSTdnoBQqOmtvG1m7ec21N7/xzv/vJ4MHhgK8TNGXt3ue2qO1OOIRul6sPnetEMgZGAAqOoni5+1NtqfOufFi7VKEEAs/qmZW5+TAeH46m2hzP79DLee9/8pf/fPPXKH90FS2kRkujPQ8qfy2rGbcXPkusfJdik/rH8M0llwZWXJlveJ3X3pN5wWXT257svW0TbFFvXO71n7qL5d/8BOZ/bs6z7/UiL527+3EslVn/cttUzuejbS2t6x/3dyXLL7uxkVXXjf53NPtG8+rujJSAbaNhAzNthFmDnDfszUYZOqaRMYbrk6Y+oULto2oBTcDXaEXiL1k3ZIVZ674gx/8/lUfuSKWOLmYq5nOvVv21iqUL2qw8uro61R7JxScMesNFTsGFZ0zF37zey+rjW1kamDc426sJ7HtGjzQ98y3vX716/09b9UbMnNKNbaRGa7Qc1tWxownui5+g6syMkN88dKui66aWxk5iWG0b7rAVRmZIZJq6b70jWEqI2wbkZ4c53Mdp6TrHQznHUOAiyN0dmWStv9OvbBtJJwQSTdnoBQqOutyt5HF63qFEJFY5E2/f+3nf/qZN9x0VYv0YZyKbCNCiMx4JsirQ+FHZzGT165DiPNvfL1HL5UVCRWdRPFlG+loOeeGi7RLEUII8cqDz1e8G6tL57HtB2sg5urP3ZjsaKnvHiPZ0XLBR66ZscnAlshNW6zQcFtWBh22jYQMzbYRxgkXRzRCpq5JZLzh6oSpX7hg24hacDPQFXrh2IvXvrZ0bu1qvebmN/7J3Z99++ff1r2ie8HXqKN3bYVv3hTi/XCN+WQns5qUzOXC3764a5matxdnzHpDxY5BRefMhb/ow1fXxjYihNj14PO+DnvI12Ehaeluu/qzN5hR2c07PQgxp7Qv7b7klrd84NbPbf7AVZ0re6rXUDG0OtvIDNdnumwqWc1UBdtGpCfHGQFsGyFKsxdHyOzKJG3/nXph20g4IZJuzkApVHTWxTZiGMaSde7vFWOJ2EXvufAzd3zq97760fPecZ770bPqbCPCWZrRweTA5EKhK5KdqkVxJBKLvvPPbky2V7g1A5UVCRWdRPHz9l704Tecc0ON7jZyfEf/xLHR+X+fr3NqYPzIc/trIGntJae//W8/kpTa3IQQitI13po8/frz3/Hlj73/e5/ZeOMl0URMCNG5oge8RL6sEI31Lap5WKZ+sG0kZGi2jTDz4Buy6oJMXZPIeMPVCVO/cMG2EbXgZqAr9MKxW7tbU5W26EIIwzDWX7Bu/QXr3vGnb9v9xJ4XfvHC7if3lAolpcrEqk2rVJ5wHqNHK+zoPMhM1KI4IoRYdc6am7558+1/9qOh/YPeR0ZikUUre3rW9I4dHR3Yc2JuV6CRUkcCjpTaLYLdoVHfQDeGuPijb7zwd66uWcBXHvDnBzGEEOLl+7et3Lxeq54Zlm1ae+NXbr7vf/7H+OHhYK8MMqeY0ciKzRtOu/bcNZecHom7V8idK1V635TbRmY4P9KzRQT7JBRCPLB94JVxvl8JEJ1T2Xk3MmHbiPzkOJ/rbBuhS1MXR8jsyiRt/516YdtIOCGSbs5AKVR01sU2IoRY7ONXLdFY9Myrzzjz6jNy07ndT+3Zt3Xf3q37JgcngyqZf/Cy1y3b/PbNQc4RmLGjoxVDL0RtflYzQ/fKRTd/75NHdx59+bGXjuw4nJ/OFdL5cqHUvXJRz+rFvWt7e1Yv7lnb27282zBNIcSDX7nPVRypF7xy0or07b3kpmtf/8HaPaqjXCjt/dVL8/++kM4DT7xcSOfirbXYV3csW/Tur35ix91bX7jjidxEuuIx1aSrYXSv6l1x3ikrNq9fdva6WCq+0IGdKwL8rKZeA+fq6bZfJ6OxXLDS9q9eHoqN8v1KgPjIdL5dehDbRkKGZtsIU4mmLo7og0xdk8h4w9UJU79wwbYRteBmoCu0Z+wl65b4P1WyLXn2mzad/aZNQoih/uF9W/ft27rv4LaD+apuYrrq7FXv/ev3mqbGH3LaljUxMBHoJbnJ2t0gVgghDGPFWStXnLWympdK2iiwbcSbxacse/tff+Cle7cd3LrHtizvg1efv+Hcd1+y9qLaPf1aCLH/iZcL6Zz8uFffwFK+uPuR7RvfcaFWVbNEk/Fzf/vyje+66KWfbX3p7i1TA+OSFyx8oVPdbSs3r1+x+ZQV561v7enwE12hc0STbUQIYdpiWXfP0LETBhlzFOMLto1IT46T8WwbIU3zFkfI7Mokbf+demHbSDghkm7OQClUdNbLNiL8OUcqv3BN7+I1vRe/9yKrbA3uHxzYNzC4f3Bg/+DgvsGJgYn5t0GdkW0YRvfy7rWb1649f+2mN2/SWhkRQowdG7fKVqB3rJbOEaLwykktZsTccNkZGy47Iz0ytevRFwdfOTq07/j44ZHXBpFhJNuSp1698ZwbL160pg7f5L9S6Vas3mnwyv3P1aw4MkM0ETvnPZed857LJo6OHH1u35Ft+4f3HEuPTtmlcsXjY6lE5/JFHSt6Opcv6lzR07F8UefynlR3W9C4nSt6hGEIHzd+ru9i7K2lxd+1DkcjC1pgmEaAbSMhQ7NthFmA5i2O6INMXZPIeMPVCVO/cMG2EbXgZqArtCx2+PuhmhFz6alLl566dPYv+Ux+cP9QeixdLpZKhVK5WJ75/9ZFrWs3r+1Y7Ov7WCUceDbwjSFzRIojbBtRC8IX6q097ee959KZ/y7li+NHRqKJWKI9lWxPGprLiB5kRqePbNsnP875Bg7uOTZyYKBnXZ8mVR50rujpXNFz5tsvFEII286Op9MjU7nJjGEYZsQ0IoYZjbQv6aqiDlKRaCLWuqg9PTIZ8jz6bCMzrCzEor3d5aGxSCQGke5MaNg2Ij05TqKzbYQ6TVocIbMrk7T9d+qFbSPhhEi6OQOlUNFZR9uIEGL+o2rCk2hJrNpYze9ElLPnyd1B37H0eEbYNm8emPoSTcR6NyyVH6ef7Xc9bZXdP/aRDw/bfuX+bZd94i16RPnGMFLdbarqIAvRsbJHWhxBWIxdklr6uDVatgpmNGqYkqcg27Yd9DnoTJ1h20jI0GwbYRam2R/lqxwydU0i4w1XJ0z9wgXbRtSCm4Gu0LLYybZke6/8/m5EKRdL+39zINBLDCEKmfwJjJueesC2EbVwKWwhJo6NPn/nk/LjKr2Bux/eXlb7cCtUOleEve2IbtvIDG9Id6SWLbaFKJdK5VLRtsrzyx+2bdtWuVwslIsFP78VYuoF20akJ8f5XGfbSAPQjMURMrsySdt/p17YNhJOiKSbM1AKFZ31tY1UfcMREhzcdrCUK1Txwr1P71EuhmEo8vi/3ju/wOHzgyg7kX7+jieUSwJE+sAanMXYR8UaKxEVQtiWVS6VysVCuZgvl4pWqVguFkqFfLlYKJdK7BmhB9tGQoZm2wjjSTMWR/RBpq5JZLzh6oSpX7hg24hacDPQFdpH7PA3HEFm1693BTp+9g3b+xR0cYRtI2ph28hCHHx6V//W3fLjFn4Dt932eGZ0WqEkTAI9zXc+tbGNzLC4FD1v2QZHMFvYlmVZFhdECMG2EenJcT7X2TbSGDRdcYTMrkzS9t+pF7aNhBMi6eYMlEJFZ31tI0LPDUdAyExktt9X4REbfjiy40huisZtWRlGE+Vi6fGv3Tv/74E+iIrZwpbvPqhKEizeT/NFW4y9M929ZM0qLoQ0FGwbCRmabSOMjCa9IasOyNQ1iYw3XJ0w9QsXbBtRC24GukL7i93AzpGnfvRkIRvgNzVz3zDbsvZt3XfWNRuVqwoP20bUwraRhdh2268nj4/Jj5N9Vu968PmN77po8anLVQkDpH1ptxmNWAs8M9ibWtpGZvlEZsWWNV2/GNljTOcUnbICdqlgW9W8JwoxzIgRVfb04qhdXlU4uq5weNJs359YPRbttCtdk7hZOqX9+Kntx0byHS9PrhzJK76xF9tGpCfH+Vxn20jD0FzFETK7Mknbf6de2DYSToikmzNQChWddbeNiMYtjmQns8/cuTXMGfY9vQezOMIwNWBqYHzbjx+f//cqPohs2374i3e+56ufiCZi4YVhYkbM9r6uiaMj87tgF2MXZVrPajv7O12Hx0+cMEoVKjJ21DSTVZYVbKtcyowL2/2Qo/pgmNGWLunTeTzoKk/eMHb/qfkDqwtHo/Zr5Z7xSMf+xOotrZsfb7/QFsaS5MSH1z+ysfPQhvYTEeO1f/twvuPliZUPHj/34RNnVyymhIVtIyFDs22E8UFzFUf0QaauSWS84eqEqV+4YNuIWnAz0BXaX+xYIta9vEuzlvrw9G1PFTJ5/8fPz8C9T+8h8EBfVHVsG6HO41+7t5Qvyo/z91k91j/0xL/de9Wn3xVeGCwdK3oqFke8qYttZJa2svmp8pryojU7E9kd0eljhelcqdCVaFlhtpxWbnldPvmA3XqwqjNbhQxKZUQIYVtWMRtJVPM4Z0PYl0xv+73h29qszPzervLkeZkd52V2XJx+7sDmsz5+5kNt0QpOnN7E5BVLdl6xZOcbl27/0s4bxwqhHizNthHpyXE+19k20kg0UXGEzK5M0vbfqRe2jYQTIunmDJRCRSeCbaR3TY/RiLvDiYGJrXdsCXmS9Fj6wLMH1l2wXokkhiHE3l/uOPBUhZsZh/mw2HnftpXnnbLhyrNCnAOazuU9h+f9EXgx9hoRW5ydS50tUkIsFkIIFXdbskrVPCZMH3apIBKBX9VRnv7Y8I8vTEvuXRVpMa67em9qjfyx8Vf37Ti3+8AXd9742MCmwGoWgm0jIUOzbYTxR9PdkFUHZOqaRMYbrk6Y+oULto2oBTcDXaF9x27I39RYpfLtf35bPsgP6RfKwF9+91FVqrSAM4adsG2ENEN7jj/8pZ8IPw8uCfRZbdu//KefThwbDSENms6VgR9YU1/biFbMWPBShE6MaGA9hrA/M/AtaWVEmGLJW5OpNX5/s9MVT//Nuf9xQc/eoHpeVaUTto0ohW0jDUazFEfI7Mokbf+demHbSDghkm7OQClUdCLYRkSDPqrm/n+5/9jOo0pOdXj7oX1bqlzCMgxFMqPT9/7FDyv+oCb8B1F+OnfPF76fHpkKfSZEOle4H1gDvBhzHqxBgBlLGRFlt0ENiRGJm7Fk0FddP/HY6bl90sM6N8fiiwNvmv5s4+2tlX6AExi2jYQMzbYRxjdN9LMaTZCpaxIZb7g6YeoXLtg2ohbcDHSFDhK78ZwjOx95aeudW0N9XeNsP/rNh9e/fr1h4n1hgDOGnVCxjTDzKRdK9/7F/5kemvR1dFWf1ZMnxu75wvdv+IePJdpTQeWB07kimHOkgW0jQgjDjERbOm2rbFuleiuJVnEr1uXFgQ+M3i09LN5jdl5QTQ2oLzn+R6/7+d++9O4qXqsLto0ohW0jjQfeQlADZHZlkrb/Tr2wbSScEEk3Z6AUKjpBbCOi4YojA3sH7v7bnxp+fg7gm+O7jv361grP7GCYBqOYK9zzZ/8x8MqRir0KP4hG+wfv+R8/KAZ5zDYJWhd3zn0cD/BizHmwNhlCCMOMmNFEff9X3UNqPjb845gtvyFxz9UJo9oN0ztXbj23W36bEi/YNhIyNNtGmCA0RXFEH2TqmkTGG65OmPqFC7aNqAU3A12hg8SORiO9qwP/SB6W/ucOfu8PvptPB3hCjfCXgb/67mNHX6q8Y6wbOGPYCdtGiFLI5O/+wg+OPL/f7wvCfVYP7jp61+e+Mz3sz6JCh47li3we2di2Eeok7MIZWfkPKs2kEV8Sart0Ue/uMC9XCdtGlMK2kYak8X9WQ2ZXJmn779QL20bCCZF0cwZKoaITxzayaEW3GWmQOvjLj+38r7+6s1Qo6XjHrLL1k7+646Zv3dzS2aLh9AxTZ3JT2bv/+/eH9hxb6AAdw2p47/E7//Abb/mrDyx53UoNp68PnSt6Rw8MCOjFmPNgbTKEEHa5aBWytlXWGUSOYUbMeMqIxOSHvsra/BE/pdtE8FuNuDijM0TZnW0jIUOzbYQJSIOsmOsCmbomkfGGqxOmfuGCbSNqwc1AV+iAOjOT2Rcf2qFNTu34zU+euf1/3l4qBP5lu/8MHDs29sNPfz83peIRl+FpkJFCwzaC84GpiaE9x+/4w294VEYqoCgDM6NTP/38v+997MUAobGJJHx9s0jGNhIitlXMlTLjVilvW6X6/s8q5WeU+Be/Pn/Iz2FV3IfVxekdvqow2mHbiFLYNtKoNHhxhMyuTNL236kXto2EEyLp5gyUQkUnjm1ECJEeS//nn9/+tQ9/ffeTezSH0kUp2eBLkAAAIABJREFUX7z/n3/x87//uW1ZQvM7NrDnxA8/84NATwhmGHB23L31zk9/y/vxulqHVTlffOj/v+ORv7szN5nRGUc7w3uO/uxz39778AsCejHmPFibDCGEVcT6qLQKAfSsq1VxpCOWWZoar+aVbBsJGZptI0xwGv9nNZogU9ckMt5wdcLUL1ywbUQtuBnoCl2tzuO7j9/62f9YtXHlBTdcsPGas+IplIcvStn/zP57vnj32LGx6l5eRQYef+XYD/7w39/9v3570cr63aulQUYKwJelPsD5wFROIZ177J/u3vNYcO+Y8gy07d0Pv3D42b2X/f5bT3nDpipOUF+yY9PPfO/BPQ8+b/u7FXQz2EaEEELpjbFVEEBPzPblQzQiCq5PzKzz03zYNqIWto00MI1cHCGzK5O0/XfqhW0j4YRIujkDpVDRCWUbcXF4x5HDO478/O/v3XjNWee947w156yubfxg5Kay9//z/c/f9/zc9Xdt3rGBvSe+fdM33van7zjrWnq7OIYRQti2/dI9z2z5/iO5CblZo2ZTYXY8/dDf3r7nkRcuvOlNPev6dIZVRnp4cvcD27bf+UQx89pPNoAXY86DtcmYwYynyrkpzUECYMaS/g/en1h9cXqb9LDCkJVaU82jcGbJlBJHMr2BX8a2kZCh2TbCVEUjF0f0AbXb8YDKeMPVCVO/cMG2EbXgZqArtCKdhWxh2z3Pbfv5c72reza/bfOmazZ2r+gOrU4lxWzhuXue+9X3f5UenQ7zjofJwEIm/5O/vGPf03vfcMs17Ys7qhehGjoZiPaVcmVwPjAVcvSFA49/7d6R/QNVvl7zZ3X/1t39z+xZc9Fp53/o6iWnrQh9Pi0U0rkDj7+099HtJ1486NMtMkuz2EaEMKMJkRQQN2SNRM1YMmhxxM9h+cGyEAHu8zqfVyZXWHZdP2nYNqIUto00Ng1bHCGzK5O0/XfqhW0j4YRIujkDpVDRiWwbmR97+NDIg//20IP/9lDPykWnXnzqqRefsu78dbFkqFVgSCYHJ7fc/vS2nz6bm7nrR71HyvZfPL/z0ZcufM9Fl/7uFcm2AMtuhqk9tm0fePKV7XdtOfrCAf+/d6jpVDjbtu3+p3cd2rJ75eb1m268ZOX5p4A8VMsqlQ9t2bX3kRcOP7OnXKz8UwjgxZjzYG0y5sQwgpYkcDiQWOXnsMKQFTLQrsngj2pi20jI0GwbYaqlYYsj+sDd7TihMt5wddZ7V7YQbBtRC24GukLr1Dl6ZHTLHVu23LElGouuPmf1qRefcsrFp/RtqJ3pvVws9z938Pl7n3/pkZeskppvIFVlYClffOqHv37u7mc3XX/O2W85d+lpyxSIk2FblReRdDKQbSMVKBdKwjQi0VAW/YrkJjIv3ffsjp9tnRqcECH/XbX8rLbtI9v2Hdm2L9nRsu7yM099w9nLNq3R+910JcqF0siBEyN7jw2+fKT/6VcK6VA3GW0e2wh1MmbqYGLl2rzkObvljF0ct2Jd1Rfvto2ur/q1CkBdfbkgs73SdnBYULcD5DB+93V/WW8N6tG6K1M4euuoM9DJtdpG9BV3w1bWQ3zKaLWNKCyO6M1AdSenMlK02kZqP1I6FncsP2N534a+vg1L+tb39azpMU3FX+1Oj0zveXL37id3739mfyEz7xGMOkdKkE5H7+L1SzZdf86612/o29BnKHpD0qPTwweHRvqHhvuHR/qHhvuHpocr/4x/Vknrora158sW3KEzcOeD2187XkNxZO3rT0l1tShea847YuTA4NC+E9JjL/jAFZd//E1BtARmYNfRn3z+e2tef8r6y85Yd/Fp8daw37cP7T3ev2V3/zN7Bl45YpVPfr8d9v2s1SKn4qlaeztWnrdh6Zmr+85a3b16cZBoASgViqP7TwzvOTa059jwnmMTR4b912Sl74C+4ojiEvmcI+496w0HF4X4fZNt1/9nNWakirLaKfmDf33076WfV8nlkb53VTlaHx888wvPfdgOOIN9dPs9vZnKD7gJvLhVOKJDZaDkTVa5vdJpG1E4Yekb0b6OZxaAiyMqx1sd1+7ug5WON33FkTp+LtS0fqHu5AorI9KzBenUe2YqI0VfcQRhBo3Gor1re/vWL+nb0Ne3oW/JhiUdizsMM1jSjR0bG9w3OLh/YHD/4OC+gaGDQwtZJKrWWflghbW5V/8Ub0ms3Lhy1aY1izf0dS7t7OzrSnWkpMJsy544MT7cPzR8cGikf3ikf2jk4FBu9snBNSyo6czAkDdo8D65rlPVpjhy2ye/MRM7Eo2sOGfthsvP6FnX19LVlupqTch+t2WVrfEjI6P9g2P9Q6P9g8e296dHp2bONhcqJXLp2ZIdLX1nrurdsKx9aXfH0u72pd1tizv8XmPbLqTz+XSuMJ0rpLP56VwhnctPZUcPnBjec3z88NBsLUnozUCVthF9W77qiyO2Vc6nrWK+lr+YWADDjCUiiVZhBKtZv3/07neNPyA9bNHl8fZNgX9zOlls+dATnx3Jtwd9obLiSA3nFNnJPccCkE6vbrWlfBCdjIsG/FmN1s8FhZDRqa0yohiFlRGVQiTdnIFSqOikdbeRBVpelIqlgT0nBva89g28YRiReCTeEo+nTv4v0TLz/4mZPxbzpexkNjuRyUxkspPZ9Fi6kC34DQ0zUty8KqWQye/fum//1n2zPfFUvLOv04xGrFLZKltWybLKVrlUtstWuWRZZcsql8slqzYP38HNQCdUftemnHKpfOjZfYee3Sde/XdFopFkZ0tLV2uquy3V1RpLxguZXCFTKGXyhWy+kM5PDU5UMDjoXLuHIXwpPzeZ6X96V//Tu2YPNqORtsWd8bZkLBWPJmLRZCyaiMWS8VKhWJjOnayATOeK6Vwxk6/2mbueBwc4VjFadVrVPpG3XMxZxVC/QlKHbRVzhhk14/Ii9Vzu7H7reZkdqwrHvA8be7qQWh2JdgarvHx55w1VVEaEEKUFrmE9F7faKiNq4buNMCFpwOKIPnitqRZcnai7svBrzdpApZyBm4Gu0Kg6bWGXCqVSoZQZzwQNXcddWZDOYDoL2cLwwSH/xzfoSKnbF8iwI8U79myrXCqnR6bSI1MLH6sZ1AycxSqVJ4+PwuokercRQ4iiXeU9R61CVoEedVjFbNDiSNGI/n3fzX84+L1T8gc9DrNLYvDefO+bEvFeX/WRohX9+p7rHz5xdiAxrwazcqaKOxOhjhQXZLZX2g4OC+p2gCgQ9wZXCJm1pqTtv1MvbBsJJ0TSzRkohYrOhreNBD04LDAjxQ3slXWCm4FOyJQzYEEd0QpL+cBfhtcO3ToLosriiBmp59PN5mOY1XzpOxDr/cvln/3xoneWDK+SRHHc2vKznjt2XVS2JbunlydWfuTJT/3o4BVBbzUyg10qVKyrsW1EHpptI0xo2DniF15rqgVXJ+qujG0jasHNQFdoWJ2wu50gwYAKqQ0yUtg2Eix2HTMwUDCcKQZWJ13biAjhHDHjKatUALjhyAyGGW+p7pVlw/xp15u3tWx8/+jPTs0faC9Pz+21hXEkvuzp1s13d725dDByz+jFt5z6i7M6D3fEMnMPs2xz/3TfA8fP/dHBK6UFFA/scrHq174G6khxQWZ7pe3gsKBuB+jSUMURMmtNSdt/p17YNhJOiKSbM1AKFZ1sG1EMzEhxA3tlneBmoBMy5QxYUEc020bUUgOdlhB2uWgEt4EYkVisrccq5dXs50NgRGJmNBHyOdCH48u/tPQWQ9g9pfH1+f61+cOTkfb9idX9iZV5Iz572O7J5Z979iZD2EtT46d3HDmt49hwvuOVyRV7p5blywqsNHa5MP+PbBuRh2bbCKOChiqO6IPXmmrB1Ym6K2PbiFpwM9AVGlYn7G4nSDCgQmqDjBS2jQSDbSOBQdVJ2jYyQzk7EW3rreqchhlLiljY51LjYAtjONo9HO3e2nqu92HHs93Hs92PDmxSGb2UV3CPW9SR4oLM9krbwWFB3Q6QpnHuOUJmrSlp++/UC9tGwgmRdHMGSqGik20jioEZKW5gr6wT3Ax0QrScAQTqiGbbiFpqo7OlXLJLeauQrvYEjCJsq5wZE0IsKjh+sMO2EXloto0wimic4og+eK2pFlydqLsyto2oBTcDXaFhdcLudoIEAyqkNshIYdtIMNg2EhhUnQ1gG1mSnRJClLMTtjXvWdFMDZm5BHHb7nQWR4KBOlJckNleaTs4LKjbAeo0SHGEzFpT0vbfqRe2jYQTIunmDJRCRWcz2EZqCqxO2CvrBDcDnRAtZwBBs0AJpJNIBtZM56qpUSGEsO1yepTrI/XCyk9bhYwQoquUn/t3to3IQ7NthFFHgxRH9MFrTbXg6kTdlbFtRC24GegKDaOTzG4nSDCgQmqDjBS2jQSDbSOBQdXZALYRIcTqqeGZUWyXC6WpASuMbYEJjm2VS9PD5ezETLMvH+L3TagjxQWZ7ZW2g8OCuh1oABqhOEJmrSlp++/UC9tGwgmRdHMGSqGik20jioHVCXtlneBmoBOi5QwgaBYogXQSycBa6oxa5Y5S6WTDtsuZsXJ6xLZKni9ilGBbhXRpasCe4xY5bXJw9r/ZNiIPzbYRRin8tBoveK2pFlydqLsyto2oBTcDXaFhdJLZ7QQJBlRIbZCRwraRYLBtJDCoOhvDNjLDdYd33r72bPvVf5JVzFnFnGGYRjRuROJGJCaMRvg+FQTbKtqlol0uzH8E8prc1GmTJ6o8L+pIcUFme6Xt4LCgbgcaA/LFETJrTUnbf6de2DYSToikmzNQChWdbBtRDKxO2CvrBDcDneCWM3DeI29oFihx3l3cDHSFrrnO5dOjGyeHXuxcMvePtm3ZxZwI/2RZxh9x2/6twy/MNtk2Ig/NthFGNVwGXhBea6oFVyfsGs6zTUVnkE694GagKzSMTraNqKVBRwrbRoLBthEpZEcKYdvIDG88vLN9npGBqSH2dQN7klVfAtSR4oLM9krbwWFB3Q40DLSLI2RmUEnbf6de2DYSToikmzNQChWdbBtRDKxO2CvrBDcDneCWM3DeI29oFihx3l3cDHSFrpNOw7bfs++57mJB3SkZv0Rs+4rRIxvHj87+hW0j8tBsG2E0QLs4og9ea6oFVyfsGs6zTUVnkE694GagKzSMTraNqKVBRwrbRlSCUw/iErmUxrONzPR25dMffeWJC0aPm3bdRncT0lPMf+zgby4f3Fv9KVBHigsy2yttB4cFdTvQSBC+5wiZGVTS9t+pF7aNhBMi6eYMlEJFJ9tGFAOrE/bKOsHNQCe45Qyc98gbmgVKnHcXNwNdoQF0XnH0ldPHjj208ozRWLJg8teoujBtu80qnTU5dPXALlcX20bkoQFGiq/QRHQysxAujuiD15pqwdUJu4bzbFPRGaRTL7gZ6AoNo5NtI2pp0JHCthGV4NSDuEQupVFtI3NZnJn8wO4tQoipeOpgx+KjbV15U9uWIcR7BJSuQV64OD+9bnpkVWbUUOLQQR0pLnC3V6iLHO9gOFe2waBaHCEzg0ra/jv1wraRcEIk3ZyBUqjoZNuIYmB1wl5ZJ7gZ6AS3nIHzHnmDunYnU8qHzUBXaDyd7YXspuFDm0YOVR1afrDC9FY7UtR9wJIp5bNtRClUdDJzYbOcG15rqgVXJ+wazrNNRWeQTr3gZqArNIxOto2opUFHCttGVIJTD+ISuZRmsI3UFNQpRmNlRC2oI8UF7vYKNgM9g+Fc2caDZHGEzAwqafvv1AvbRsIJkXRzBkqhopNtI4qB1Ql7ZZ3gZqAT3HIGbAa6QF27kynlw2agKzSsTtQM9A5GRWeQTraNCIE8UlyhiehkXJAsjuiD15pqwdUJu4bzbFPRGaRTL7gZ6AoNo5NtI2pp0JHCthGVUNmVaYXsSGHbSDhQpxi2jagFd3sFm4GewXCubENCrzhCZgaVtP136oVtI+GESLo5A6VQ0cm2EcXA6oS9sk5wM9AJbjkDNgNdoK7dyZTyYTPQFRpWJ2oGegejojNIJ9tGhEAeKa7QRHQy86FXHNEHrzXVEkhnTYFdw3m2qegM0qmXhhwpVHY7VOwYVHRqhW0jdYTKrkwrZEcK20bCgTrFsG1ELbjbK9gM9AyGc2UbFWLFETIzqKTtv1MvOLYRhXYMKjq1QiYDJW3/nbph24hSYHXCXlknuBnoBLecAZuBLlDX7mRK+bAZ6AoNqxM1A72DUdEZpJNtI0IgjxRXaCI6mYoQK47og9eaamHbSFDIrDUlbf+demnIkUJlt0PFjkFFp1bYNlJHqOzKtEJ2pLBtJByoUwzbRtSCu72CzUDPYDhXtoGhVBwhM4NK2v479cK2kaCwbUQtVHSybUQxsDphr6wT3Ax0glvOgM1AF6hrdzKlfNgMdIWG1Ymagd7BqOgM0sm2ESGQR4orNBGdzEJQKo7og9eaamHbSFDIrDUlbf+demnIkUJlt8N2jAqhYXWybaR+UNmVaYXsSGHbSDhQpxi2jagFd3sFm4GewXCubGNDpjhCZgaVtP136oVtI0Fh24haqOhk24hiYHTSyUAHuBnoBLecAZOBElDX7mRK+bAZ6AoNqxM1A72DUdEZpJNtI0IgjxRXaCI6GQ/IFEf0wWtNtbBtJChk1pqStv9OvTTkSKGy22HbSIXQsDrZNlI/qOzKtEJ2pLBtJByoUwzbRtSCu72CzUDPYDhXtuGhURwhM4NK2v479cK2kaCwbUQtVHSybUQxMDrpZKAD3Ax0glvOgMlACahrdzKlfNgMdIWG1Ymagd7BqOgM0sm2ESGQR4orNBGdjDc0iiP64LWmWtg2EhQya01J23+nXhpypFDZ7bBtpEJoWJ1sG6k5+ans6IFBQWdXphWyI4VtI+FAnWLYNqIW3O0VbAZ6BsO5ss1AtN4C5JCZQSVt/516YdtIUNg2ohYqOtk2ohgYnXQy0AFuBjrBLWfUNgNzk5mRg4Nj/UMj/YOj/UOj/YOZsbSwfZSZUNfuZEr5sBnoCg2rEzUDvYNR0Rmkk20jQiCPFFdoIjoZKQSKI/rgtaZa2DYSFDJrTUnbf6deGnKkUNntsG2kQmhYnWwbUU12Ij1ycKYIMjR6cHC0fzA7nq54JJVdmVbIjhS2jYQDdYph24hacLdXsBnoGQznyjYJ6MURMjOopO2/Uy9sGwkK20bUQkUn20YUA6OTTgY6wM1AJ7jlDKUZmBmbHj04ODJbCjk0lJ14rRQS6uSoa3cypXzYDHSFhtWJmoHewajoDNLJthEhkEeKKzQRnYwf0Isj+uC1plrYNhIUMmtNSdt/p14acqRQ2e2wbaRCaFidbBsJSHpkaqYIMtI/NNo/ONo/lJvMLBQb6Et72AyUtP136oVtI4pBnWLYNqIW3O0VbAZ6BsO5ss0DdHGEzAwqafvv1AvbRoLCthG1UNHJthHFwOikk4EOcDPQCU45wzuYd+jp4cmZW4TM/ExmrH8oN5XVKW5BZThrdzKlfNgMdIWG1Ymagd7BqOgM0sm2ESGQR4orNBGdjE+giyP64LWmWtg2EhQya01J23+nXhpypFDZ7bBtpEJoWJ1sG1mYnb/Y9uI9z+SncwFODlPKDxSMR4oUto0oBnWKYduIWnC3V7AZ6BkM58o2FbjFETIzqKTtv1MvbBsJCttG1EJFJ9tGFAOjk04GOsDNQCc4hT/vYB6hM/NuoYqpU/ZSxZAp5cNmoCs0rE7UDPQORkVnkE62jQiBPFJcoYnoZPxj1ltAHeC1plrYNhIUMmtNSdt/p14acqRQ2e2wbaRCaFidbBtRC0wpP1AwHilS2DaiGNQphm0jasHdXsFmoGcwnCvbbIAWR8jMoJK2/069sG0kKGwbUQsVnWwbUQyMTjoZ6AA3A53gljOaYE1MpZCqFdwMdIWG1Ymagd7BqOgM0sm2ESGQR4orNBGdTCBAiyP64LWmWtg2EhQya01J23+nXhpypFDZ7bBtpEJoWJ1sG1ELTCk/UDAeKVLYNqIY1CmGbSNqwd1ewWagZzCcK9uEIBZHyMygkrb/Tr2wbSQobBtRCxWdbBtRDIxOOhnoADcDneCWM5pgTUylkKoV3Ax0hYbViZqB3sGo6AzSybYRIZBHiis0EZ1MUBCLI/rgtaZa2DYSFDJrTUnbf6deGnKkUNntsG2kQmhYnWwbUQtMKT9QMB4pUtg2ohjUKYZtI2rB3V7BZqBnMJwr25zAFUfIzKCStv9OvbBtJChsG1ELFZ1sG1EMjE46GegANwOd4JYzmmBNTKWQqhXcDHSFhtWJmoHewajoDNLJthEhkEeKKzQRnUwVwBVH9MFrTbWwbSQoZNaakrb/Tr005Eihstth20iF0LA62TaiFphSfqBgPFKksG1EMahTDNtG1IK7vYLNQM9gOFe2acEqjpCZQSVt/516YdtIUNg2ohYqOtk2ohgYnXQy0AFuBjrBLWc0wZqYSiFVK7gZ6AoNqxM1A72DUdEZpJNtI0IgjxRXaCI6merAKo7og9eaamHbSFDIrDUlbf+demnIkUJlt8O2kQqhYXWybUQtMKX8QMF4pEhh24hiUKcYto2oBXd7BZuBnsFwrmwzA1QcITODStr+O/XCtpGgsG1ELVR0sm1EMTA66WSgA9wMdIJbzmiCNTGVQqpWcDPQFRpWJ2oGegejojNIJ9tGhEAeKa7QRHQyVQNUHNEHrzXVwraRoJBZa0ra/jv10pAjhcpuh20jFULD6mTbiFpgSvmBgvFIkcK2EcWgTjFsG1EL7vYKNgM9g+Fc2SYHpThCZgaVtP136oVtI0Fh24haqOhk24hiYHTSyUAHuBnoBLec0QRrYiqFVK3gZqArNKxO1Az0DkZFZ5BOto0IgTxSXKGJ6GTCgFIc0QevNdXCtpGgkFlrStr+O/XSkCOFym6HbSMVQsPqZNuIWmBK+YGC8UiRwrYRxaBOMWwbUQvu9go2Az2D4VxZBqI4QmYGlbT9d+qFbSNBYduIWqjoZNuIYmB00slAB7gZ6AS3nNEEa2IqhVSt4GagKzSsTtQM9A5GRWeQTraNCIE8UlyhiehkQgJRHNEHrzXVwraRoJBZa0ra/jv10pAjhcpuh20jFULD6mTbiFpgSvmBgvFIkcK2EcWgTjFsG1EL7vYKNgM9g+FcWUYgFEfIzKCStv9OvbBtJChsG1ELFZ1sG1EMjE46GegANwOd4JYzmmBNTKWQqhXcDHSFhtWJmoHewajoDNLJthEhkEeKKzQRnUx46l8c0QevNdXCtpGgkFlrStr+O/XSkCOFym6HbSMVQsPqZNuIWmBK+YGC8UiRwrYRxaBOMWwbUQvu9go2Az2D4VxZZoY6F0fIzKCStv9OvbBtJChsG1ELFZ1sG1EMjE46GegANwOd4JYzmmBNTKWQqhXcDHSFhtWJmoHewajoDNLJthEhkEeKKzQRnYwSGtY5wmtNtbBtJChk1pqStv9OvTTkSKGy22HbSIXQsDrZNqIWmFJ+oGA8UqSwbUQxqFMM20bUgru9gs1Az2A4V5aZpZ7FETIzqKTtv1MvbBsJCttG1EJFJ9tGFAOjk04GOsDNQCe45YwmWBNTKaRqBTcDXaFhdaJmoHcwKjqDdLJtRAjkkeIKTUQno4rGdI7wWlMtbBsJCpm1pqTtv1MvDTlSqOx22DZSITSsTraNqAWmlB8oGI8UKWwbUQzqFMO2EbXgbq9gM9AzGM6VZeZSt+IImRlU0vbfqRe2jQSFbSNqoaKTbSOKgdFJJwMd4GagE9xyRhOsiakUUrWCm4Gu0LA6UTPQOxgVnUE62TYiBPJIcYUmopNRSAM6R3itqRa2jQSFzFpT0vbfqZeGHClUdjtsG6kQGlYn20bUAlPKDxSMR4oUto0oBnWKYduIWnC3V7AZ6BkM58oyLupTHCEzg0ra/jv1wraRoLBtRC1UdLJtRDEwOulkoAPcDHSCW85ogjUxlUKqVnAz0BUaVidqBnoHo6IzSCfbRoRAHimu0ER0MmppNOcIrzXVwraRoJBZa0ra/jv10pAjhcpuh20jFULD6mTbiFpgSvmBgvFIkcK2EcWgTjFsG1EL7vYKNgM9g+FcWWY+dSiOkJlBJW3/nXph20hQ2DaiFio62TaiGBiddDLQAW4GOsEtZzTBmphKIVUruBnoCg2rEzUDvYNR0Rmkk20jQiCPFFdoIjoZ5TSUc4TXmmph20hQyKw1JW3/nXppyJFCZbfDtpEKoWF1sm1ELTCl/EDBeKRIYduIYlCnGLaNqAV3ewWbgZ7BcK4sU5FaF0fIzKCStv9OvbBtJChsG1ELFZ1sG1EMjE46GegANwOd4JYzmmBNTKWQqhXcDHSFhtWJmoHewajoDNLJthEhkEeKKzQRnYwOGsc5wmtNtbBtJChk1pqStv9OvTTkSKGy22HbSIXQsDrZNqIWmFJ+oGA8UqSwbUQxqFMMbAa6IaITd3sFm4GewXCuLLMQNS2OkJlBJW3/nXph20hQ2DaiFio62TaiGBiddDLQAW4GOsEtZzTBmphKIVUruBnoCg2rEzUDvYPh6FQ4xbBtRCCPFFdoIjoZTTSIc4TXmmph20hQyKw1JW3/nXppyJFCZbdDZa2pFTI62TaiFphSfqBgPFKksG1EMahTDGwGuiGiE3d7BZuBnsFwrizjQe2KI2RmUEnbf6de2DYSFLaNqIWKTraNKAZGJ50MdICbgU5wyxlNsCamUkjVCm4GukLD6kTNQO9gODrZNqIW3JHiCk1EJ6OPRnCO8FpTLWwbCQqZtaak7b9TLw05UqjsdqisNbVCRifbRtQCU8oPFIxHihS2jSgGdYqBzUA3RHTibq9gM9AzGM6VZbypUXGEzAwqafvv1AvbRoLCthG1UNHJthHFwOikk4EOcDPQCW45ownWxFQKqVrBzUBXaFidqBnoHQxHJ9tG1II7UlyhiehktELeOcJrTbWwbSQoZNaakrb/Tr005EgLmhmGAAAgAElEQVShstuhstbUChmdbBtRC0wpP1AwHilS2DaiGNQpBjYD3RDRibu9gs1Az2A4V5aRUoviCJkZVNL236kXto0EhW0jaqGik20jioHRSScDHeBmoBPcckYTrImpFFK1gpuBrtCwOlEz0DsYjk62jagFd6S4QhPRyeiGtnOE15pqYdtIUMisNSVt/516aciRQmW3Q2WtqRUyOtk2ohaYUn6gYDxSpLBtRDGoUwxsBrohohN3ewWbgZ7BcK4s4wftxREyM6ik7b9TL2wbCQrbRtRCRSfbRhQDo5NOBjrAzUAnuOWMJlgTUymkagU3A12hYXWiZqB3MBydbBtRC+5IcYUmopOpAYSdI7zWVAvbRoJCZq0pafvv1EtDjhQqux0qa02tkNHJthG1wJTyAwXjkSKFbSOKQZ1iYDPQDRGduNsr2Az0DIZzZRmf6C2OkJlBJW3/nXph20hQ2DaiFio62TaiGBiddDLQAW4GOsEtZzTBmphKIVUruBnoCg2rEzUDvYPh6GTbiFpwR4orNBGdTG2g6hzhtaZa2DYSFDJrTUnbf6deGnKkUNntUFlraoWMTraNqAWmlB8oGI8UKWwbUQzqFAObgW6I6MTdXsFmoGcwnCvL+EdjcYTMDCpp++/UC9tGgsK2EbVQ0cm2EcXA6KSTgQ5wM9AJbjmjCdbEVAqpWsHNQFdoWJ2oGegdDEcn20bUgjtSXKGJ6GRqBknnCK811cK2kaCQWWtK2v479dKQI4XKbofKWlMrZHSybUQtMKX8QMF4pEhh24hiUKcY2Ax0Q0Qn7vYKNgM9g+FcWSYQuoojZGZQSdt/p17YNhIUto2ohYpOto0oBkYnnQx0gJuBTnDLGbwmDgeZUj5sBrpCw+psgpFCpZTPthGBPFJcoYnoZGoJPecIrzXVwraRoJBZa0ra/jv10pAjhW0jFU4Om4GStv9OvbBtRDGwpXzYDJS0/XfqhW0jikGdYmAz0A0RnbjbK9gM9AyGc2WZoGgpjpCZQSVt/516YdtIUNg2ohYqOtk2ohgYnXQy0AFuBjrBLWfwmjgcZEr5sBnoCg2rswlGCpUCJdtGBPJIcYUmopOpMcScI7zWVAvbRoJCZq0pafvv1EtDjhS2jVQ4OWwGStr+O/XCthHFwJbyYTNQ0vbfqRe2jSgGdYqBzUA3RHTibq9gM9AzGM6VZapAfXGEzAwqafvv1AvbRoLCthG1UNHJthHFwOikk4EOcDPQCW45g9fE4SBTyofNQFdoWJ1NMFKoFCjZNiKQR4orNBGdTO2h5BzhtaZa2DYSFDJrTUnbf6deGnKksG2kwslhM1DS9t+pF7aNKAa2lA+bgZK2/069sG1EMahTDGwGuiGiE3d7BZuBnsFwrixTHYqLI2RmUEnbf6de2DYSFLaNqIWKTraNKAZGJ50MdICbgU5wyxm8Jg4HmVI+bAa6QsPqbIKRQqVAybYRgTxSXKGJ6GTqAhnnCK811cK2kaCQWWtK2v479dKQI4VtIxVODpuBkrb/Tr2wbUQxsKV82AyUtP136oVtI4pBnWJgM9ANEZ242yvYDPQMhnNlmapRWRwhM4NK2v479cK2kaCwbUQtVHSybUQxMDrpZKAD3Ax0glvO4DVxOMiU8mEz0BUaVmcTjBQqBUq2jQjkkeIKTUQnUy9oOEd4rakWto0EhcxaU9L236mXhhwpbBupcHLYDJS0/XfqhW0jioEt5cNmoKTtv1MvbBtRDOoUA5uBbojoxN1ewWagZzCcK8uEQVlxhMwMKmn779QL20aCwrYRtVDRybYRxcDopJOBDnAz0AluOYPXxOEgU8qHzUBXaFidTTBSqBQo2TYikEeKKzQRnUwdIeAcaci1Zh3B1Qm7hvNsU9EZpFMvVGYmHJ1sG1ELGZ1sG1ELbCkfNgMlbf+demHbiGJQpxjYDHRDRCfu9go2Az2D4VxZJiRqiiNkZlBJ239nWCSTIttGAsK2EbVQ0cm2EcXA6KSTgQ5wM9AJbjmD18ThIFPKh81AV2hYnU0wUqgUKNk2IpBHiis0EZ1MfUF3jjTkWrOO4OqEXcN5tqnoDNKpFyozE45Oto2ohYxOto2oBbaUD5uBkrb/Tr2wbUQxqFMMbAa6IaITd3sFm4GewXCuLBMeBcURMjOopO2/MyxsG1EL20bUQkUn20YUA6OTTgY6wM1AJ7jlDF4Th4NMKR82A12hYXU2wUihUqBk24hAHimu0ER0MnUH2jnSkGvNOoKrE3YN59mmojNIp16ozEw4OjkD1UJGJ9tG1AJbyofNQEnbf6de2DaiGNRyBmwGuiGiE3d7BZuBnsFwriyjhLDFETIzqKTtvzMsbBtRC9tG1EJFJ9tGgsIjRSu4GegEt5zBa+JwkCmkwmagKzSsziYYKVQKlGwbEcgjxRWaiE4GAVznSEOuNesIrk7YNZxnm4rOIJ16oTIz4ejkDFQLGZ1sG1ELbCkfNgMlbf+demHbiGJQyxmwGeiGiE7c7RVsBnoGw7myjCpCFUfIzKCStv/OsLBtRC38ZbhaqOhk20hQeKRoBTcDneCWM3hNHA4yhVTYDHSFhtXZBCOFSoGSbSMCeaS4QhPRyYAA6hxpyLVmHcHVCbuG82xT0RmkUy9UZiYcnZyBaiGjk20jaoEt5cNmoKTtv1MvbBtRDGo5AzYD3RDRibu9gs1Az2A4V5ZRSPXFETIzqKTtvzMsbBtRC38ZrhYqOtk2EhQeKVrBzUAnuOUMXhOHg0whFTYDXaFhdTbBSKFSoGTbiEAeKa7QRHQyOCA6RxpyrVlHcHXCruE821R0BunUC5WZCUcnZ6BayOhk24haYEv5sBkoafvv1AvbRhSDWs6AzUA3RHTibq9gM9AzGM6VZdRSZXGEzAwqafvvDAvbRtTCX4arhYpOto0EhUeKVnAz0AluOYPXxOEgU0iFzUBXaFidTTBSqBQo2TYikEeKKzQRnQwUcM6Rhlxr1hFcnbBrOM82FZ1BOvVCZWbC0ckZqBYyOtk2ohbYUj5sBkra/jv1wrYRxaCWM2Az0A0RnbjbK9gM9AyGc2UZ5VRTHCEzg0ra/jvDwrYRtfCX4WqhopNtI0HhkaIV3Ax0glvO4DVxOMgUUmEz0BUaVmcTjBQqBUq2jQjkkeIKTUQngwaWc6Qh15p1BFcn7BrOs01FZ5BOvVCZmXB0cgaqhYxOto2oBbaUD5uBkrb/Tr2wbUQxqOUM2Ax0Q0Qn7vYKNgM9g+FcWUYHgYsjZGZQSdt/Z1jYNqIW/jJcLVR0sm0kKDxStIKbgU5wyxm8Jg4HmUIqbAa6QsPqbIKRQqVAybYRgTxSXKGJ6GQAAXKONORas47g6oRdw3m2qegM0qkXKjMTjk7OQLWQ0cm2EbXAlvJhM1DS9t+pF7aNKAa1nAGbgW6I6MTdXsFmoGcwnCvLaCJYcYTMDCpp++8MC9tG1MJfhquFik62jQSFR4pWcDPQCW45g9fE4SBTSIXNQFdoWJ1NMFKoFCjZNiKQR4orNBGdDCYozpGGXGvWEVydsGs4zzYVnUE69UJlZsLRyRmoFjI62TaiFthSPmwGStr+O/XCthHFoJYzYDPQDRGduNsr2Az0DIZzZRl9BCiOkJlBJW3/nWFpQtuIVqjq5JESFraNBINHilZwM9AJbjmD18ThIFNIhc1AV2hYnU0wUqgUKNk2IpBHiis0EZ0MLBDOkYZca9aROuqksitzQWatKWn779QLlZkJRydnoFrI6GTbiFpgvrQnk4GStv9OvbBtRDGo5QzYDHRDRCfu9go2Az2D4VxZRit+iyNkZlBJ239nWNg2ohaqOnmkhIVtI8HgkaIV3Ax0glvO4DVxOMgUUmEz0BUaVmcTjBQqBUq2jQjkkeIKTUQng0z9nSMNudasI2wbCQqZtaak7b9TL1RmJhydnIFqIaOTbSNqgfnSnkwGStr+O/XCthHFoJYzYDPQDRGduNsr2Az0DIZzZRnd+CqOkJlBJW3/nWFh24haqOrkkRIWto0Eg0eKVnAz0AluOYPXxOEgU0iFzUBXaFidTTBSqBQo2TYikEeKKzQRnQw4dXaONORas46wbSQoZNaakrb/Tr1QmZlwdHIGqoWMTraNqAXmS3syGShp++/UC9tGFINazoDNQDdEdOJur2Az0DMYzpVlaoC8OEJmBpW0/XeGhW0jaqGqk0dKWNg2EgweKVrBzUAnuOUMXhOHg0whFTYDXaFhdTbBSKFSoGTbiEAeKa7QRHQy+NTTOdKQa806wraRoJBZa0ra/jv1QmVmwtHJGagWMjrZNqIWmC/tyWSgpO2/Uy9sG1EMajkDNgPdENGJu72CzUDPYDhXlqkNkuIImRlU0vbfGRa2jaiFqk4eKWFh20gweKRoBTcDneCWM3hNHA4yhVTYDHSFhtXZBCOFSoGSbSMCeaS4QhPRyZCgbs6Rhlxr1hG2jQSFzFpT0vbfqRcqMxOOTs5AtZDRybYRtcB8aU8mAyVt/516YduIYlDLGbAZ6IaITtztFWwGegbDubJMzfAqjpCZQSVt/51hYduIWqjq5JESFraNBINHilZwM9AJbjmD18ThIFNIhc1AV2hYnU0wUqgUKNk2IpBHiis0EZ0MFerjHGnItWYdYdtIUMisNSVt/516oTIz4ejkDFQLGZ1sG1ELzJf2ZDJQ0vbfqRe2jSgGtZwBm4FuiOjE3V7BZqBnMJwry9SSBYsjZGZQSdt/Z1jYNqIWqjp5pISFbSPB4JGiFdwMdIJbzuA1cTjIFFJhM9AVGlZnE4wUKgVKto0I5JHiCk1EJ0OIOjhHGnKtWUfYNhIUMmtNSdt/p16ozEw4OjkD1UJGJ9tG1ALzpT2ZDJS0/XfqhW0jikEtZ8BmoBsiOnG3V7AZ6BkM58oyNaZycYTMDCpp++8MC9tG1EJVJ4+UsLBtJBg8UrSCm4FOcMsZvCYOB5lCKmwGukLD6myCkUKlQMm2EYE8UlyhiehkaFFr50hDrjXrCNtGgkJmrSlp++/UC5WZCUcnZ6BayOhk24haYL60J5OBkrb/Tr2wbUQxqOUM2Ax0Q0Qn7vYKNgM9g+FcWab2VCiOkJlBJW3/nWFh24haqOrkkRIWto0Eg0eKVnAz0AluOYPXxOEgU0iFzUBXaFidTTBSqBQo2TYikEeKKzQRnQw5orUM1pBrzbpgGIYwhGkaQghhC9u2bbum3zRS2ZW5ILPWlLT9d+qFysyEo5MzUC1kdLJtRC0wX9qTyUBJ23+nXtg2ohjUcgZsBrohohN3ewWbgZ7BcK4sUxfcxREyM6ik7b8zLGptI4ZhmBEzEjUj0YgZMQzTMIRhmIZhGsIQMy3DPHnWuSe3hRC2bVu2PVMrseyT/y+EVbaskmWVyuWyZVsLLDVgPheolF1wMtAbKjrZNhIUHilawc1AJ7jlDF4Th4NMIRU2A12hYXU2wUihUqBk24hAHimu0ER0MhSpnXOkIdeaITFNMxIzI9HITDUkEjEjUb93gTHmT1SGYUQWVD/TYVl2uVQul6xyqVwuWuVS2SpbQWVT2ZW5ILPWlLT9d+qFysyEo5MzUC1kdLJtRC0wX9qTyUBJ23+nXtg2ohjUcgZsBrohohN3ewWbgZ7BcK4sUy8cxREyM6ik7b8zLEFtI4ZpxOLRWCIajUciUdOYc0RtdJqmYcajsfhrXTPWklKhVCyUivmSVbaArqxnN5BOHilhYdtIMHikaAU3A53gljN4TRwOMoVU2Ax0hYbV2QQjhUqBkm0jAnmkuEIT0ckQpUbOkYZca/o9p2lEY5FYIhpPxiLRyJye6j/vFOo0hIhEzUg0nmiJCyHKZaucLxXypVK+ZFkVTCVUdmUuyKw1JW3/nXqhMjPh6OQMVAsZnWwbUQvMl/ZkMlDS9t+pF7aNKAa1nAGbgW6I6MTdXsFmoGcwnCvL1JHXiiNkZlBJ239nWDxObhgilojO/C8ai1Q6FvQhNdGIGW15tVBSsoqFUjFXLBZKC96sRB1Uyi44GegNFZ1sGwkKjxSt4GagE9xyBq+Jw0GmkAqbga7QsDqbYKRQKVCybUQgjxRXaCI6GbrUwjnSkGvNhc4QT8YSLfFYImrocKG8GqU2zDhKki1xIUSpUM5nC8VssaKd5FVlHq16QmatKWn779QLlZkJRydnoFrI6GTbiFpgvrQnk4GStv9OvbBtRDGo5QzYDHRDRCfu9go2Az2D4VxZpr6cLI6QmUElbf+dYXGdPJaIJlri8WTMMA0foUFtIx4HR+ORaDxldKYK+VI+UyjmimofHsxfhquFik62jQSFR4pWcDPQCW45g9fE4SBTSIXNQFdoWJ1NMFKoFCjZNiKQR4orNBGdDGm0O0cacq05SyRqJlriiVTc9P2UmZDU8mE67tBCCCHiiWg8EbVsu5gt5rOFYr7k6BYVW/WEzFpT0vbfqRcqMxOOTs5AtZDRybYRtcB8aU8mAyVt/516YduIYlCnGNgMdENEJ+72CrWg5h0M58oydScqCM2gkrb/zrBETCPeEk+kYtF4hepS49lG5mMaRqIlnmiJl8tWIVvMZwrlcjmwPp+hYT6/cDLQGyo62TYSFB4pWsHNQCe45QxeE4eDTCEVNgNdoWF1oo4UhRlIpUDJthGBPFJcoYnoZKij1znSeGvNaCySakskUjF9Fg5bCKtk2bZtW7Zt2dar/2HbtrBty7LtOX+xbdswDUMYhmkYhjBMQwjDNA1hCMM0TMOIREwzakaiEdMMJXihF0ciZqotkWpPlArl7HSukCt6HFx7yKw1JW3/nXqhMjPh6OQMVAsZnWwbUQvMl/ZkMlDS9t+pF7aNKAZ1ioHNQDdEdOJur1ALat7BcK4sg0CUzAwqafvvrJJoPNLSnowlY+EmxQq2Edu2S8VyqVAuF8ulYrlcWtCCUfHT0LZsW9hi3m1SXcca5kyhJBKJmJGoGYlFzKg5WzEJ/45F45H2Ra2lYjk7nS9mC/5fyF+Gq4WKTraNBIVHilZwM9AJbjmD18ThIFNIhc1AV2hYnagjhW0jamHbiFqo6GQaAI3OkYZZa8YS0Zb2ZDSh7L2yLPtkHaRQKhXLVnnh57/MIaRVxbbsklUWxVcrL4YQQpgRMxqPxhLReDwaWfi2Kf53ZdFYpL27xWpPZqdzhazim7YGhcxaU9L236kXKjMTjk7OQLWQ0cm2EbXAfGlPJgMlbf+demHbiGJQpxjYDHRDRCfu9gq1oOYdDOfKMiA4N/yo461eM30sEW3pSM69sUjVk2KpWCrmisVCuVwszzwNt6ZruAW6rbJVyBaK2UJGCNM0o/FILBGNxqPRWCRMdDNqtna1pNqt7HS+kCl4lEj4y3C1UNHJtpGg8EjRCm4GOsEtZ/CaOBxkCqmwGegKDasTdaSwbUQtbBtRCxWdTGOgyzlCfa2ZSMVS7clIuBqBEKJULOWzxUK2aJWtMJ93NXhIjWVZhZx18qYhphGNReOpWDwZi3jfrGThTjNitnamWtqT2alc3rNEogMya01J23+nXqjMTDg6OQPVQkYn20bUAvOlPZkMlLT9d+qFbSOKQZ1iYDPQDRGduNsr1IKadzCcK8vgMKc4gjreajzTxxLR1s5UxbKI/0mxWCgVcsVCpmBZs/M9pYfU2JZdzBeL+WLGMGLxaCIVi6ViZlUVGsM0WjpTqfZkZiqXT+fV6qwNZNaakrb/Tt2wbSQYPFK0gpuBTnDLGbwmDgeZQipsBrpCw+pEHSlsG1EL20bUQkUn0zBocY4QXWuaptHamYq3xKs+YbFQKmQLhWxxTk1EATWwjSyIfbJKYkwYsUQ0norHk7HX9PgWZphGa2cqkYqnJzLlYvUP/fUbzrMNlIGStv9OvVCZmXB0cgaqhYxOto2oBeZLezIZKGn779QL20YUgzrFwGagGyI6cbdXqAU172A4V5aB4tXiCOp4q9lMn2pLpNqTxsI/IfE4eTFfKua8ayKUbCMVsW27kCsWckXDMGLJWCIViydjQbVF45HOxe35dCEzlRXe9SOYzy8ya01J23+nbtg2Egy2jWgFNwOd4JYzeE0cDjKFVNgMdIWG1Yk6Utg2oha2jaiFik6mkVDvHCG31ozGI21dLdXdXqSQKWSn86ViWZ+5o462kYqRbdsuZAuFbCESiyRbE4mWeFCFidZ4PBXLTmbzmQBP/PUPmbWmpO2/Uy9UZiYcnZyBaiGjk20jaoH50p5MBkra/jv1wrYRxaBOMbAZ6IaITtztFWpBzTsYzpVl0IgKgfu5oHumN02jpTOV8PE7mnlTuZ3LFLJT+Zmn8MrWmuRtIxUpl8rpiUx2KpdojSdbE6b3fVudmKbR2tWSaImnx7Pl0rxf2cB8fpFZa0ra/jt1w7aRYLBtRCu4GegEt5zBa+JwkCmkwmagKzSsTtSRwrYRtbBtRC1UdDINhmLnCKG1ZrI13tKR8vgdTUVsy86l87npvNq7iiwEmm1kfrdlWdmpXH46H2+Jp1oTZtT0HyIaj3Yubs+l89mpnKpn2ZBZa0ra/jv1QmVmwtHJGagWMjrZNqIWmC/tyWSgpO2/Uy9sG1EM6hQDm4FuiOjE3V6hFtS8g+FcWQaQKOzngr6Z3oyYHYtaogm/haGZk9tlK5cuZNN52wrw7Xej2kZc2LadT+fz6Xw8GUu2JaJxr/fWcDaSbYl4KjY9likVSrp1BoLMWlPS9t+pG7aNBINtI1rBzUAnuOUMXhOHg0whFTYDXaFhdaKOFLaNqIVtI2qhopNpPFQ6R0isNePJWPuilkCGEatkZdP5fDqvyNzgF3zbyPzWzE1bY4lYa2fKv4vEjJgdPW3ZqVx2OhdIp6cu4LWmpO2/Uy9UZiYcnZyBaiGjk20jaoH50p5MBkra/jv1wrYRxaBOMbAZ6IaITtztFWpBzTsYzpVlMPH9DX9t0THTG4Zo6Uil2hL+/2F22cpM5grZwkJlEbaNVKSYL04MlRIt8fkPAFowtCFSHcloMpoey1iWJTlYP2TWmpK2/07dsG0kGFAj2gM6GegANwOd4JYzYDJQAqpOMoVU2Ax0hYbVibp7ZNuIWtg2ohYqOpmGRJlzBHytaUbM9kUtsbjkZ0Rzyafz6cmc5Imz2qBoG5mLbdu5dD6fLaTak8kWvwWpWCLasbgtPZYpzvzEJghk1pqStv9OvVCZmXB0cgaqhYxOto0ERGHhj8quTCtkdLJtRC2oUwxsBrohohN3e4VaUPMOhnNlGVgWLI400kwfT8baulv8P06lXCxPj2dKhbJkUmTbiAzbsjMT2Xy60NKRjCVjfnSaEbO9py07lcuF+4lNGMisNSVt/526YdtIMGBHtAs6GegANwOd4JQzvIPhvGNuUHWSKaTCZqArNKxO1N1jE9pGtMK2EbVQ0ck0KmqcI7Brzdd+SuNTim1np/LZ6VyNby/igrptxEW5VJ4aTccS0daOVCQW8SMi1ZGMJRw/sQmiC3itKWn779QLlZkJRydnoFrI6GTbSEDYNqIWMjrZNqIW1CkGNwMlbf+dNQV2ewVbUPMOhnNlGWQq3zKzMT6/zIjZ0dv2WmVERilfGh+cykydrIywbUQtpXxpcng6N52v3D1PZywR7fi/7Z3pltu6kqU5acpM+wxV3e//eL2q7mQ7MyVOQP9gWhYoMgCQAWqHM761qu6BIQvbZJAAQhvA//2yIw++SYGUHlSKTrWNxCLliZYTgQ64EeiCk86gG8O5YmNQdYpJpMJG4KhpWJ2os0e1jfCithFepOhUfmMYZp6YY81qX379rxdnKc28FGvs27dz/d5sIMzLb2YbucVa+/793Nbt859PRek/y6Yo8i///fL2n3f61ogZa3rK4ZVpkdIz4ejUCORFjE61jUSithFexOhU2wgvqF0MbgR6yuGVm4I5vbpvGyehRjeGc2cVcCaSI7/B+2t/rL78/ZyHDQmb9+bt29mYCK+H2kZiuW26rbtv//vj6evp8LSfqL7T+fznU1EUK0/5DURKDypFp9pGYpH4RE+Vwys3BTcCXXDSGXRjOFdsDKpOMYlU2AgcNQ2rE3X2qLYRXtQ2wosUncrvzVrnCOBY8/C0f/nzNM6MTEkxnXn9z3tbRx+Mko7f2DZyizX27T/v7aV9/vMpD9go9/T1mJf5+7ezTxfwWNNTDq9Mi5SeCUenRiAvYnSqbSQStY3wIkan2kZ4Qe1icCPQUw6v3BTA6dVk2zgJNboxnDur4DNe2iD9/XV6OXz56ynEM9I13bf//TGZGVHbCC9zTTeX9tv//GjrNuTDx+fDy1+hbqBlSOlBpehU20gsUp9o2DvrghuBLjjpDLoxnCs2BlWnmEQqbASOmobViTp7VNsIL2ob4UWKTuW3x7/vAwHaWPPp6/H5j1OIlPq9+f6P19FSmofzSWwjtxhjfvzr7e3bOaSb2J92L38/3zpNxIw1PeXwyrRI6ZlwdGoE8iJGp9pGIlHbCC9idKpthBfULgY3Aj3l8MpNQZtezbWNk1CjG8O5s4oInOSI3PdXnmcvfz09fTn6W7L2/dv59d/vc4f1qm2ElxCd9Vv945+v1livzt2h+vL3S1GsSurNCyHK4ZVpkaJTbSOxSH2iYe+sC24EuuCkM+jGcK7YGFSdYhKpsBE4ahpWJ+rsUW0jvKhthBcpOpXPwPJJJs5YM8+zL38/H6+7e85LscZ+/+fbee402YfyCW0jt7RN9+1/f/Rt7/1ktS+//PdLUd5tVQI71vSUwyvTIqVnwtGpEciLGJ1qG4lEbSO8iNGpthFeULsY3Aj0lMMrNwVnekW3jZNQoxvDubOKFH4lR4S+v/Ii//rfL/vjzttK3/b/+Z/pTUbCWlbbSDRROm1vvv/zNWR/3LIqvv6fL2VVrtE2LwS3B5WiU20jsUh9omHvrAtuBLrgpDPoxnCu2BhUnWISqbAROGoaVifq7FFtI7yobYQXKTqVT8JC5wjIWDPPs69/P+/282fu/JTSnNtv/3g1vdlGWI6wQIAAACAASURBVCyf3DZyxRr745+vlze/tacs8sE/8lGGHWt6yuGVaZHSM+HoFDPb8ZTDK9MiRqfaRiJR2wgvYnSqbYQX1C4GNwI95fDKTQGZXnnbxkmo0Y3h3FlFEB9zS6Hvr5e/nncH/2nE5x+XH/96s77tV9U2wstine/fzm//efdOK4oi//JfDPuPSOlBpehU20gsUp9o2DvrghuBLjjpDLoxnCs2BlWnmEQqbASOmobViTp7VNsIL2ob4UWKTuXzsGRiCTLWfPnr6XAiV9PkWWbt67/e3r9fthK1BLWNOK3keVEWfWfOPy5znchVSVkVL38/52U+WftwPkdPvx0PfFJGiJnteMrhlWkRo1NtI5GobYQXMTrVNsILaheDG4GecnjlpoBMr7xt4yTU6MZw7qwiiyqT+f56+nqc3YH1J9bY7/987Rr/Hp++ltU2Ek2UziLPd8fd4bQr91Vxt9EqTbUvX/56fv3Xm507fyhCCG4PKkUnjm3kt3xSgHTiRqAD7ljTBSedQTeGc8XGoOoUk0iFjcBR07A6UWePahvhRW0jvEjRqXwq/GtSRiCMNU8vh4BTe+2Pf70FZkYeyCe3jRRl8fT1dDjuwhu470F3h+r5z6fXf79N1D6Oz9HTb4faRmIRE4GecnhlWtQ2EovaRngRo1NtI7ygdjG4Eegph1duCsL0KqRtnIQa3RjOnVXEUYl7fx1Ou+c/TvQ3W2t//Ost5NyTgJbVNhJNiM48z48vh9PLkWXSuz/tnszp/ds56m9J6UGl6FTbSCxSdeJGoAPuWNMFJ51BN4Zzxcag6hSTSIWNwFHTsDpRZ49qG+FFbSO8SNGpfDbinCMPH2vuj9XLX0/0Z6y1r/9+D8+MPJBPaxspyuLLf72UVfSWN0QPenw+2N5eXiH2l/kcPf12qG0kFjER6CmHV6ZFbSOxqG2EFzE61TbCC2oXgxuBnnJ45aY8fHoV2DZOQo1uDOfOKhKJXlbDxYL317C7RO4b/b3++725tMuVjGrVNhKJV2e5K7/+10te5P4PR/L09WitrQNOAp5oGrVnkqJTbSOxSNWJG4EOuGNNF5x0Bt0YzhUbg6pTTCIVNgJHTcPqRJ09qm2EF7WN8CJFp/IJifjp/rFjzaLMv/797N2t80dkZuSBfE7bSLWvrpmRWEJ6+uc/TtX+YSm/WyXz5fDKtEjpmdQ2EouYCPSUwyvToraRWNQ2wosYnWob4QW1i8GNQE85vHJTcFP5qAk1ujGcO6sIZclRvutZ8P768tdzUXrUvn071+/NKiWjWrWNREI3XZTFl7+fr5mRRDpf/nouCk+oSOlBpehU20gsUnXiRqAD7ljTBSedQTeGc8XGoOoUk0iFjcBR07A6UWePahvhRW0jvEjRqXxOQpMjjx1rPn097g4eO8Db9/P5tcb5kZnmc9pGXv56WuYZmVAyr7Mo82ffxjTp+Bw9/XbgPNFiZjuecnhlWsToVNtIJGob4UWMTrWN8ILaxeBGoKccXrkpuKl81IQa3RjOnVXk8gDnSOz7a3+svAf3vn+/nH8E7TQR3LLaRqKhmz59OVY3Ga6kOneH6jQfM1J6UCk61TYSi1SduBHogDvWdMFJZ9CN4VyxMag6xSRSYSNw1DSsTtTZo9pGeFHbCC9SdCqflqDkyAPHmkWZv/zpcQGcX+v3H5cM6Udmmk9oG8mL/PhyWP7XyfKkztOX4/abj3yOnn47cJ5oMbMdTzm8Mi1idKptJBK1jfAiRqfaRnhB7WJwI9BTDq/cFNxUPmpCjW4M584qotnaORL7/vJuNdJc2rdvZwYlo1q1jUTitY3cLqjZRufk5iNSelApOtU2EotUnbgR6IA71nTBSWfQjeFcsTGoOsUkUmEjcNQ0rE7U2aPaRnhR2wgvUnQqnxl/cuSBY82nL56tRkxvXv/z/qFEyDP0OW0jh6f98r9OlgmdG28+8jl6+u3AeaLFzHY85fDKtIjRqbaRSNQ2wosYnWob4QW1i8GNQE85vHJTcFP5qAk1ujGcO6tIZ1PnSNT7a3+onr56thr58e930y8ZkqpthBe66f1pt71tZGC0+YiUHlSKTrWNxCJVJ24EOuCONV1w0hl0YzhXbAyqTjGJVNgIHDUNqxN19qi2EV7UNsKLFJ3KJ8d34umDXlhFmX/x/eb/9v3c1t2HEiHP0Ce0jWRZtjvsFv/d9T39NpuPfI6efjtwnmgxsx1PObwyLWJ0qm0kErWN8CJGp9pGeEHtYnAj0FMOr9wU3FQ+akKNbgznziq/Ads5R6LeX1/+fPJuNbLgeJqAluNsI0mR+iPzXfVuq0Nq5nj56zkv7m4sas8kRafaRmKRqhM3Ah1wx5ouOOkMujGcKzYGVaeYRCpsBI6ahtWJOntU2wgvahvhRYpORaESEI8aax5Ou/2R8hrcbjWSIdsxRh+G1ZlyDFftq9s1NVFw9fRFmRMn+67nc/T026G2kVjERKCnHF6ZFrWNxKK2EV7E6FTbCC+oXQxuBHrK4ZWbgpvKR02o0Y3h3Fnl92Aj50j4+ysv8pc/TvS3Ld5qhGw5y9Q2Eo9X560D6IE6T8+Hclf+KqP2THJ6erWNxCFVJ24EOuCONV1w0hl0YzhXbAyqTjGJVNgIHDUNqxN19qi2EV7UNsKLFJ2KkhHJkUeNNZ++HOkFNbdbjWTIdozRh2F1Jh7DFY+2jVx5/iPJyTWfo6ffDrWNxCImAj3l8Mq0qG0kFrWN8CJGp9pGeEHtYnAj0FMOr9wU3FQ+akKNbgznziq/DVs4R8LfX9WuPD1TZ76u2WqEbDnL1DYST4jOa6rr4TqrfXl4PnilPFznfDm8MjVqG4lDqk7cCHTAHWu64KQz6MZwrtgYVJ1iEqmwEThqGlYn6uxRbSO8qG2EFyk6FWVg+hSPR401n/885fNtj7Yaydb9yJznWZ7nRVnkRZ7neV7kRZkXw38UeZbnxpi+7ev3xk696LwtV7tyf9qXZZHlWWatMdYaa621xppf/2GsSfsavdf5699bFHmZFz+LeZ6XZW5tZnrTXNqu6Sa+bisSjTWfvhybc2Mn7+giPkdPvx1qG4lFTAR6yuGVaVHbSCxqG+FFjE61jfCC2sXgRqCnHF65KbipfNSEGt0Yzp1VfieAjjg9PO335JGrbdMdTvthZjtMbz/Gpnk+ZDryPM8+/iPLhv9X3Pxh9lGVF/n9+2lO1/H58P2fb6bv6X/m+G+9HJ6+nq7fSb8Nh3+Ptbf/32b25/8O//fxHz//+OPfnRX3/+pf/5Hl2ZDoyT4K2V3qaUbY8eVw/nE5/7gQsgPHxH1v/B9OyW3TeZE//XF6c1Nscx/eGDk9vdpG4pCqEzcCHXDHmi446Qy6MZwrNgZVp5hEKmwEjpqG1Yk6e1TbCC9qG+FFik5FuTKRjHjIWDMv8uevnvNEDqf94Xar1kgpy5SXVfny19P3f/wI/6pqXz1//SXU+17Is49cxsd/+j8dqiTqq0acvhy7pm/rlv4OL6YzsX8l6Vjz8LSv3xsWX8zn6Om3Q20jsYiJQE85vDItahuJRW0jvIjRqbYRXlC7GNwI9JTDKzcFN5WPmlCjG8O5s8pvRto9R8LfX89fjyW5Dyuzkpja3b4sq5L8iMOR3DaFBupHZuIfEq6z73q0HvRp5jgkNJ2hH94UtY3EIVUnbgQ64I41XXDSGXRjOFdsDKpOMYlU2AgcNQ2rE3X2qLYRXtQ2wosUnYpyyzgf8ZCxZrUvj8NOmeFs+wxVN6fAeluudr/8OFIOqZnEOft2KaY3Uf3FBmPNahcfb3d8jp5+O9Q2EouYCPSUwyvToraRWNQ2wosYnWob4QW1i8GNQE85vHJTcFP5qAk1ujGcO6v8fmxo1iBsI3+cHjiG8zVtsywzMdum2qXjZrQfmec2i43VOWw7sj1EBJ6+HHP3jGHt6QNQ20gcUnXiRqAD7ljTBSedQTeGc8XGoOoUk0iFjcBR07A6UWePahvhRW0jvEjRqSgjnOTIQ8aau0O1I/dh3U7KPH3bh7f868OSbSNZlrVMB9aYLnQ7283GmnmRrzGPfI6efjvUNhKLmAj0lMMr06K2kVjUNsKLGJ1qG+EFtYvBjUBPObxyU3BT+agJNboxnDur/Jakco6Ev7+evhzBbSPn19qYCO/D+Ue9YOyM9iOzNfbyWvuEeKqHUlM/4FRgbwQenw/Xw3u0pw9AbSNxSNWJG4EOuGNNF5x0Bt0YzhUbg6pTTCIVNgJHTcPqRJ09qm2EF7WN8CJFp6Lc8ys58qjdRnYHXNuItfb84/L+/RzVct/13//x+nHc7iNYbxvp2/77P14N03KY5tyEdBwbjzXzIj88Ldk693P09NuhtpFYxESgpxxemRa1jcSithFexOhU2wgvqF0MbgR6yuGVm4KbykdNqNGN4dxZ5XclMjERRoRt5AXCNmKtNb2x1preGmOsscbYvu27pluW4+ia7t//71u1K6t9lRd5URZFkedFXhRFUeb53ZvyIT8yW5tZa21vjLHWWGOM7a2xtqu7fmYhzDKd1tjm0u5Pu/WaA7k2bXpTlMWc7uPLsX5vMpw0FmwPqraRSKTqxI1AB9yxpgtOOoNuDOeKjUHVKSaRChuBo6ZhdaLOHtU2wovaRniRolNRJvlIjjzGNrIroyfMHFJsb96+nY2x2c+cyMzs2J0QxjQxXM+u7bt2IsuQ5/k1Y1Luyqcvx5jv9jU9X3V5b9q6/ZUKMXazV1L93tD3OtFYs2v6orLVfvrYnaLM96d98z6xemiOz9HTb4faRmIRE4GecnhlWtQ2EovaRngRo1NtI7ygdjG4Eegph1duCm4qHzWhRjeGc2eV3xh+50j4++v05fCQMVxeFm3ttYQkHARba21vPxatXNrT82F0cooD33shz7Lm0q756+HVow+3dfth4kjPbdN5kV/e6pf909yHT18O7bl5yBooOT292kbikKoTNwIdcMeaLjjpDLoxnCs2BlWnmEQqbASOmobViTp7VNsIL2ob4UWKTkWZo8geNNYsq+JwitzxgU/KPnKziQW2kXDq9ybuLxBNk7W70+52Rc/GryTin5lurJnneXNuiM1TyrIIty99jp5+O9Q2EouYCPSUwyvToraRWNQ2wosYnWob4QW1i8GNQE85vHJTcFP5qAk1ujGcO6v83jD/kh9jG3nkbiMHz3x4w0zwsF8pUT1biqYo8ir21OTApgN01m9B27KuZNR0UeVZlp1/TC+cGT58fOFc1hSInJ5ebSNxSNWJG4EOuGNNF5x0Bt0YzhUbg6pTTCIVNgJHTcPqRJ09qm2EF7WN8CJFp6IQFA8ZaxZl4UtPpJWy21cFsZJlRcsLfgyf25oklpBZ2fWyb/9KMsZc3gLOBmYdaw5OmebcmH62DyurYh9gYvocPf12qG0kFjER6CmHV6ZFbSOxqG2EFzE61TbCC2oXgxuBnnJ45abgpvJRE2p0Yzh3Vvnt4XSOhL+/nr4cPFkZXiVTtfMraza1jQzUk+aRBO+F3XF3f1aOF64x8fn1YkzCy3sfgcNmLtba+7zM7YePL4d0qu6R09OrbSQOqTpxI9ABd6zpgpPOoBvDuWJjUHWKSaTCRuCoaVidqLNHtY3worYRXqToVBQaKjmSKHDzPAv5oT61lEDrSmrbyEDzvnyf1I+mw6qLIt8dqke9kqyxlx+X2z/ZYKw55Efq99rO52WGQ5epL/GUwyvTIqVnUttILGIi0FMOr0yL2kZiUdsIL2J0qm2EF9QuBjcCPeXwyk3BTeWjJtToxnDurPIZYHOOhL+/9sddOb+kpW06ZiUztdWumjo85QG2kSzLjDFt3c1Ws74X9se4BU28P4bX79T2qGuYi8DBKWONvdzsCHuvM/ayLEZOT6+2kTik6sSNQAfcsaYLTjqDbgznio1B1SkmkQobgaOmYXWizh7VNsKL2kZ4kaJTUbzMJkfSBS59SM3bt/N4A45kUrzHlGxjGxm4rDizJmpWtl+0soYLa+379w/zyDZjzWsKrH6tiRN796f93GX5HD39dqhtJBYxEegph1emRW0jsahthBcxOtU2wgtqF4MbgZ5yeOWm4KbyURNqdGM4d1b5JPA4R8LfX0WZ74+z6xf6ru+afnoDjmVKyNq7lTWPsY0MtJfWXufuKd8LeZHvDqFn1qT4Mbw5N13DsAEt1fRN+ZryMMY0783Eh7Msy7KijLgsi5HT06ttJA6pOnEj0AF3rOmCk86gG8O5YmNQdYpJpMJG4KhpWJ2os0e1jfCithFepOhUlBCmkyNJbSOEbWFwT9S3HoqUz9DMypolLa//Mdxa25yX7DwSNSsbiN7zhZu3b++bjTVvb8359TL/wek9ej9HT78dahuJRUwEesrhlWlR20gsahvhRYxOtY3wgtrF4EagpxxeuSm4qXzUhBrdGM6dVT4PDM6RqPfXcfaMmMxaO6RFTG+bC3+aYLL2xjzySNvIwIdlJv17YXeoQlbWpPsxvG/7yWN9l0FH4O1SGtObdj60doddHnzA8wLk9PRqG4lDqk7cCHTAHWu64KQz6MZwrtgYVJ1iEqmwEThqGlYn6uxRbSO8qG2EFyk6FSWQieRIusAtq6LalXO1zaUz/cdLpx48FOmfobltRza2jQy0dddHbla6wDaSZXEra1KQZ9n5x82xvinHmtbdaISw5+R5tj86ybvP0dNvh9pGYhETgZ5yeGVa1DYSi9pGeBGjU20jvKB2MbgR6CmHV24KbiofNaFGN4ZzZ5VPxVrnCJdtJHNX0zTnxswfvBqkJKz258qax9tGBkaWmXTvBe/KmtQ/hltj37+d4/8eLWQqyX+THMmzrK1bYlvWAxmia5DT06ttJA6pOnEj0AF3rOmCk86gG8O5YmNQdYpJpMJG4KhpWJ2os0e1jfCithFepOhUlHDGyZGkgUucU2N6c5sXsDZr6yUraxZwty3rY2wjA3XMmTXLbCMDDzyz5tpqc27auks+1nT7MmssEVrVvrxuQ/M5evrtUNtILGIi0FMOr0yL2kZiUdsIL2J0qm2EF9QuBjcCPeXwyk3BTeWjJtToxnDurPLZWOUciXp/7Q9VWc02d3+QLWOagK49PHkO9GXEO9bsu/56knHa90Ke7Y6z//DNfgx/+8/7mjlISATanxakm6QMlXdLYR6R09OrbSQOqTpxI9ABd6zpgpPOoBvDuWJjUHWKSaTCRuCoaVidqLNHtY3worYRXqToVJQonGxFWttI8JqaLMvyPGvrzkZuwLGMsipvz6x5oG1kIDArtMY2MrCfT46kY6TLGHN7gkyKCLR3q2jolTXDmTWfo6ffDrWNxCImAj3l8Mq0qG0kFrWN8CJGp9pGeEHtYnAj0FMOr9wU3FQ+akKNbgznziqfkOXOkdj3135+B9C27vpuIg9ybycJUhJTO3T8xHofRgLHms25tXaL98LcypqNfwy/vNXXjXijCIzAITlyW2mN7epu7mvLsiAOeF6AnJ5ebSNxSNWJG4EOuGNNF5x0Bt0YzhUbg6pTTCIVNgJHTcPqRJ09qm2EF7WN8CJFp6LEstAxEUtZURPOxt0D4vq8Ra2sWcN1Zc3DbSNZlhljumZ26v7R9KrqXx8jVtakYLIHtcZeXi8TtRzYmW19mwsVWvuDe1l+z55+O9Q2EouYsaanHF6ZFrWNxKK2EV7E6FTbCC+oXQxuBHrK4ZWbgpvKR02o0Y3h3Fnlc7LwF/LY9xd9cGx7mc4F9J3pf27AEaokpvba8ZdVWVazZwyzEDXW3C4rFLsZbZr3V/3emJVnGAfbRgaaC7WyhvGcYzk9vdpG4pCqEzcCHXDHmi446Qy6MZwrNgZVp5hEKmwEjpqG1Yk6e1TbCC9qG+FFik5FWcDMwRzcELNN05vuJgMyet42SxPsjzsE28hAe2nvd8r41TT9l2OE7Q67vNjorUX0oNbay49LloC+nc65ECtr8iyr9pVTnkd7Jn/TML2imNmOpxxemRYxOtU2EonaRngRo1NtI7ygdjG4Eegph1duCm4qHzWhRjeGc2eVT8sS58iC99duP7/hCLmEhE6OsNhGBpKeWRM71rTW0ieqsJFnu5slJA/8Mbx+b7wuodmm56X0XT9XeXt09IiizFmcRHJ6erWNxCFVJ24EOuCONV1w0hl0YzhXbAyqTjGJVNgIHDUNqxN19qi2EV7UNsKLFJ2KsowiSx+41a6kNhy5WVNz/7wZY9v5SSwjVczKmg1+DK/P01khRtvIwP3KmhSE9PTn15q93cmNfgcm4+qq68Pr9Hv29NuhtpFYxIw1PeXwyrSobSQWtY3wIkan2kZ4Qe1icCPQUw6v3BTcVD5qQo1uDOfOKp+ZaOfIEtsIveFI7cl9zJlHGG0jA4nSBMvGmm3d9ZucZHxdWfPwH8PbSxtybE1UBJpu1o1ijGnnz6ypVm87IqenV9tIHFJ14kagA+5Y0wUnnUE3hnPFxqDqFJNIhY3AUdOwOlFnj2ob4UVtI7xI0akoi9liw4lqfk1N3/XX+fDc89Zc2rkzR7j4SOKEJUc2+zH8fmUNu21k+Fv7xGfWBPb01tr6ndk8YuadI9mdeeRWV7WvftOefjvUNhKLmLGmpxxemRa1jcSithFexOhU2wgvqF0MbgR6yuGVm4KbykdNqNGN4dxZ5ZMT5xxZ9v4inCPNzDk1t1g7sT0Eu20ki1xZE8iasSbQZrRbvb/qt4Y4RGaiaVqKscZQyZFufpeTosjL3fJgkNPTq20kDqk6cSPQAXes6YKT+BsDE4EeUHWKSaTCJNQ8TcPqRJ09qm2EF7WN8CJFp6KsYeFRvuFU+7KYt6dc19TQz1vSNMFty96VNVuOifuu75qbc3zoT68QlvTMmqie3hjDuMWMd11S381fXner2rvKhyGlZ8KZPYqZ7XjK4ZVpEaMTxjbiSeXDPNFqG+FFjE61jfCC2sXgRqCnHF65KbipfNSEGt0Yzp1VlIjkCLttxFpLbPpwS1t3t+sjUthGBvanfYieQNaPNee2ZeUlp1fWbPv+urzNrqyJjUB6TU2WZdZYIoFCHLFEI6enV9tIHFJ14kagA+5Y0wUn8TcGJgI9oOoUk0iFSah5mobViTp7FBOBnnJ4ZVrUNsKLFJ2KspL0zpH5tQld0w9rKEKet0RpglHLZVUQK2u2HxM35/bjEtGfWy2MNyt0ZUFP3zVd+Jm+NP38bqy/PtP2E0ryLMuyuWU12jP5m4bpFXWsyYsYnWobiURtI7yI0am2EV5guhgxEegph1duCm4qHzXxRzeGc2cVJQtPjix+fxG5BmLHh3uuK2vS2UYGuM6sYRlrGmO8p/msZGh6t6+mV9Y84v1V3+1EO9F0QASG+JJuFy6NKMp8wWojOT292kbikKoTNwIdcMeaLjiJvzEwEegBVaeYRCpMQs3TNKxO1NmjmAj0lMMr06K2EV6k6FSU9SR3jpTVbBNDciTwees70zVBa3DCmWx5zkPxqDFxfW5T20aGL2E/s2ZxT89yo63NQhwofdsTOu9Te9oz+ZuG6RV1rMmLGJ1qG4lEbSO8iNGpthFeYLoYMRHoKYdXbgpuKh818Uc3hnNnFWUgKDmy+P1VlEU+/xYJWfVwS+NLE6y3jWRZVlYFsRQoEMaxZntpDX2Cywpum57ICj3o/dU13ejw5gUR2DWdDbhudAKFSO0RTc+XwytTo7aROKTqxI1AB9yxpgtO4m8MTAR6QNUpJpEKk1DzNA2rE3X2KCYCPeXwyrSobYQXKToVhYW0zpFqR31/35mo561+bzK+NAHR8n2a4JFjYmubqWUmH/AJm11Zs4iVPX272jwSaD+xxpj+JqhcZYXrHNGeyd80TK+oY01exOhU20gkahvhRYxOtY3wAtPFiIlATzm8clNwU/moiT+6MZw7qyhX/MmRNe8vYsMR05uRO8CLNba5zM54WWwjAysXmLD/yNxsshltlrtZoYe+v263C1kWgYEHIWWkeSTKOSKnp1fbSBxSdeJGoAPuWNMFJ/E3BiYCPaDqFJNIhUmoeZqG1Yk6exQTgZ5yeGVa1DbCixSdisJFWucIMbeMtY0McKUJ6JZHK2seOCYeWm7rbvrEWW5hXNuOrO/p28uqbWgDNxwZlHTX5V13ym6ze9oz+ZuG6RV1rMmLGJ1qG4lEbSO8iNGpthFeYLoYMRHoKYdXbgpuKh818Uc3hnNnFeUWT3Jk5furKInkSNyGI8OXN5d20m/CaBsZWHy0baIfma+H9XAx2fRuXxVFcV+9/fvL9Mb0ZqLpsAjs6qANRz4+PL8Ahwhgjy7YHlRtI5FI1YkbgQ64Y00XnMTfGJgI9ICqU0wiFSah5mkaVifq7FFMBHrK4ZVpUdsIL1J0KgojqZ0js8tqYpMjA9Zm9WrzSMjTe/VQPNw2MjCx7UgKYXm2W32SMVdP384vofL/3YANR65KPjwmU8ry/COGtWfyNw3TK+pYkxcxOtU2EonaRngRo1NtI7zAdDFiItBTDq/cFNxUPmrij24M584qyggqObLy/ZXnnmU1pLDZL79PE7DbRrKlZ9ak+5G57/quWZJOChDicDjtQN5ffUcdsnvPbWXUYcCmN2Z++5sQ84icnl5tI3FI1YkbgQ64Y00XnMTfGJgI9ICqU0wiFSah5mkaVifq7FFMBHrK4ZVpUdsIL1J0KgovCZ0jhG0ky4O2hJikrTsTk1i5azmU/WkPYhsZcCwzyYRV15U1i2Ds6YmEBY011htdIyXEGpyy4jvCJx4pPRPO7FHHmryI0am2kUjUNsKLGJ1qG+EFposRE4GecnjlpuCm8lETf3RjOHdWUe6ZnQavf38RthFrbPjUdyJNcLMBRwrbyMAhcoFJ6h+Z63PDcpCxV+ftypoHvr/saA/a4AhsLm34hiMfbRHOESLHN6kLtgdV20gkUnXiRqAD7ljTBSfxNwYmAj2g6hSTSIVJqHmahtWJOnsUE4GecnhlWtQ2wosU8RV+tQAAIABJREFUnYrCTkLnyOx6hDwzk2evBLN425Gop7esimpfLWtoJZM6rbFt3c5W83FYemYNb08fe9LzlYn9WVzudRJtleXD3vm4szIXHJ061uRFjE61jUSithFexOhU2wgvMF2MmAj0lMMrNwU3lY+a+KMbw7mzijLJdP6C5/01/7fC572T39F3ZthUIp1tZCD8aNttfmRef2ZNiM7q8LGy5rE9qBMkwRFoehu14cgA4TTJyV4Rp6ePehbUNuJFqk7YMZwL7ljTBSfxNwYmAj2g6hSTSIVJqHmahtWJOnsUE4GecnhlWtQ2wosUnYqSgoTOkelZZZ5lK7aTuLIgTRDXKeZZFr+yhgVCZ1t3hmVpjY8FZ9aw9/TGLLEXtb41NZM6CSsTnRxJB+6szAVHp441eRGjU20jkWjijxcxOtU2wos+KZFI0TkCN5WPmvijG8O5s4oyx0RyhOv9Rc0qw2b4xJfX59Y3zGUYBBdl0Mqazcaa1lrvmpFgIVT14bhD6EFNb50y+eGBZUuuKOfI/H6sOD292kZ4kaoTdgzngjvWdMFJ/I2BjUCyGudyikmkwiTUPE3D6kSdPYqJQE85vDItahvhRYpORUlESufI/azy5x/E7pd5jzW2uUSsnlhgGxnY2DziHWsu3m8liuvKmkAS9fSx5pG+N/SamjmdxDqvhzhHcGdlLjg6dazJixidahuJREo6Q0wEesrhlWlR2wgz+qREIkXnCNxUPmrij24M584qCsF4Asz4/iJmlSHLarxjTXJlDdsg2LvtyMZjza7p+kUnGcfq3D9iSdFIiDU2KgIX22qobN2MAJyeXm0jvEjVCTuGc8Eda7rgJP7GwEYgWY1zOcUkUmESap6mYXWizh7FRKCnHF6ZFrWN8CJFp6KkI+meI6PyzX9zvI7aOvTE1sW2kSx4ZQ0LgWPNbcwj+9M+8JPpevrYA2sacicaQieRrSOW1SQCd1bmgqNTx5q8iNGptpFIpKQzxESgpxxemRa1jTCjT0okUnSOwE3loyb+6MZw7qyi0DjJEd73FzGr9CY1Qsaa1s6lCZgHwcTKmoeMNbumj/0rC3RW+3L2MOZkjPNpZGJiVNe1fd9FX5kBOgtz74HC6enVNsKLVJ2wYzgX3LGmC07ibwxsBJLVOJdTTCIVJqHmaRpWJ+rsUUwEesrhlWlR2wgvUnQqSlISzn6L25mt+wytP61mIOTMmjW2kYHwA33XED7W3B03crKE/MOT9vRRrg16TQ2t03PAzYZTJdxZmQuOTh1r8iJGp9pGIpGSzhATgZ5yeGVa1DbCjD4pkUjROQI3lY+a+KMbw7mziuLlV3Ikwftr3jlC/1BPf+lNddfcmwX4B8FzK2seNdY8BC94CWp6Xmf4yhoW7iOwKGe131c0K1YbeQLSzdHg9PRqG+FFqk7YMZwL7ljTBSfxNwY2AslqnMspJpEKk1DzNA2rE3X2KCYCPeXwyrSobYQXKToVJTWbnFZz/05afVrNlTi/AAnxXkh9Zk2EbeRQFVvtguFdWZO6pw+3bLR1Z/rZfWq9Pb0nILfqBHBnZS44OnWsyYsYnWobiURKOkNMBHrK4ZVpUdsIM/qkRCJF5wjcVD5q4o9uDOfOKkoIH1PfFO8v4uVCzEVjx5oXZ2VNqkHwvYfiUWPNXeQan5U6t1lSNNF0nmV3lo3ZD684p2YgfM8RnJ5ebSO8SNUJO4ZzwR1ruuAk/sbARiBZjXM5xSRSYRJqnqZhdaLOHsVEoKccXpkWtY3wIkWnomxA+h03Ez9Dpjdt061vmX4vFEW+O6Ta6SNqrHncdqkLsbImuW0kxiDTXmaTI1E9/QPBnZW54OjUsSYvYnSqbSQSKekMMRHoKYdXpkVtI8zokxKJFJ0jcFP5qIk/ujGcO6sogRRZsvcXsVJhbrnEsrHmz80m0maCbz0UD7ONHKqolMF6nducWTMZgUUx3e69zvbSGTO7piZIANkZXo1OOD292kZ4kaoTdgzngjvWdMFJ/I2BjUCyGudyikmkwiTUPE3D6kSdPYqJQE85vDItahvhRYpORdmGhPNea+w2z1B9bu9fdoy2kYFEu5NGjTU3W+Ryy+T+rxv09OFJmeYyuxVraE9PK07fk+LOylxwdOpYkxcxOtU2EomUdIaYCPSUwyvTorYRZvRJiUSKzhG4qXzUxB/dGM6dVZRw7nwInIE8v7HI1Otn8VjTGrtyy4kQritrHjjWjDqnhkvnfuPNaH+Wy13p/3CWWZs182tqgjWQzhFjJ5qGtWOobSQSqTphx3AuuGNNF5zE3xjYCCSrcS6nmEQqTELN0zSsTtTZo5gI9JTDK9OithFepOhUlM2Ic45EPRXUrqvcj1ftHuPKbhsZYDePxNlGItfUcFHuxitrtunpq6nkyD1t3c5tpxrR05OibeLeFHdW5oKjU8eavIjRqbaRSKSkM8REoKccXpkWtY0wo09KJFJ0jsBN5aMm/ujGcO6sokThJkdYA5k6AeTuDbRurGnbujPkgSMs7I+7B441o86p4dUZ5ViJgoiDe+fIpE4W05BnzxFjcXp6tY3wIlUn7BjOBXes6YKT+BsDG4FkNc7lFJNIhUmoeZqG1Yk6exQTgZ5yeGVa1DbCixSdirIlEc6RWDsGsSFrwe2AsNb+3JY1lW0k4z6zJnasmS5D4eV2Zc02PX2e52XlD05r7Nw5NXE9/XwtfcrvenBnZS44OnWsyYsYnWobiURKOkNMBHrK4ZVpUdsIM/qkRCJF5wjcVD5q4o9uDOfOKkosN/NP7kAmltWMWGkbGf6nfp/dlZOLnF5Zk9Q2ErOmhn1MXO7Ksgpa5BLFettIW3fhYUYpobIjQD292kZ4kaoTdgzngjvWdMFJ/I2BjUCyGudyikmkwiTUPE3D6kSdPYqJQE85vDItahvhRYpORdmYUOfIAjsG8ZN7ir0zurbvO5PONjLAdV5M7Fgzak1NCoZ/+GY9fWAupjlPZ8Rie3riZByW5Mts00J6GxydOtbkRYxOtY1EIiWdISYCPeXwyrSobYQZfVIikaJzBG4qHzXxRzeGc2cVZQE/54QJApmYVd7ORVlsIwNJzSODkKLId4epPEXi9wK9puY2D5VoTMx+Zg3dg452Y53UaY1t645FDLXOa5Tjg7VjqG0kEqk6YcdwLrhjTRecxN8Y2Agkq3Eup5hEKkxCzdM0rE7U2aOYCPSUwyvTorYRXqToVJTtCXKOLLNjEM6Rcv6H+jXM+QgmWTwmXp8miLaNkGtquqbb4CTjcldWIzdHyp6+3PudI825nUzALejp80c4R3BnZS44OnWsyYsYnWobiURKOkNMBHrK4ZVpUdsIM/qkRCJF5wjcVD5q4o9uDOfOKsoyiix7QCBfp/qMtpEsy0xv2obHSjBWcvPf++NuvEVF4vcCvaamPrd14Ga063QymkfoHrQoilvnyJzOOiYXRjO3rCYfJUdg7RhqG4lEqk7YMZwL7ljTBSfxNwY2AslqnMspJpEKk1DzNA2rE3X2KCYCPeXwyrSobYQXKToV5SH4HRzLbCNZlpnezH0s5CCSWIaWA1fWrBkTF0Ve7ZefWbNgrEmtqbFZe267pjPd7NVmIR/tt5Kyp68CjgQyve2mEmHLenpiWY3pk3SruLMyFxydOtbkRYxOtY1EIiWdISYCPeXwyrSobYQZfVIikaJzBG4qHzXxRzeGc2cVZTFFukDuiel6nueFZzAZaxsZaC4t++j4XsjhtFGaIPOtqWmbzhiTZVl9blKPibnOrPH2oLfnJc/pjFpC5WXSOTI0/SvHB2vHUNtIJFJ1wo7hXHDHmi44ib8xsBFIVuNcTjGJVJiEmqdpWJ2os0cxEegph1emRW0jvEjRqSiPwuPgWGwbybKs73riw7zbjlxbtsa2vg041o+J96e7lTVhLBhr0mtqrjmCDTajza4ra5Lng/zrd5rLxF1e3NMT6Sc6jJeBOytzwdGpY01exOhU20gkUtIZYiLQUw6vTIvaRpjRJyUSKTpH4KbyURN/dGM4d1ZR1pBkY9QBazNirQd1PshS28jAhTVNMCkkz3+urEn/XqDX1FxzBLY3k8tMPmDSuScPzQnB24OWu7Io85nKD3r6HxtJURb3yZFr+SOGYe0YahuJRKpO2DGcC+5Y0wUn8TcGNgLJapzLKSaRCpNQ8zQNqxN19igmAj3l8Mq0qG2EFyk6FeWBUMmRNbaRAeJX93LHsEDjo2m32NatmT8oh2tMfIjfnXSJbYReU1O3t0cC1WnOrLltvqyK0Tkyj7GNTP1LF/f0VChaauucZeDOylxwdOpYkxcxOtU2EomUdIaYCPSUwyvTorYRZvRJiUSKzhG4qXzUxB/dGM6dVZSVJHSOZPPbjuRZVs3PSNfYRga4NqQghOxPu1HaIsV7wXtOzW3TzbmZvjas7689KYkmpAe9bjhC6OTdcOR+e91ftpHeWGvVNuJF6qyMrAbSCTuGc8Eda7rgJP7GwEYgWY1zOcUkUmESap6mYXWizh7FRKCnHF6ZFrWN8CJFp6I8ltnkyHrbSEYeWEMkR6KYbHluAw7GMfGvlTWBn4+pvpY859S4+25YYyd34ljDfQ96u7KG/dWZB5wE1Hemb8eOpDU9fTW/yyz7hiO4szIXHJ061uRFjE61jUQiJZ0hJgI95fDKtKhthBl9UiKRonMEbiofNfFHN4ZzZxVlPWmdI93dJDb7+QiV1fRxNettI0O73epprXesebuyJolthFxT01xaa+2o6QlLBff7q6yKZUuigmwj+2oIgM1sI1mWEQuF+s6obcSL1FkZWQ2kE3YM54I71nTBSfyNgY1AshrncopJpMIk1DxNw+pEnT2KiUBPObwyLWob4UWKTkV5ONPJERbbSOY7zXfy/NQoqCn0+9hDwT4mDj+zZtlYM/CcmlvaurPz+63EMteDDn6WFK/OkA1f7zccWdPTT+7GeoXXOYI7K3PB0aljTV7E6FTbSCRS0hliItBTDq9Mi9pGmNEnJRIpOkfgpvJRE390Yzh3VlFYSOscMb3JrPv79s1/36+sYbGNDKw82jZkrJnn+bBBRqL3ArGmxhrb1t1909ba+jZpkub9RWdtJgnpQfMiH76Z0Nk1PW/CYrSKZ9Q0vRur2kb8Xw7Tg0rVCTuGc8Eda7rgJP7GwEYgWY1zOcUkUmESap6mYXWizh7FRKCnHF6ZFrWN8CJFp6IgMJEc4bKNDBDmkZUH1tAtG2OG9MHHh9M86yG7ky60jdDn1PxcU3PP5EkuCyB60LIquLaMuWV/3Hlv071fZmVPT/9DiLOoY8Gdlbng6NSxJi9idKptJBIp6QwxEegph1emRW0jzOiTEokUnSNwU/moiT+6MZw7qyhcpHWOZFl2u3fm6BEazUsZbSMD9dLNKcLHmvvTbnrrlNWEnFMz2XDXdB8JqZTvL2qn2DsCe9D90b9ah33H2dsM3b0Nx5jZ5IjaRvxfDtODStUJO4ZzwR1ruuAk/sbARiBZjXM5xSRSYRJqnqZhdaLOHsVEoKccXpkWtY3wIkWnooAwTo7w2kaymT1ZB6qfu28uIOTvNeefW5Yme9avK2tmP+D5+7Ml35oaKkfQrFtSdKdrQuf+tPxA30mKotgdPefUtHU3Wueyvqcn7Etdw7Z+B3dW5oKjU8eavIjRqbaRSKSkM8REoKccXpkWtY0wo09KJFJ0jsBN5aMm/ujGcO6sojCS3DlyXdty/wjlRX6dmrLbRrIss3bJ0baxY82QPURj8ZxTM28bGajPTer3V1EWgScZh9pGTp7dRjK+FUNXyqq8Xuf7prumu/uzbO7DjKhthBepOmHHcC64Y00XnMTfGNgIJKtxLqeYRCpMQs3TNKxO1NmjmAj0lMMr06K2EV6k6FQUHJzkCLttJMuyru2J81N2YRPscdPBn6zf29Rj4v2xmjuzZvFY03NOzcVjDDG96erZib2XwJ4+ZL+VcLw5Jmuz1k11re/pqz214QiRHIkCd1bmgqNTx5q8iNGptpFIpKQzxESgpxxemRa1jTCjT0okUnSOwE3loyb+6MZw7qyi8JLcOZJlWVt3c4/Qx+kkCWwjP5tuTczRtgvGmt6VNQsg1tSY3hDX84Pc2W8l0fsrZGVNYA9aVmW1L2mdXd0RO4Aso6x+Gpfuqqy1c8kRtY34vxymB5WqE3YM54I71nTBSfyNgY1AshrncopJpMIk1DxNw+pEnT2KiUBPObwyLWob4UWKTkWB4ldyJIVtZID4BX63L2OHrbE6V57pG8Kk62G5bYReUxO2UKi5tMu6ifCePnxljZeQPMvIL8PS0xP61TbyKHSsyYsYnWobiURKOkNMBHrK4ZVpUdsIM/qkRCJF5wjcVD5q4o9uDOfOKgo7WzhHqCUeftvF2kFweHJk8Vhzf9zNraxZgGdNzbkN0WnNx34rSd9fdFIjvAfdn/a0Tmv5z6m5bnkz2fRc0KptxP/lMD2oVJ2wYzgX3LGmC07ibwxsBJLVOJdTTCIVJqHmaRpWJ+rsUUwEesrhlWlR2wgvUnQqChofyZF0tpFs2Hakn10QEbXtyAKdfdcTJ+awkOfjjMaasSa9pibc0bDAMhPb07NsO1LuyrLyJOnaur3duYalp98fd8RfbDmcI7izMhccnTrW5EWMTrWNRCIlnSEmAj3l8Mq0qG2EGX1SIpGicwRuKh818Uc3hnNnFSUFyZ0jwyPUzv8OTx7gyjMIvt2AY46VY02u3Um959SE6xwlFFJArKwJ70F3h533Pct+Tk2WZfvjPpvRZY3tpxJqahvxfzlMDypVJ+wYzgV3rOmCk/gbAxuBZDXO5RSTSIVJqHmahtWJOnsUE4GecnhlWtQ2wosUnYoCSJElto0MEL/DV7uqKINyNIt1Nu/8U+sRtytr1ow16TU1IVmeW5qYzy/r6UO2C6Hx5pWssbfn1LD09EVRVPNZObWNPAQda/IiRqfaRiKRks4QE4GecnhlWtQ2wow+KZFI0TkCN5WPmvijG8O5s4qSiLTOkesjNOkcudYepifYbINgY8ycdWWkJKR68sP3K2uWQa2p6Yyh1wfd6dxiM9qpf3V4D1oUxY48TzfLsubSWss8I/o4JmmmdnLDEbWN+L8cpgeVqhN2DOeCO9Z0wUn8jYGNQLIa53KKSaTCJNQ8TcPqRJ09iolATzm8Mi1qG+FFik5FwWR+CccUi8eafWdMN7vtyJJDYekP3316gzTBkOJZZRsh19TE2kayLOvbfnJ5iE9XRE+/8swaclHVB7drarh6+sPTbBIq4ziqBndW5oKjU8eavIjRqbaRSKSkM8REoKccXpkWtY0wo09KJFJ0jsBN5aMm/ujGcO6soqQjoXNk9AiNlirc1k6trGEeBBPuA66x5u6w9swa2nvS0vtuzOhMsVvHiFFuK6oH3R/8a2q4TtW9UpRFuS/ndJne9N04o6S2Ef+Xw/SgUnXCjuFccMeaLjiJvzGwEUhW41xOMYlUmISap2lYnaizRzER6CmHV6ZFbSO8SNGpKLBEJEdWjjVp78bMypqfTcc0NKnTWps6TZDnvu0zfD0osaamb/v7GXsIIZaZlT39sLPpAnL/Qc5Zc/6V1eLq6ffz1znLGM4Mxp2VueDo1LEmL2J0qm0kEinpDDER6CmHV6ZFbSPM6JMSiRSdI3BT+aiJP7oxnDurKElJ5Ry5f4TauruurJnICzjLHJIMgieXpfCONekUD021J8+poXMc8zq9+62spyjz68qaqB50R/6TBxYsJvKyP1Hn49xfarWN+L8cpgeVqhN2DOeCO9Z0wUn8jYGNQLIa53KKSaTCJNQ8TcPqRJ09iolATzm8Mi1qG+FFik5FQSY0OcIy1iQmumVVltW0mPW2kYG27kw/u+/JevJhZc3cbN/Xg9Ibr6yxM9Bn1rD09ITnhcBrGzH9rzU1XD19WZXlbnYL2MUOnV9NC+ltcHTqWJMXMTrVNhKJlHSGmAj0lMMr06K2EWb0SYlEis4RuKl81MQf3RjOnVWU1CRxjsw9QsMSj7nan+aRhIPg2l1Zwz7WzPNs59tEYw5qTU1DpnV8Optzmzq9Pn34i69n2vmMNlFHEQfisY3ctai2Ef+Xw/SgUnXCjuFccMeaLjiJvzGwEUhW41xOMYlUmISap2lYnaizRzER6CmHV6ZFbSO8SNGpKOAEJUe4xpp9Z4jNNY/Ph/uGuGwjA+nOrLm2PL2yxteD0mtq6nW7pVhr5zw7XD397cqaQMqqLMe78I65+mUYe3p6w5GVq3hwZ2UuODp1rMmLGJ1qG4lESjpDTAR6yuGVaVHbCDP6pEQiRecI3FQ+auKPbgznzirKBvA7R+hHiFgekud5yJm+a+i7vvt5tG2isSa1smYe4h+e0+fUhOnc4Mya4yjp4LWN0JvXZlnfU6m0ZVT7am71VpZlbd1a45o1eJt3UdsIL1J1wo7hXHDHmi44ib8xsBFIVuNcTjGJVJiEmqdpWJ2os0cxEegph1emRW0jvEjRqSj4+JMjvGPN5r0hXmrH54PTdMw3B+pMscHnbcsTZ9YE9KDEmpq27oxZu1VKW7fGjC87b0/vTXaM8Jzsc5PQ4bSNkI2uNBbhzspccHTqWJMXMTrVNhKJlHSGmAj0lMMr06K2EWb0SYlEis4RuKl81MQf3RjOnVWUbWB2jnjHmsbY5jJnB7DVroxdnRFL897axGNN77R/BLGmJqf33YjR6TnvZh35aGWNr2fKi7zaz+6KOsC+4Uhe5O6hSA7W2s491kdtI/4vh+lBpeqEHcO54I41XXASf2NgI5CsxrmcYhKpMAk1T9OwOlFnj2Ii0FMOr0yL2kZ4kaJTUUTgSY6kGGvSv88fnz+mrylsI9lwtO2Kk18mmr77E2dlTUAPSi0msqvOqbllZJlJ0dOHn1njzR91bd+3/YSSFT398eVIHZZ8bq1d3uPizspccHTqWJMXMTrVNhKJlHSGmAj0lMMr06K2EWb0SYlEis4RuKl81MQf3RjOnVWUzeB0jgSONdt6chb68SeH074okpyhc8WzAcfq98LEyhqSuZxCPrULxpwyr87+Z7qBnWvTHytrAnom75k+7Juk5EV+nLeNZHdGFbWN+L8cpgeVqhN2DOeCO9Z0wUn8jYGNQLIa53KKSaTCJNQ8TcPqhL2zZFmKzpjKtKhthBcpOhVFClQaItFY01qfeeTlkMg2MtBeVnkEnKZn/vzjSJSAHjTpOTXjb/t52RP19EWZh5xknOf57uBZPDWkKjazjRjyHCUvuLMyFxydOtbkRYxOtY1EIiWdISYCPeXwyrSobWSdEE+1RqAXKTpH4Kby1TaiKHJg82hEjTXPr7Xb2Tsd//F5v+DAl0Dyj6NtZ5IOTO+FHZnyuGVuTU2eZZnNZlcALdKZ4syaUdP0eUPDh8tdSV+crulNv3YPWqddn23k/HZxPs/Y9r0YT73aRuKQqhN2DOeCO9Z0wUn8jYGNQLIa53KKSaTCJNQ8TcPqhL2zZFmKzpjKtKhthBcpOhVFELPJkaRjTdMbwhNR5Pnp5Rj4Vct0smz2SbSc5+M0wdyHiX06Gj6Hy4Axpq27pD39/rTLfbck4JyabW0jvaEOS/aBOytzwdGpY01exOhU20gkUtIZYiLQUw6vTIvaRtYJ8VRrBHqRonMEbipfbSOKIgoe58iCseb5x/W3+omOP5F55PqNbd31994E5jSBf3fSuTU1wx/NZnBW6Fx5Wi0pJMvy4Ria6SUz1w/vSHdJxu1wKYqCto1cXuvbJJTaRvxfDtODStUJO4ZzwR1ruuAk/sbARiBZjXM5xSRSYRJqnqZhdcLeWbIsRWdMZVrUNsKLFJ2KIovp5MgGY82+M5OT//xDQJB5ZI3OlWkC71jzdmXN3IeJRSjW2LZevgvGHN3F3eE1QU9Pr6wpq7IsqZRcW3fGGMae/vByIBJt1tg1NiLcWZkLjk4da/IiRqfaRiKRks4QE4GecnhlWtQ2sk6Ip1oj0IsUnSNwU/lqG1EUaTA4RxaPNe92HnFgN4+MvmtsT+B+L4ScWTO5pubDNjK3pmadTmst19nAcz3o/jixsuaXbcS/pobZNnJ6PhAfuLxe1DYS9+UwPahUnbBjOBfcsaYLTuJvDGwEktU4l1NMIhUmoeZpGlYn7J0ly1J0xlSmRW0jvEjRqSjimEiObDbW7Np+NFG/bdlrHlmps+/6bunRtoFjzWFlzdyH6XNq0m2e2lwtM2l6emJlTZZl9Dk11mbNpeG1jRCfsMauMRDhzspccHTqWJMXMTrVNhKJlHSGmAj0lMMr06K2kXVCPNUagV6k6ByBm8pX24iiCGStc2TdWNOeX2ui+vhyKKsyXtSUkqk/rBOnCXb7qihmr/Dk8pOhaWvs9MmyHDrbplt/Fgzdg85tRpsXnkN8u7pzVv2sw28bedPdRiK/HKYHlaoTdgzngjvWdMFJ/I2BjUCyGudyikmkwiTUPE3D6oS9s2RZis6YyrSobYQXKToVRSLjqfvGY82u6a47a9y3nGfZ8x+nyb/IorM+NwveuOFjzfsza26hzqk5M59T4+rKmnObtKefXFmThZxTw2obOdK2EWvrdyo3R4M7K3PB0aljTV7E6FTbSCRS0hliItBTDq9Mi9pG1gnxVGsEepGicwRuKl9tI4oik1XOkZW2keF/zq8X4kO7Q+WdUXuZE2KNbS9p0wSHmeTI5Jqaa7m5TK314NPJvBntnZRbh8ht5e5A3UprM679ULIsK8riSNpG6rf61qWithH/l8P0oFJ1wo7hXHDHmi44ib8xsBFIVuNcTjGJVJiEmqdpWJ2wd5YsS9EZU5kWtY3wIkWnogjFSY48ZKzZ1l3bdETLz3+cRjYERp2xaYKosWaWZdXMypqNz6kZ6er7vmv6uVoW7jdezXPPmpr20majNTUrevrnP55o28jlTW0j26FjTV7E6FTbSCRS0hliItBTDq9Mi9pG1gnxVGsEepFvX+SSAAAGf0lEQVSicwRuKl9tI4oiluXOERbbyMD7tzPxUa8FgIYW0jZd6l0ndlN5kPs1Ndem68mTZbnfX4vPrw3sQYeVNbeV5a6kjx9ac6TuiMPTYXekEjGXV7WNRH45TA8qVSfsGM4Fd6zpgpP4GwMbgWQ1zuUUk0iFSah5mobVCXtnybIUnTGVaVHbCC9SdCqKXH4lRx441uzb/kI6OE5fj0X5IZVXp7W2Dj4XJtY2MnC/smbjc2ome9Dm3A6dTqLbfr/3Kr08yhrbjfwyS5UVZXH6Sp1zZDpTq21kQ3SsyYsYnWobiURKOkNMBHrK4ZVpUdvIOiGeao1AL1J0jsBN5attRFEks9A5wmgbGXj/fjbzx5TkWfby51OQsru/6K2+rqxJ9F64X1lzv6bm2rTpzcQ5NQneX8aYpo7OwkT1oCN3zP1Cm1uaS9wetETLz38+FaRF5e3bux5SE/flMD2oVJ2wYzgX3LGmC07ibwxsBJLVOJdTTCIVJqHmaRpWJ+ydJctSdMZUpkVtI7xI0akooklix4hiaNka+/6dWlyzO1TH50MKnV3T9Z3/aNtltpGB0coawkOxjW3k2lbS2747VNeFNWVVlhWViWtH//Clyo7Ph4rc2aQ5N9PHJIeBOytzwdGpY01exOj8HW0jSZGSzhATgZ5yeGVa1DayToinWiPQixSdI3BT+WobURThLHGOsNtGBur3piVnrU83i2tCCO9B6/PdCbKs3K6sqfbV6F9x2/TEhiPJ3l/tpbXzbp17YnvQ25U1tG3E9DYqYTHXclmVp68nQpe19vzdOR1JbSP+L4fpQaXqhB3DueCONV0ensoPrAaKQLIa6M6SZSCdQn68xdUJe2fJshSdMZVpUdsIL1J0Kop0igxprPn2nzPxOiyK/OWvJYtrvHjPrFljG8nclTXEOTV9Z/q2n6tdgKcHtZbdqDJi/3NljfecGmdNzdKAfP6TOqEmy7Lz94sxfpfQHDg/MtPg6NSxJi9idKptJBIp6QwxEegph1emRW0j64R4qjUCvUjROQI3la+2EUWRT7RzJJFtZKDv+ssrtVPmbl+dXqi9Nn8piam2vaFNK+u55kRGa2puhUwc15L4/TV9Ms4Uy3rQ3XBmzd3mrCOizqmZa/n4ciz3JaGr7/r63YkutY34vxymB5WqE3YM54I71nTBSeXT1UARSFYD3VmyDKRTyI+3uDph7yxZlqIzpjItahvhRYpORfkNKNDGmucfF9NP/LZ/1Xn6eqx2JbsYwkOx0jYyMCRH7tfUBGpYQEhP3zXd5NVm05Bnu+Nud6DX1Lh70C4KyHJXnr54smb0idFecH5kpsHRqWNNXsToVNtIJFLSGWIi0FMOr0yL2kbWCfFUawR6kaJzBG4qX20jivJbEOccSWob+fiQte/urhD3Gp7/fMrJxhb0oPW5iTksJZphZc1oTc2tkL7t+85dU7PJ+8u7pGii6ZieaX/c0Yf4jrdijVIy/GGeDwtqCF31+3gfVrWN+L8cpgeVqhN2DOeCO9Z0QUvlz1UDRSBZDXRnyTKQTiE/3uLqhL2zZFmKzpjKtKhthBcpOhXl92DhUb7roeax56at3Xms++lqVz4vOtmXwBrbXCZm6Sy2kYH9iUoTbG8bSdHuPbvjjlhTk2eZc9kXvdSPL4eSNBNZY88/1DayKTrW5EWMTrWNRCIlnSEmAj3l8Mq0qG1knRBPtUagFyk6R+Cm8tU2oii/C2yHv7DYRq68/vvdkAepHE6748thWgn91VSaIGLniwWcvjin7Yx0jrf/2Or91Xd911C7wK7sQfM8y4vZv9N3JvycmslvqfbV8eVI63r999voXB61jfi/HKYHlaoTdgzngjvWdFHbiBcpOkeISaQK+fEWVyfsnSXLUnTGVKZFbSO8SNGpKL8Nj3GOeJ9eY8zrv98+Pjzz6eevJ3qbz1jaujNRU+jIlxCRI+iannHvj9iePnxbVl7yUUIq/qVe7sqXv5/pv3h5vUSdE3wPzo/MNDg6dazJixidahuJREo6Q0wEesrhlWlR28g6IZ5qjUAvUnSOwE3lq21EUX4jQpMjW9pGBtq6O/+gNh/Jsuzlr+fR/qZrelBrbWrzyFzT43a3fX818/utpO5Bwxf13H95URZf/n4ZUk5zTXfNRBSpbcT/5TA9qFSdsGM4F9yxpovaRrxI0TlCTCJVyI+3uDph7yxZlqIzpjItahvhRYpORfmd+P8xQUVBFZ8TFQAAAABJRU5ErkJggg==;" parent="TEaHfWSjMHCKxIdZN-Lb-1" vertex="1">
          <mxGeometry x="661" y="32.5" width="110" height="55" as="geometry" />
        </mxCell>
        <mxCell id="TEaHfWSjMHCKxIdZN-Lb-4" value="Arquitectura de Software" style="swimlane" parent="1" vertex="1">
          <mxGeometry x="-1639" y="130" width="790" height="445" as="geometry" />
        </mxCell>
        <mxCell id="TEaHfWSjMHCKxIdZN-Lb-5" value="Tipo" style="swimlane;startSize=20;horizontal=1;childLayout=treeLayout;horizontalTree=0;sortEdges=1;resizable=0;containerType=tree;fontSize=12;" parent="TEaHfWSjMHCKxIdZN-Lb-4" vertex="1">
          <mxGeometry x="10" y="30" width="140" height="190" as="geometry" />
        </mxCell>
        <mxCell id="TEaHfWSjMHCKxIdZN-Lb-6" value="Microservicio" style="whiteSpace=wrap;html=1;" parent="TEaHfWSjMHCKxIdZN-Lb-5" vertex="1">
          <mxGeometry x="20" y="40" width="100" height="40" as="geometry" />
        </mxCell>
        <mxCell id="TEaHfWSjMHCKxIdZN-Lb-7" value="Eventos" style="whiteSpace=wrap;html=1;" parent="TEaHfWSjMHCKxIdZN-Lb-5" vertex="1">
          <mxGeometry x="20" y="130" width="100" height="40" as="geometry" />
        </mxCell>
        <mxCell id="TEaHfWSjMHCKxIdZN-Lb-8" value="" style="edgeStyle=elbowEdgeStyle;elbow=vertical;html=1;rounded=1;curved=0;sourcePerimeterSpacing=0;targetPerimeterSpacing=0;startSize=6;endSize=6;" parent="TEaHfWSjMHCKxIdZN-Lb-5" source="TEaHfWSjMHCKxIdZN-Lb-6" target="TEaHfWSjMHCKxIdZN-Lb-7" edge="1">
          <mxGeometry relative="1" as="geometry" />
        </mxCell>
        <mxCell id="TEaHfWSjMHCKxIdZN-Lb-9" value="Componentes Clave e Interacción" style="swimlane;startSize=20;horizontal=1;containerType=tree;" parent="TEaHfWSjMHCKxIdZN-Lb-4" vertex="1">
          <mxGeometry x="160" y="30" width="610" height="400" as="geometry" />
        </mxCell>
        <mxCell id="TEaHfWSjMHCKxIdZN-Lb-10" style="edgeStyle=orthogonalEdgeStyle;rounded=0;orthogonalLoop=1;jettySize=auto;html=1;exitX=1;exitY=0.5;exitDx=0;exitDy=0;entryX=0;entryY=0.5;entryDx=0;entryDy=0;" parent="TEaHfWSjMHCKxIdZN-Lb-9" source="TEaHfWSjMHCKxIdZN-Lb-11" target="TEaHfWSjMHCKxIdZN-Lb-12" edge="1">
          <mxGeometry relative="1" as="geometry" />
        </mxCell>
        <mxCell id="TEaHfWSjMHCKxIdZN-Lb-11" value="API Gateway" style="shape=rectangle;fillColor=#ffcc00;" parent="TEaHfWSjMHCKxIdZN-Lb-9" vertex="1">
          <mxGeometry x="20" y="35" width="120" height="50" as="geometry" />
        </mxCell>
        <mxCell id="TEaHfWSjMHCKxIdZN-Lb-12" value="&lt;p data-pm-slice=&quot;1 1 [&amp;quot;ordered_list&amp;quot;,{&amp;quot;spread&amp;quot;:false,&amp;quot;startingNumber&amp;quot;:1,&amp;quot;start&amp;quot;:887,&amp;quot;end&amp;quot;:1470},&amp;quot;regular_list_item&amp;quot;,{&amp;quot;start&amp;quot;:887,&amp;quot;end&amp;quot;:992}]&quot;&gt;Maneja la autenticación, enrutamiento y comunicación entre clientes y microservicios.&lt;/p&gt;" style="shape=ext;double=1;rounded=0;whiteSpace=wrap;html=1;" parent="TEaHfWSjMHCKxIdZN-Lb-9" vertex="1">
          <mxGeometry x="230" y="35" width="370" height="50" as="geometry" />
        </mxCell>
        <mxCell id="TEaHfWSjMHCKxIdZN-Lb-13" style="edgeStyle=orthogonalEdgeStyle;rounded=0;orthogonalLoop=1;jettySize=auto;html=1;exitX=1;exitY=0.5;exitDx=0;exitDy=0;entryX=0;entryY=0.5;entryDx=0;entryDy=0;" parent="TEaHfWSjMHCKxIdZN-Lb-9" source="TEaHfWSjMHCKxIdZN-Lb-14" target="TEaHfWSjMHCKxIdZN-Lb-15" edge="1">
          <mxGeometry relative="1" as="geometry" />
        </mxCell>
        <mxCell id="TEaHfWSjMHCKxIdZN-Lb-14" value="Microservicios de Pago" style="shape=rectangle;fillColor=#ff9999;" parent="TEaHfWSjMHCKxIdZN-Lb-9" vertex="1">
          <mxGeometry x="20" y="110" width="150" height="50" as="geometry" />
        </mxCell>
        <mxCell id="TEaHfWSjMHCKxIdZN-Lb-15" value="&lt;p data-pm-slice=&quot;1 1 [&amp;quot;ordered_list&amp;quot;,{&amp;quot;spread&amp;quot;:false,&amp;quot;startingNumber&amp;quot;:1,&amp;quot;start&amp;quot;:887,&amp;quot;end&amp;quot;:1470},&amp;quot;regular_list_item&amp;quot;,{&amp;quot;start&amp;quot;:993,&amp;quot;end&amp;quot;:1097}]&quot;&gt;Encargados de validar y ejecutar pagos de forma segura.&lt;/p&gt;" style="shape=ext;double=1;rounded=0;whiteSpace=wrap;html=1;" parent="TEaHfWSjMHCKxIdZN-Lb-9" vertex="1">
          <mxGeometry x="230" y="110" width="370" height="50" as="geometry" />
        </mxCell>
        <mxCell id="TEaHfWSjMHCKxIdZN-Lb-16" value="PostgreSQL" style="shape=cylinder;fillColor=#99ff99;" parent="TEaHfWSjMHCKxIdZN-Lb-9" vertex="1">
          <mxGeometry x="10" y="260" width="100" height="50" as="geometry" />
        </mxCell>
        <mxCell id="TEaHfWSjMHCKxIdZN-Lb-17" style="edgeStyle=orthogonalEdgeStyle;rounded=0;orthogonalLoop=1;jettySize=auto;html=1;exitX=1;exitY=0.5;exitDx=0;exitDy=0;entryX=0;entryY=0.5;entryDx=0;entryDy=0;" parent="TEaHfWSjMHCKxIdZN-Lb-9" source="TEaHfWSjMHCKxIdZN-Lb-18" target="TEaHfWSjMHCKxIdZN-Lb-22" edge="1">
          <mxGeometry relative="1" as="geometry" />
        </mxCell>
        <mxCell id="TEaHfWSjMHCKxIdZN-Lb-18" value="Redis" style="shape=cylinder;fillColor=#99ff99;" parent="TEaHfWSjMHCKxIdZN-Lb-9" vertex="1">
          <mxGeometry x="120" y="260" width="80" height="50" as="geometry" />
        </mxCell>
        <mxCell id="TEaHfWSjMHCKxIdZN-Lb-19" style="edgeStyle=orthogonalEdgeStyle;rounded=0;orthogonalLoop=1;jettySize=auto;html=1;exitX=1;exitY=0.5;exitDx=0;exitDy=0;entryX=0;entryY=0.5;entryDx=0;entryDy=0;" parent="TEaHfWSjMHCKxIdZN-Lb-9" source="TEaHfWSjMHCKxIdZN-Lb-20" target="TEaHfWSjMHCKxIdZN-Lb-21" edge="1">
          <mxGeometry relative="1" as="geometry" />
        </mxCell>
        <mxCell id="TEaHfWSjMHCKxIdZN-Lb-20" value="Kafka (Event-driven)" style="shape=ellipse;fillColor=#99ccff;" parent="TEaHfWSjMHCKxIdZN-Lb-9" vertex="1">
          <mxGeometry x="30" y="190" width="120" height="50" as="geometry" />
        </mxCell>
        <mxCell id="TEaHfWSjMHCKxIdZN-Lb-21" value="&lt;p data-pm-slice=&quot;1 1 [&amp;quot;ordered_list&amp;quot;,{&amp;quot;spread&amp;quot;:false,&amp;quot;startingNumber&amp;quot;:1,&amp;quot;start&amp;quot;:887,&amp;quot;end&amp;quot;:1470},&amp;quot;regular_list_item&amp;quot;,{&amp;quot;start&amp;quot;:1098,&amp;quot;end&amp;quot;:1222}]&quot;&gt;Usa Kafka para la gestión de eventos, asegurando la integridad de las transacciones.&lt;/p&gt;" style="shape=ext;double=1;rounded=0;whiteSpace=wrap;html=1;" parent="TEaHfWSjMHCKxIdZN-Lb-9" vertex="1">
          <mxGeometry x="230" y="190" width="370" height="50" as="geometry" />
        </mxCell>
        <mxCell id="TEaHfWSjMHCKxIdZN-Lb-22" value="&lt;p data-pm-slice=&quot;1 1 [&amp;quot;ordered_list&amp;quot;,{&amp;quot;spread&amp;quot;:false,&amp;quot;startingNumber&amp;quot;:1,&amp;quot;start&amp;quot;:887,&amp;quot;end&amp;quot;:1470},&amp;quot;regular_list_item&amp;quot;,{&amp;quot;start&amp;quot;:1223,&amp;quot;end&amp;quot;:1342}]&quot;&gt;Utiliza bases de datos SQL (PostgreSQL) y NoSQL (Redis) para distintos propósitos.&lt;/p&gt;" style="shape=ext;double=1;rounded=0;whiteSpace=wrap;html=1;" parent="TEaHfWSjMHCKxIdZN-Lb-9" vertex="1">
          <mxGeometry x="230" y="260" width="370" height="50" as="geometry" />
        </mxCell>
        <mxCell id="TEaHfWSjMHCKxIdZN-Lb-23" style="edgeStyle=orthogonalEdgeStyle;rounded=0;orthogonalLoop=1;jettySize=auto;html=1;exitX=1;exitY=0.5;exitDx=0;exitDy=0;entryX=0;entryY=0.5;entryDx=0;entryDy=0;" parent="TEaHfWSjMHCKxIdZN-Lb-9" source="TEaHfWSjMHCKxIdZN-Lb-24" target="TEaHfWSjMHCKxIdZN-Lb-25" edge="1">
          <mxGeometry relative="1" as="geometry">
            <Array as="points">
              <mxPoint x="160" y="355" />
              <mxPoint x="160" y="358" />
            </Array>
          </mxGeometry>
        </mxCell>
        <mxCell id="TEaHfWSjMHCKxIdZN-Lb-24" value="&lt;p data-pm-slice=&quot;1 1 [&amp;quot;ordered_list&amp;quot;,{&amp;quot;spread&amp;quot;:false,&amp;quot;startingNumber&amp;quot;:1,&amp;quot;start&amp;quot;:887,&amp;quot;end&amp;quot;:1470},&amp;quot;regular_list_item&amp;quot;,{&amp;quot;start&amp;quot;:1343,&amp;quot;end&amp;quot;:1470}]&quot;&gt;Servicios de seguridad&lt;/p&gt;" style="shape=loopLimit;whiteSpace=wrap;html=1;fillColor=light-dark(#FFFF00,var(--ge-dark-color, #121212));" parent="TEaHfWSjMHCKxIdZN-Lb-9" vertex="1">
          <mxGeometry x="32.5" y="330" width="125" height="50" as="geometry" />
        </mxCell>
        <mxCell id="TEaHfWSjMHCKxIdZN-Lb-25" value="&lt;p data-pm-slice=&quot;1 1 [&amp;quot;ordered_list&amp;quot;,{&amp;quot;spread&amp;quot;:false,&amp;quot;startingNumber&amp;quot;:1,&amp;quot;start&amp;quot;:887,&amp;quot;end&amp;quot;:1470},&amp;quot;regular_list_item&amp;quot;,{&amp;quot;start&amp;quot;:1343,&amp;quot;end&amp;quot;:1470}]&quot;&gt;Implementa protecciones contra fraudes y cumplimiento de normativas como PCI DSS.&lt;/p&gt;" style="shape=ext;double=1;rounded=0;whiteSpace=wrap;html=1;" parent="TEaHfWSjMHCKxIdZN-Lb-9" vertex="1">
          <mxGeometry x="230" y="335" width="370" height="45" as="geometry" />
        </mxCell>
        <mxCell id="TEaHfWSjMHCKxIdZN-Lb-26" value="Tecnologías Utilizadas" style="swimlane" parent="1" vertex="1">
          <mxGeometry x="-1639" y="600" width="350" height="110" as="geometry" />
        </mxCell>
        <mxCell id="TEaHfWSjMHCKxIdZN-Lb-27" value="Lenguajes: Ruby, Python, JavaScript, Scala &#xa;Frameworks: Rails, Flask, Kafka, Kubernetes&#xa;Base de datos: Postgres,redis,amazon s3" style="text" parent="TEaHfWSjMHCKxIdZN-Lb-26" vertex="1">
          <mxGeometry x="40" y="30" width="300" height="50" as="geometry" />
        </mxCell>
        <mxCell id="TEaHfWSjMHCKxIdZN-Lb-28" value="Seguridad y Escalabilidad" style="swimlane" parent="1" vertex="1">
          <mxGeometry x="-1639" y="740" width="790" height="180" as="geometry" />
        </mxCell>
        <mxCell id="TEaHfWSjMHCKxIdZN-Lb-29" value="• Protección contra DDoS&#xa; • Cifrado extremo a extremo&#xa; • Autoescalado con Kubernetes &#xa;• Distribución de carga con balanceadores&#xa;ProcesResiliencia y Disponibilidad&#xa;Replicación de datos en múltiples regiones para evitar pérdidas.&#xa;Retry Mechanisms: Reintento automático de transacciones fallidas.&#xa;Circuit Breaker: Evita la propagación de fallos en cascada.Cifrado extremo a extremo en transacciones.&#xa;Monitorización en tiempo real con detección de fraudes basada en IA.&#xa;Cumplimiento con PCI DSS para garantizar la seguridad de pagos." style="text" parent="TEaHfWSjMHCKxIdZN-Lb-28" vertex="1">
          <mxGeometry x="20" y="20" width="570" height="140" as="geometry" />
        </mxCell>
        <mxCell id="TEaHfWSjMHCKxIdZN-Lb-30" value="Casos de Uso" style="swimlane" parent="1" vertex="1">
          <mxGeometry x="-1259" y="600" width="410" height="125" as="geometry" />
        </mxCell>
        <mxCell id="TEaHfWSjMHCKxIdZN-Lb-31" value="• Procesamiento de pagos en tiempo real &#xa;• Prevención de fraudes con IA &#xa;• Escalabilidad en eventos como Black Friday" style="text" parent="TEaHfWSjMHCKxIdZN-Lb-30" vertex="1">
          <mxGeometry x="87" y="25" width="323" height="100" as="geometry" />
        </mxCell>
        <mxCell id="TEaHfWSjMHCKxIdZN-Lb-32" value="Arquitectura y operacion de los pagos" style="swimlane;" parent="1" vertex="1">
          <mxGeometry x="-814" y="10" width="790" height="540" as="geometry" />
        </mxCell>
        <mxCell id="TEaHfWSjMHCKxIdZN-Lb-33" style="rounded=0;orthogonalLoop=1;jettySize=auto;html=1;exitX=0.5;exitY=1;exitDx=0;exitDy=0;entryX=0.5;entryY=0;entryDx=0;entryDy=0;edgeStyle=orthogonalEdgeStyle;shape=link;" parent="TEaHfWSjMHCKxIdZN-Lb-32" source="TEaHfWSjMHCKxIdZN-Lb-34" target="TEaHfWSjMHCKxIdZN-Lb-35" edge="1">
          <mxGeometry relative="1" as="geometry" />
        </mxCell>
        <mxCell id="TEaHfWSjMHCKxIdZN-Lb-34" value="Usuario" style="whiteSpace=wrap;html=1;" parent="TEaHfWSjMHCKxIdZN-Lb-32" vertex="1">
          <mxGeometry x="145" y="100" width="100" height="40" as="geometry" />
        </mxCell>
        <mxCell id="TEaHfWSjMHCKxIdZN-Lb-35" value="Usuario" style="whiteSpace=wrap;html=1;" parent="TEaHfWSjMHCKxIdZN-Lb-32" vertex="1">
          <mxGeometry x="145" y="420" width="100" height="40" as="geometry" />
        </mxCell>
        <mxCell id="TEaHfWSjMHCKxIdZN-Lb-36" style="rounded=0;orthogonalLoop=1;jettySize=auto;html=1;entryX=0.5;entryY=0;entryDx=0;entryDy=0;edgeStyle=elbowEdgeStyle;elbow=vertical;shape=link;" parent="TEaHfWSjMHCKxIdZN-Lb-32" source="TEaHfWSjMHCKxIdZN-Lb-37" target="TEaHfWSjMHCKxIdZN-Lb-38" edge="1">
          <mxGeometry relative="1" as="geometry" />
        </mxCell>
        <mxCell id="TEaHfWSjMHCKxIdZN-Lb-37" value="Web" style="whiteSpace=wrap;html=1;" parent="TEaHfWSjMHCKxIdZN-Lb-32" vertex="1">
          <mxGeometry x="285" y="100" width="100" height="40" as="geometry" />
        </mxCell>
        <mxCell id="TEaHfWSjMHCKxIdZN-Lb-38" value="Web" style="whiteSpace=wrap;html=1;" parent="TEaHfWSjMHCKxIdZN-Lb-32" vertex="1">
          <mxGeometry x="285" y="420" width="100" height="40" as="geometry" />
        </mxCell>
        <mxCell id="TEaHfWSjMHCKxIdZN-Lb-39" value="Stripe" style="whiteSpace=wrap;html=1;" parent="TEaHfWSjMHCKxIdZN-Lb-32" vertex="1">
          <mxGeometry x="425" y="100" width="100" height="40" as="geometry" />
        </mxCell>
        <mxCell id="TEaHfWSjMHCKxIdZN-Lb-40" value="Stripe" style="whiteSpace=wrap;html=1;" parent="TEaHfWSjMHCKxIdZN-Lb-32" vertex="1">
          <mxGeometry x="435" y="420" width="100" height="40" as="geometry" />
        </mxCell>
        <mxCell id="TEaHfWSjMHCKxIdZN-Lb-41" style="edgeStyle=orthogonalEdgeStyle;rounded=0;orthogonalLoop=1;jettySize=auto;html=1;exitX=0.5;exitY=1;exitDx=0;exitDy=0;entryX=0.5;entryY=0;entryDx=0;entryDy=0;shape=link;" parent="TEaHfWSjMHCKxIdZN-Lb-32" source="TEaHfWSjMHCKxIdZN-Lb-42" target="TEaHfWSjMHCKxIdZN-Lb-43" edge="1">
          <mxGeometry relative="1" as="geometry" />
        </mxCell>
        <mxCell id="TEaHfWSjMHCKxIdZN-Lb-42" value="Correo" style="whiteSpace=wrap;html=1;" parent="TEaHfWSjMHCKxIdZN-Lb-32" vertex="1">
          <mxGeometry x="565" y="100" width="100" height="40" as="geometry" />
        </mxCell>
        <mxCell id="TEaHfWSjMHCKxIdZN-Lb-43" value="Correo" style="whiteSpace=wrap;html=1;" parent="TEaHfWSjMHCKxIdZN-Lb-32" vertex="1">
          <mxGeometry x="565" y="420" width="100" height="40" as="geometry" />
        </mxCell>
        <mxCell id="TEaHfWSjMHCKxIdZN-Lb-44" style="edgeStyle=orthogonalEdgeStyle;rounded=0;orthogonalLoop=1;jettySize=auto;html=1;exitX=0.5;exitY=1;exitDx=0;exitDy=0;entryX=0.406;entryY=0.003;entryDx=0;entryDy=0;entryPerimeter=0;shape=link;" parent="TEaHfWSjMHCKxIdZN-Lb-32" source="TEaHfWSjMHCKxIdZN-Lb-39" target="TEaHfWSjMHCKxIdZN-Lb-40" edge="1">
          <mxGeometry relative="1" as="geometry" />
        </mxCell>
        <mxCell id="TEaHfWSjMHCKxIdZN-Lb-45" value="Accede a la web" style="text;html=1;align=center;verticalAlign=middle;whiteSpace=wrap;rounded=0;" parent="TEaHfWSjMHCKxIdZN-Lb-32" vertex="1">
          <mxGeometry x="205" y="156" width="105" height="30" as="geometry" />
        </mxCell>
        <mxCell id="TEaHfWSjMHCKxIdZN-Lb-46" value="" style="edgeStyle=segmentEdgeStyle;endArrow=classic;html=1;curved=0;rounded=0;endSize=8;startSize=8;" parent="TEaHfWSjMHCKxIdZN-Lb-32" edge="1">
          <mxGeometry width="50" height="50" relative="1" as="geometry">
            <mxPoint x="195" y="220" as="sourcePoint" />
            <mxPoint x="335" y="220" as="targetPoint" />
          </mxGeometry>
        </mxCell>
        <mxCell id="TEaHfWSjMHCKxIdZN-Lb-47" value="Realiza un pago" style="text;html=1;align=center;verticalAlign=middle;whiteSpace=wrap;rounded=0;" parent="TEaHfWSjMHCKxIdZN-Lb-32" vertex="1">
          <mxGeometry x="205" y="200" width="105" height="30" as="geometry" />
        </mxCell>
        <mxCell id="TEaHfWSjMHCKxIdZN-Lb-48" value="Envia los datos del pago" style="text;html=1;align=center;verticalAlign=middle;whiteSpace=wrap;rounded=0;" parent="TEaHfWSjMHCKxIdZN-Lb-32" vertex="1">
          <mxGeometry x="355" y="210" width="105" height="30" as="geometry" />
        </mxCell>
        <mxCell id="TEaHfWSjMHCKxIdZN-Lb-49" value="" style="edgeStyle=segmentEdgeStyle;endArrow=classic;html=1;curved=0;rounded=0;endSize=8;startSize=8;" parent="TEaHfWSjMHCKxIdZN-Lb-32" edge="1">
          <mxGeometry width="50" height="50" relative="1" as="geometry">
            <mxPoint x="337.5" y="240" as="sourcePoint" />
            <mxPoint x="477.5" y="240" as="targetPoint" />
          </mxGeometry>
        </mxCell>
        <mxCell id="TEaHfWSjMHCKxIdZN-Lb-50" value="" style="edgeStyle=elbowEdgeStyle;elbow=horizontal;endArrow=classic;html=1;curved=0;rounded=0;endSize=8;startSize=8;" parent="TEaHfWSjMHCKxIdZN-Lb-32" edge="1">
          <mxGeometry width="50" height="50" relative="1" as="geometry">
            <mxPoint x="475" y="260" as="sourcePoint" />
            <mxPoint x="475" y="290" as="targetPoint" />
            <Array as="points">
              <mxPoint x="495" y="280" />
            </Array>
          </mxGeometry>
        </mxCell>
        <mxCell id="TEaHfWSjMHCKxIdZN-Lb-51" value="Confirma el pago con el banco" style="text;html=1;align=center;verticalAlign=middle;whiteSpace=wrap;rounded=0;" parent="TEaHfWSjMHCKxIdZN-Lb-32" vertex="1">
          <mxGeometry x="495" y="260" width="105" height="30" as="geometry" />
        </mxCell>
        <mxCell id="TEaHfWSjMHCKxIdZN-Lb-52" value="" style="edgeStyle=segmentEdgeStyle;endArrow=classic;html=1;curved=0;rounded=0;endSize=8;startSize=8;" parent="TEaHfWSjMHCKxIdZN-Lb-32" edge="1">
          <mxGeometry width="50" height="50" relative="1" as="geometry">
            <mxPoint x="475" y="310" as="sourcePoint" />
            <mxPoint x="195" y="310" as="targetPoint" />
          </mxGeometry>
        </mxCell>
        <mxCell id="TEaHfWSjMHCKxIdZN-Lb-53" value="Ventana de confirmacion" style="text;html=1;align=center;verticalAlign=middle;whiteSpace=wrap;rounded=0;" parent="TEaHfWSjMHCKxIdZN-Lb-32" vertex="1">
          <mxGeometry x="215" y="280" width="105" height="30" as="geometry" />
        </mxCell>
        <mxCell id="TEaHfWSjMHCKxIdZN-Lb-54" value="" style="edgeStyle=segmentEdgeStyle;endArrow=classic;html=1;curved=0;rounded=0;endSize=8;startSize=8;" parent="TEaHfWSjMHCKxIdZN-Lb-32" edge="1">
          <mxGeometry width="50" height="50" relative="1" as="geometry">
            <mxPoint x="475" y="350" as="sourcePoint" />
            <mxPoint x="335" y="350" as="targetPoint" />
          </mxGeometry>
        </mxCell>
        <mxCell id="TEaHfWSjMHCKxIdZN-Lb-55" value="notifica el pago" style="text;html=1;align=center;verticalAlign=middle;whiteSpace=wrap;rounded=0;" parent="TEaHfWSjMHCKxIdZN-Lb-32" vertex="1">
          <mxGeometry x="355" y="320" width="105" height="30" as="geometry" />
        </mxCell>
        <mxCell id="TEaHfWSjMHCKxIdZN-Lb-56" value="" style="edgeStyle=segmentEdgeStyle;endArrow=classic;html=1;curved=0;rounded=0;endSize=8;startSize=8;" parent="TEaHfWSjMHCKxIdZN-Lb-32" edge="1">
          <mxGeometry width="50" height="50" relative="1" as="geometry">
            <mxPoint x="337.5" y="370" as="sourcePoint" />
            <mxPoint x="615" y="370" as="targetPoint" />
          </mxGeometry>
        </mxCell>
        <mxCell id="TEaHfWSjMHCKxIdZN-Lb-57" value="Envia el producto" style="text;html=1;align=center;verticalAlign=middle;whiteSpace=wrap;rounded=0;" parent="TEaHfWSjMHCKxIdZN-Lb-32" vertex="1">
          <mxGeometry x="495" y="340" width="105" height="30" as="geometry" />
        </mxCell>
        <mxCell id="TEaHfWSjMHCKxIdZN-Lb-58" value="Recibe el producto" style="text;html=1;align=center;verticalAlign=middle;whiteSpace=wrap;rounded=0;" parent="TEaHfWSjMHCKxIdZN-Lb-32" vertex="1">
          <mxGeometry x="215" y="380" width="105" height="30" as="geometry" />
        </mxCell>
        <mxCell id="TEaHfWSjMHCKxIdZN-Lb-59" value="" style="edgeStyle=segmentEdgeStyle;endArrow=classic;html=1;curved=0;rounded=0;endSize=8;startSize=8;" parent="1" edge="1">
          <mxGeometry width="50" height="50" relative="1" as="geometry">
            <mxPoint x="-619" y="190" as="sourcePoint" />
            <mxPoint x="-479" y="190" as="targetPoint" />
          </mxGeometry>
        </mxCell>
        <mxCell id="TEaHfWSjMHCKxIdZN-Lb-60" value="" style="edgeStyle=segmentEdgeStyle;endArrow=classic;html=1;curved=0;rounded=0;endSize=8;startSize=8;" parent="1" edge="1">
          <mxGeometry width="50" height="50" relative="1" as="geometry">
            <mxPoint x="-199" y="420" as="sourcePoint" />
            <mxPoint x="-619" y="420" as="targetPoint" />
          </mxGeometry>
        </mxCell>
        <mxCell id="TEaHfWSjMHCKxIdZN-Lb-63" value="&lt;strong data-end=&quot;378&quot; data-start=&quot;370&quot;&gt;APIs&lt;/strong&gt;: RESTful y GraphQL." style="html=1;outlineConnect=0;whiteSpace=wrap;fillColor=#99ffff;shape=mxgraph.archimate3.application;appType=comp;archiType=square;fontSize=12;" parent="1" vertex="1">
          <mxGeometry x="870" y="490" width="150" height="75" as="geometry" />
        </mxCell>
        <mxCell id="TEaHfWSjMHCKxIdZN-Lb-64" value="&lt;strong data-end=&quot;422&quot; data-start=&quot;405&quot;&gt;Autenticación&lt;/strong&gt;: OAuth 2.0, JWT (para control de acceso seguro)." style="html=1;outlineConnect=0;whiteSpace=wrap;fillColor=#99ffff;shape=mxgraph.archimate3.application;appType=comp;archiType=square;fontSize=12;" parent="1" vertex="1">
          <mxGeometry x="870" y="575" width="150" height="75" as="geometry" />
        </mxCell>
        <mxCell id="TEaHfWSjMHCKxIdZN-Lb-67" value="&lt;h4 data-end=&quot;518&quot; data-start=&quot;475&quot;&gt;&lt;strong data-end=&quot;516&quot; data-start=&quot;480&quot;&gt;&lt;/strong&gt;&lt;/h4&gt;&lt;ol data-end=&quot;1453&quot; data-start=&quot;519&quot;&gt;&lt;li data-end=&quot;760&quot; data-start=&quot;519&quot;&gt;&lt;p data-end=&quot;553&quot; data-start=&quot;522&quot;&gt;&lt;strong data-end=&quot;550&quot; data-start=&quot;522&quot;&gt;Recepción de solicitudes&lt;/strong&gt;:&lt;/p&gt;&lt;ul data-end=&quot;760&quot; data-start=&quot;557&quot;&gt;&lt;li data-end=&quot;659&quot; data-start=&quot;557&quot;&gt;Un usuario (comerciante o cliente) inicia una transacción en una tienda online o aplicación móvil.&lt;/li&gt;&lt;li data-end=&quot;760&quot; data-start=&quot;663&quot;&gt;La solicitud se envía a la API de Stripe a través de una interfaz web o una llamada API REST.&lt;/li&gt;&lt;/ul&gt;&lt;/li&gt;&lt;li data-end=&quot;953&quot; data-start=&quot;762&quot;&gt;&lt;p data-end=&quot;798&quot; data-start=&quot;765&quot;&gt;&lt;strong data-end=&quot;795&quot; data-start=&quot;765&quot;&gt;Validación y procesamiento&lt;/strong&gt;:&lt;/p&gt;&lt;ul data-end=&quot;953&quot; data-start=&quot;802&quot;&gt;&lt;li data-end=&quot;871&quot; data-start=&quot;802&quot;&gt;Se verifica la autenticidad del usuario mediante OAuth 2.0 o JWT.&lt;/li&gt;&lt;li data-end=&quot;953&quot; data-start=&quot;875&quot;&gt;Se revisan los parámetros de la solicitud (monto, divisa, método de pago).&lt;/li&gt;&lt;/ul&gt;&lt;/li&gt;&lt;li data-end=&quot;1251&quot; data-start=&quot;955&quot;&gt;&lt;p data-end=&quot;999&quot; data-start=&quot;958&quot;&gt;&lt;strong data-end=&quot;996&quot; data-start=&quot;958&quot;&gt;Interacción con la capa de negocio&lt;/strong&gt;:&lt;/p&gt;&lt;ul data-end=&quot;1251&quot; data-start=&quot;1003&quot;&gt;&lt;li data-end=&quot;1111&quot; data-start=&quot;1003&quot;&gt;La lógica de negocio determina si la transacción es válida (revisión de saldo, reglas antifraude, etc.).&lt;/li&gt;&lt;li data-end=&quot;1251&quot; data-start=&quot;1115&quot;&gt;Si es válida, la capa de aplicación reenvía la solicitud a la capa de integración para comunicarse con proveedores de pago externos.&lt;/li&gt;&lt;/ul&gt;&lt;/li&gt;&lt;li data-end=&quot;1453&quot; data-start=&quot;1253&quot;&gt;&lt;p data-end=&quot;1283&quot; data-start=&quot;1256&quot;&gt;&lt;strong data-end=&quot;1280&quot; data-start=&quot;1256&quot;&gt;Respuesta al usuario&lt;/strong&gt;:&lt;/p&gt;&lt;ul data-end=&quot;1453&quot; data-start=&quot;1287&quot;&gt;&lt;li data-end=&quot;1374&quot; data-start=&quot;1287&quot;&gt;La API responde con un estado de la transacción (aprobada, rechazada, en revisión).&lt;/li&gt;&lt;li data-end=&quot;1453&quot; data-start=&quot;1378&quot;&gt;Se actualiza la interfaz de usuario con la información correspondiente.&lt;/li&gt;&lt;/ul&gt;&lt;/li&gt;&lt;/ol&gt;" style="text;html=1;strokeColor=none;fillColor=none;align=center;verticalAlign=middle;whiteSpace=wrap;rounded=0;fontSize=12;" parent="1" vertex="1">
          <mxGeometry x="1040" y="480" width="435" height="30" as="geometry" />
        </mxCell>
        <mxCell id="TEaHfWSjMHCKxIdZN-Lb-71" value="&lt;strong data-end=&quot;1758&quot; data-start=&quot;1731&quot;&gt;Servicios de mensajería&lt;/strong&gt;: Kafka, RabbitMQ (para la sincronización de eventos)." style="html=1;outlineConnect=0;whiteSpace=wrap;fillColor=#99ffff;shape=mxgraph.archimate3.application;appType=comp;archiType=square;fontSize=12;" parent="1" vertex="1">
          <mxGeometry x="870" y="790" width="150" height="75" as="geometry" />
        </mxCell>
        <mxCell id="TEaHfWSjMHCKxIdZN-Lb-72" value="&lt;strong data-end=&quot;1840&quot; data-start=&quot;1819&quot;&gt;Balanceo de carga&lt;/strong&gt;: AWS API Gateway, NGINX." style="html=1;outlineConnect=0;whiteSpace=wrap;fillColor=#99ffff;shape=mxgraph.archimate3.application;appType=comp;archiType=square;fontSize=12;" parent="1" vertex="1">
          <mxGeometry x="870" y="890" width="150" height="75" as="geometry" />
        </mxCell>
        <mxCell id="TEaHfWSjMHCKxIdZN-Lb-73" value="&lt;h4 data-end=&quot;1913&quot; data-start=&quot;1869&quot;&gt;&lt;strong data-end=&quot;1911&quot; data-start=&quot;1874&quot;&gt;&lt;/strong&gt;&lt;/h4&gt;&lt;ol data-end=&quot;2610&quot; data-start=&quot;1914&quot;&gt;&lt;li data-end=&quot;2127&quot; data-start=&quot;1914&quot;&gt;&lt;p data-end=&quot;1950&quot; data-start=&quot;1917&quot;&gt;&lt;strong data-end=&quot;1947&quot; data-start=&quot;1917&quot;&gt;Conexión con redes de pago&lt;/strong&gt;:&lt;/p&gt;&lt;ul data-end=&quot;2127&quot; data-start=&quot;1954&quot;&gt;&lt;li data-end=&quot;2058&quot; data-start=&quot;1954&quot;&gt;Stripe envía la solicitud de pago a la red de pago correspondiente (Visa, Mastercard, PayPal, etc.).&lt;/li&gt;&lt;li data-end=&quot;2127&quot; data-start=&quot;2062&quot;&gt;Se aplican reglas de seguridad y se firman las transacciones.&lt;/li&gt;&lt;/ul&gt;&lt;/li&gt;&lt;li data-end=&quot;2337&quot; data-start=&quot;2129&quot;&gt;&lt;p data-end=&quot;2172&quot; data-start=&quot;2132&quot;&gt;&lt;strong data-end=&quot;2169&quot; data-start=&quot;2132&quot;&gt;Interacción con bancos y emisores&lt;/strong&gt;:&lt;/p&gt;&lt;ul data-end=&quot;2337&quot; data-start=&quot;2176&quot;&gt;&lt;li data-end=&quot;2258&quot; data-start=&quot;2176&quot;&gt;La red de pago reenvía la solicitud al banco emisor de la tarjeta del cliente.&lt;/li&gt;&lt;li data-end=&quot;2337&quot; data-start=&quot;2262&quot;&gt;El banco valida la identidad del cliente y la disponibilidad de fondos.&lt;/li&gt;&lt;/ul&gt;&lt;/li&gt;&lt;li data-end=&quot;2610&quot; data-start=&quot;2339&quot;&gt;&lt;p data-end=&quot;2387&quot; data-start=&quot;2342&quot;&gt;&lt;strong data-end=&quot;2384&quot; data-start=&quot;2342&quot;&gt;Recepción de respuesta y actualización&lt;/strong&gt;:&lt;/p&gt;&lt;ul data-end=&quot;2610&quot; data-start=&quot;2391&quot;&gt;&lt;li data-end=&quot;2468&quot; data-start=&quot;2391&quot;&gt;El banco responde con el estado de la transacción (aprobada o rechazada).&lt;/li&gt;&lt;li data-end=&quot;2532&quot; data-start=&quot;2472&quot;&gt;Stripe recibe la respuesta y actualiza su base de datos.&lt;/li&gt;&lt;li data-end=&quot;2610&quot; data-start=&quot;2536&quot;&gt;Se envía un webhook a los comerciantes para notificarles el resultado.&lt;/li&gt;&lt;/ul&gt;&lt;/li&gt;&lt;/ol&gt;" style="text;html=1;strokeColor=none;fillColor=none;align=center;verticalAlign=middle;whiteSpace=wrap;rounded=0;fontSize=12;" parent="1" vertex="1">
          <mxGeometry x="1040" y="812.5" width="510" height="30" as="geometry" />
        </mxCell>
      </root>
    </mxGraphModel>
  </diagram>
  <diagram name="Diagrama componentes" id="3lwHlGca08G8yFmJc-dX">
    <mxGraphModel dx="1278" dy="641" grid="1" gridSize="10" guides="1" tooltips="1" connect="1" arrows="1" fold="1" page="1" pageScale="1" pageWidth="827" pageHeight="1169" math="0" shadow="0">
      <root>
        <mxCell id="0" />
        <mxCell id="1" parent="0" />
      </root>
    </mxGraphModel>
  </diagram>
  <diagram name="Arquitectura de Datos" id="lmJlcXOS2_V9A7pgyyeC">
    <mxGraphModel dx="1278" dy="641" grid="1" gridSize="10" guides="1" tooltips="1" connect="1" arrows="1" fold="1" page="1" pageScale="1" pageWidth="827" pageHeight="1169" math="0" shadow="0">
      <root>
        <mxCell id="0" />
        <mxCell id="1" parent="0" />
      </root>
    </mxGraphModel>
  </diagram>
  <diagram name="Arquitectura detallada" id="8EBKw461pjd0tYJZl3WX">
    <mxGraphModel dx="1278" dy="641" grid="1" gridSize="10" guides="1" tooltips="1" connect="1" arrows="1" fold="1" page="1" pageScale="1" pageWidth="827" pageHeight="1169" math="0" shadow="0">
      <root>
        <mxCell id="0" />
        <mxCell id="1" parent="0" />
      </root>
    </mxGraphModel>
  </diagram>
</mxfile>
